<?xml version="1.0" encoding="UTF-8" standalone="no"?>
<svg
   xmlns:dc="http://purl.org/dc/elements/1.1/"
   xmlns:cc="http://creativecommons.org/ns#"
   xmlns:rdf="http://www.w3.org/1999/02/22-rdf-syntax-ns#"
   xmlns:svg="http://www.w3.org/2000/svg"
   xmlns="http://www.w3.org/2000/svg"
   xmlns:sodipodi="http://sodipodi.sourceforge.net/DTD/sodipodi-0.dtd"
   xmlns:inkscape="http://www.inkscape.org/namespaces/inkscape"
   width="500.0px"
   height="500.0px"
   viewBox="0 0 500.0 500.0"
   version="1.1"
   id="SVGRoot"
   sodipodi:docname="play_push_icon.svg"
   inkscape:version="1.0.2 (e86c8708, 2021-01-15)">
  <defs
     id="defs4337" />
  <sodipodi:namedview
     id="base"
     pagecolor="#ffffff"
     bordercolor="#666666"
     borderopacity="1.0"
     inkscape:pageopacity="0.0"
     inkscape:pageshadow="2"
     inkscape:zoom="2.8"
     inkscape:cx="82.346939"
     inkscape:cy="289.03154"
     inkscape:document-units="px"
     inkscape:current-layer="layer1"
     inkscape:document-rotation="0"
     showgrid="true"
     inkscape:window-width="1252"
     inkscape:window-height="943"
     inkscape:window-x="668"
     inkscape:window-y="1150"
     inkscape:window-maximized="0">
    <inkscape:grid
       type="xygrid"
       id="grid4907" />
  </sodipodi:namedview>
  <metadata
     id="metadata4340">
    <rdf:RDF>
      <cc:Work
         rdf:about="">
        <dc:format>image/svg+xml</dc:format>
        <dc:type
           rdf:resource="http://purl.org/dc/dcmitype/StillImage" />
        <dc:title />
      </cc:Work>
    </rdf:RDF>
  </metadata>
  <g
     inkscape:label="Layer 1"
     inkscape:groupmode="layer"
     id="layer1">
    <g
       transform="matrix(0.05863859,0,0,-0.06002895,-14.386926,546.6889)"
       fill="#000000"
       stroke="none"
       id="g3753"
       style="fill:#a6bac9;fill-opacity:1">
      <path
         d="M 4190,8789 C 3573,8757 2947,8572 2414,8264 1382,7669 667,6649 465,5485 c -47,-273 -50,-315 -50,-690 0,-389 10,-494 71,-790 167,-801 558,-1514 1140,-2075 644,-620 1427,-990 2334,-1102 142,-18 738,-18 880,0 778,96 1464,383 2070,866 164,131 459,427 594,596 472,592 745,1225 858,1990 20,138 22,193 23,510 0,388 -8,477 -66,776 -237,1220 -1031,2258 -2152,2815 -408,202 -817,324 -1282,384 -117,14 -445,36 -515,33 -19,0 -100,-4 -180,-9 z m 540,-329 c 849,-76 1649,-450 2256,-1055 589,-587 954,-1325 1061,-2150 25,-200 25,-710 0,-910 C 7872,3003 6991,1872 5735,1377 5325,1215 4950,1143 4480,1133 c -364,-7 -658,24 -975,103 -634,159 -1229,497 -1695,964 -305,305 -512,592 -700,970 -190,381 -308,778 -362,1215 -18,148 -18,682 0,830 71,575 264,1114 564,1572 479,730 1154,1248 1968,1511 271,88 513,135 840,166 87,8 506,5 610,-4 z"
         id="path3749"
         style="fill:#a6bac9;fill-opacity:1" />
      <path
         d="m 3487,6712 c -69,-25 -116,-67 -146,-131 l -26,-56 -3,-1793 c -2,-1780 -2,-1793 18,-1832 45,-89 126,-141 228,-148 55,-4 67,-1 105,23 23,16 449,339 947,720 498,380 1011,772 1140,870 129,99 255,198 279,220 89,81 115,198 67,301 -18,39 -43,65 -112,121 -75,59 -644,480 -1980,1464 -334,246 -355,259 -418,259 -28,-1 -72,-9 -99,-18 z"
         id="path3751"
         style="fill:#a6bac9;fill-opacity:1" />
    </g>
  </g>
</svg>
