<?xml version="1.0" encoding="UTF-8" standalone="no"?>
<svg
   xmlns:dc="http://purl.org/dc/elements/1.1/"
   xmlns:cc="http://creativecommons.org/ns#"
   xmlns:rdf="http://www.w3.org/1999/02/22-rdf-syntax-ns#"
   xmlns:svg="http://www.w3.org/2000/svg"
   xmlns="http://www.w3.org/2000/svg"
   xmlns:sodipodi="http://sodipodi.sourceforge.net/DTD/sodipodi-0.dtd"
   xmlns:inkscape="http://www.inkscape.org/namespaces/inkscape"
   width="500.0px"
   height="500.0px"
   viewBox="0 0 500.0 500.0"
   version="1.1"
   id="SVGRoot"
   sodipodi:docname="play_push_icon.ef6c72ea.svg"
   inkscape:version="1.0.2 (e86c8708, 2021-01-15)">
  <defs
     id="defs4337" />
  <sodipodi:namedview
     id="base"
     pagecolor="#ffffff"
     bordercolor="#666666"
     borderopacity="1.0"
     inkscape:pageopacity="0.0"
     inkscape:pageshadow="2"
     inkscape:zoom="1.4"
     inkscape:cx="167.79507"
     inkscape:cy="246.93275"
     inkscape:document-units="px"
     inkscape:current-layer="layer1"
     inkscape:document-rotation="0"
     showgrid="true"
     inkscape:window-width="1597"
     inkscape:window-height="943"
     inkscape:window-x="39"
     inkscape:window-y="34"
     inkscape:window-maximized="0">
    <inkscape:grid
       type="xygrid"
       id="grid4907" />
  </sodipodi:namedview>
  <metadata
     id="metadata4340">
    <rdf:RDF>
      <cc:Work
         rdf:about="">
        <dc:format>image/svg+xml</dc:format>
        <dc:type
           rdf:resource="http://purl.org/dc/dcmitype/StillImage" />
        <dc:title />
      </cc:Work>
    </rdf:RDF>
  </metadata>
  <g
     inkscape:label="Layer 1"
     inkscape:groupmode="layer"
     id="layer1">
    <g
       transform="matrix(0.05863859,0,0,-0.06002895,-14.386926,546.6889)"
       fill="#000000"
       stroke="none"
       id="g3753"
       style="fill:#a6bac9;fill-opacity:1">
      <path
         d="M 4190,8789 C 3573,8757 2947,8572 2414,8264 1382,7669 667,6649 465,5485 c -47,-273 -50,-315 -50,-690 0,-389 10,-494 71,-790 167,-801 558,-1514 1140,-2075 644,-620 1427,-990 2334,-1102 142,-18 738,-18 880,0 778,96 1464,383 2070,866 164,131 459,427 594,596 472,592 745,1225 858,1990 20,138 22,193 23,510 0,388 -8,477 -66,776 -237,1220 -1031,2258 -2152,2815 -408,202 -817,324 -1282,384 -117,14 -445,36 -515,33 -19,0 -100,-4 -180,-9 z m 540,-329 c 849,-76 1649,-450 2256,-1055 589,-587 954,-1325 1061,-2150 25,-200 25,-710 0,-910 C 7872,3003 6991,1872 5735,1377 5325,1215 4950,1143 4480,1133 c -364,-7 -658,24 -975,103 -634,159 -1229,497 -1695,964 -305,305 -512,592 -700,970 -190,381 -308,778 -362,1215 -18,148 -18,682 0,830 71,575 264,1114 564,1572 479,730 1154,1248 1968,1511 271,88 513,135 840,166 87,8 506,5 610,-4 z"
         id="path3749"
         style="fill:#a6bac9;fill-opacity:1" />
      <path
         d="m 3487,6712 c -69,-25 -116,-67 -146,-131 l -26,-56 -3,-1793 c -2,-1780 -2,-1793 18,-1832 45,-89 126,-141 228,-148 55,-4 67,-1 105,23 23,16 449,339 947,720 498,380 1011,772 1140,870 129,99 255,198 279,220 89,81 115,198 67,301 -18,39 -43,65 -112,121 -75,59 -644,480 -1980,1464 -334,246 -355,259 -418,259 -28,-1 -72,-9 -99,-18 z"
         id="path3751"
         style="fill:#a6bac9;fill-opacity:1" />
    </g>
    <path
       style="fill:#8197c4;stroke:#889acc;stroke-width:0.714286"
       d="M 222.43793,496.93173 C 182.64079,493.81692 138.97401,476.81552 105.41593,451.36991 61.00561,417.69553 30.200713,370.64196 16.723425,315.89472 11.154736,293.27367 9.7200551,275.79951 10.768217,243.36132 12.29843,196.00473 31.186486,146.76672 63.366628,106.24602 75.611792,90.827117 98.456975,69.912566 115.65221,58.379064 158.5645,29.596146 210.10705,15.893688 260.688,19.82166 c 68.0538,5.284861 129.736,40.114165 170.80246,96.44485 19.40554,26.61849 34.17786,60.19669 40.83022,92.80909 3.9866,19.54383 4.35815,23.72335 4.3813,49.28572 0.0226,25.03117 -0.25595,28.57443 -3.6018,45.80642 -6.25783,32.22945 -17.80815,60.64838 -35.6704,87.76501 -8.06141,12.238 -14.22644,20.0394 -25.11853,31.78571 -35.95901,38.77908 -81.457,62.92891 -135.23047,71.77883 -10.27308,1.69072 -41.04678,2.49857 -54.64285,1.43444 z m 38.96436,-18.60064 c 27.75633,-2.15103 49.51221,-8.13462 75.32135,-20.71589 62.91172,-30.6678 107.46286,-91.14756 119.67874,-162.46817 3.27522,-19.12191 3.11382,-55.72456 -0.33072,-75 -8.50094,-47.57089 -29.92032,-88.14656 -64.11388,-121.453742 -10.63983,-10.364024 -18.24562,-16.656952 -28.80557,-23.833337 -26.14818,-17.769919 -53.2029,-28.732419 -85,-34.441764 -12.21759,-2.193737 -47.49663,-2.769373 -60.91097,-0.993864 -40.48615,5.358707 -76.40888,20.901942 -108.73189,47.046686 -7.7264,6.249565 -24.466967,23.220011 -31.093483,31.520441 -23.323109,29.21475 -39.047514,63.40901 -45.662891,99.29844 -3.034832,16.46443 -3.429542,22.48562 -3.034608,46.29216 0.397176,23.94162 1.200402,30.73881 5.798017,49.06498 7.632828,30.42457 22.860833,61.55985 41.572795,85 6.617824,8.29004 26.97666,28.58615 35.37265,35.26367 16.64736,13.24004 39.95245,26.39111 59.54752,33.60271 27.98754,10.30028 58.4995,14.28931 90.39294,11.81768 z"
       id="path1414" />
    <path
       style="fill:#8197c4;stroke:#889acc;stroke-width:0.714286"
       d="m 190.10855,380.26498 c -3.20699,-1.16308 -7.05622,-4.36025 -8.55906,-7.10916 -1.18075,-2.15975 -1.25442,-8.64953 -1.25442,-110.50879 V 154.43275 l 2.00377,-3.40886 c 2.78688,-4.74109 6.47459,-7.01932 12.0919,-7.47022 4.42795,-0.35543 4.57231,-0.30907 9.48607,3.04651 4.38953,2.99759 110.2892,82.75129 127.12357,95.73754 3.53077,2.7237 7.58552,6.1515 9.01056,7.61735 4.49154,4.62019 5.22259,10.79778 2.02056,17.07428 -1.65012,3.23451 -6.41515,7.17359 -47.45072,39.22584 -99.41145,77.64876 -95.86387,74.96837 -99.14406,74.90893 -1.64934,-0.0299 -4.04701,-0.4345 -5.32817,-0.89914 z"
       id="path1416" />
  </g>
</svg>
