<?xml version="1.0" encoding="UTF-8" standalone="no"?>
<svg
   xmlns:dc="http://purl.org/dc/elements/1.1/"
   xmlns:cc="http://creativecommons.org/ns#"
   xmlns:rdf="http://www.w3.org/1999/02/22-rdf-syntax-ns#"
   xmlns:svg="http://www.w3.org/2000/svg"
   xmlns="http://www.w3.org/2000/svg"
   xmlns:sodipodi="http://sodipodi.sourceforge.net/DTD/sodipodi-0.dtd"
   xmlns:inkscape="http://www.inkscape.org/namespaces/inkscape"
   enable-background="new 0 0 100 100"
   id="Layer_1"
   version="1.1"
   viewBox="0 0 100 100"
   xml:space="preserve"
   sodipodi:docname="playing_wheel_icon.svg"
   inkscape:version="1.0.2 (e86c8708, 2021-01-15)"><metadata
     id="metadata978"><rdf:RDF><cc:Work
         rdf:about=""><dc:format>image/svg+xml</dc:format><dc:type
           rdf:resource="http://purl.org/dc/dcmitype/StillImage" /><dc:title></dc:title></cc:Work></rdf:RDF></metadata><defs
     id="defs976" /><sodipodi:namedview
     pagecolor="#ffffff"
     bordercolor="#666666"
     borderopacity="1"
     objecttolerance="10"
     gridtolerance="10"
     guidetolerance="10"
     inkscape:pageopacity="0"
     inkscape:pageshadow="2"
     inkscape:window-width="1226"
     inkscape:window-height="801"
     id="namedview974"
     showgrid="false"
     inkscape:zoom="7.35"
     inkscape:cx="50"
     inkscape:cy="50"
     inkscape:window-x="606"
     inkscape:window-y="1261"
     inkscape:window-maximized="0"
     inkscape:current-layer="Layer_1" /><path
     d="M96.3,50l-9.8-12.7h-5.8l4.1-4.1l-2.1-15.9l-15.9-2.1l-4.1,4.1v-5.8L50,3.7l-12.7,9.8v5.8l-4.1-4.1l-15.9,2.1l-2.1,15.9  l4.1,4.1h-5.8L3.7,50l9.8,12.7h5.8l-4.1,4.1l2.1,15.9l15.9,2.1l4.1-4.1v5.8L50,96.3l12.7-9.8v-5.8l4.1,4.1l15.9-2.1l2.1-15.9  l-4.1-4.1h5.8L96.3,50z M67.5,17.3l13.4,1.7l1.7,13.4l-4.8,4.8h-9.4l-5.7-5.7v-9.4L67.5,17.3z M53.6,70h-7.2l-0.8-6.4l4.4-3.4  l4.4,3.4L53.6,70z M44.5,70.6l-5.2,5.2v-7.3l4.5-3.4L44.5,70.6z M46.4,30h7.2l0.8,6.4L50,39.7l-4.4-3.4L46.4,30z M55.5,29.4l5.2-5.2  v7.3l-4.5,3.4L55.5,29.4z M63.7,54.4L60.3,50l3.4-4.4l6.4,0.8v7.2L63.7,54.4z M57.7,50l3.6,4.7l-5.9,0.8l-0.8,5.9L50,57.7l-4.7,3.6  l-0.8-5.9l-5.9-0.8l3.6-4.7l-3.6-4.7l5.9-0.8l0.8-5.9l4.7,3.6l4.7-3.6l0.8,5.9l5.9,0.8L57.7,50z M36.4,45.6l3.4,4.4l-3.4,4.4  L30,53.6v-7.2L36.4,45.6z M57.3,42.7l-0.7-5.5l5.1-3.9l5.1,5.1l-3.9,5.1L57.3,42.7z M43.8,34.9l-4.5-3.4v-7.3l5.2,5.2L43.8,34.9z   M38.4,33.3l5.1,3.9l-0.7,5.5l-5.5,0.7l-3.9-5.1L38.4,33.3z M31.5,39.3l3.4,4.5l-5.6,0.7l-5.2-5.2H31.5z M29.4,55.5l5.6,0.7  l-3.4,4.5h-7.3L29.4,55.5z M37.2,56.5l5.5,0.7l0.7,5.5l-5.1,3.9l-5.1-5.1L37.2,56.5z M56.2,65.1l4.5,3.4v7.3l-5.2-5.2L56.2,65.1z   M61.6,66.7l-5.1-3.9l0.7-5.5l5.5-0.7l3.9,5.1L61.6,66.7z M68.5,60.7l-3.4-4.5l5.6-0.7l5.2,5.2H68.5z M70.6,44.5l-5.6-0.7l3.4-4.5  h7.3L70.6,44.5z M39.3,14.5L50,6.3l10.7,8.2v6.8L54,28H46l-6.7-6.7V14.5z M17.3,32.5l1.7-13.4l13.4-1.7l4.8,4.8v9.4l-5.7,5.7h-9.4  L17.3,32.5z M14.5,60.7L6.3,50l8.2-10.7h6.8L28,46V54l-6.7,6.7H14.5z M32.5,82.7l-13.4-1.7l-1.7-13.4l4.8-4.8h9.4l5.7,5.7v9.4  L32.5,82.7z M60.7,85.5L50,93.7l-10.7-8.2v-6.8L46,72H54l6.7,6.7V85.5z M82.7,67.5l-1.7,13.4l-13.4,1.7l-4.8-4.8v-9.4l5.7-5.7h9.4  L82.7,67.5z M78.7,60.7L72,54V46l6.7-6.7h6.8L93.7,50l-8.2,10.7H78.7z"
     id="path971" /><path
     style="fill:#b2c3fb;stroke:#889acc;stroke-width:0.136054;fill-opacity:1"
     d="m 52.342307,59.47121 c -1.212877,-0.981274 -2.263314,-1.784135 -2.334304,-1.784135 -0.07099,0 -1.124554,0.762993 -2.341252,1.695539 -1.216699,0.932547 -2.242136,1.665583 -2.278749,1.628971 -0.03661,-0.03661 -0.231643,-1.292868 -0.433402,-2.791679 -0.201758,-1.498809 -0.406815,-2.765091 -0.455682,-2.813959 -0.04887,-0.04887 -1.316632,-0.255407 -2.817255,-0.458978 -1.500623,-0.20357 -2.758103,-0.399826 -2.794401,-0.436124 -0.0363,-0.0363 0.703813,-1.066086 1.644689,-2.28842 0.940876,-1.222334 1.682256,-2.299598 1.647511,-2.393921 -0.03475,-0.09432 -0.809481,-1.150711 -1.721634,-2.347529 -0.912153,-1.196819 -1.633216,-2.195388 -1.602362,-2.219042 0.03085,-0.02365 1.309243,-0.210206 2.840865,-0.414561 1.531621,-0.204354 2.803281,-0.390068 2.82591,-0.412697 0.02263,-0.02263 0.211983,-1.273207 0.420785,-2.779061 0.208801,-1.505854 0.418086,-2.776364 0.465077,-2.823354 0.04699,-0.04699 1.071076,0.671017 2.275744,1.595573 1.204668,0.924556 2.233927,1.695585 2.287243,1.713397 0.05332,0.01781 1.095766,-0.73846 2.316558,-1.680607 1.22079,-0.942146 2.257884,-1.674728 2.304653,-1.627959 0.04677,0.04677 0.255872,1.317096 0.464673,2.82295 0.208802,1.505854 0.397773,2.756049 0.419936,2.778212 0.02216,0.02216 1.309129,0.209652 2.859924,0.416642 1.550796,0.20699 2.819294,0.409496 2.818884,0.450014 -4.08e-4,0.04052 -0.796328,1.108567 -1.768707,2.373444 -0.97238,1.264876 -1.767963,2.313325 -1.767963,2.329886 0,0.01656 0.791496,1.063294 1.758881,2.326074 l 1.758881,2.295964 -0.500377,0.0871 c -0.275209,0.04791 -1.579877,0.228694 -2.899262,0.401752 l -2.398884,0.314653 -0.36811,2.795526 c -0.202461,1.53754 -0.380381,2.848387 -0.395376,2.912994 -0.01499,0.06461 -1.019617,-0.685392 -2.232494,-1.666665 z"
     id="path1565" /><path
     style="fill:#6db0f3;fill-opacity:1;stroke:#889acc;stroke-width:0.136054"
     d="m 26.734694,41.836735 -2.514249,-2.517007 3.604063,0.0018 3.604063,0.0018 1.660836,2.20906 1.660834,2.20906 -2.341107,0.299879 c -1.287609,0.164934 -2.525401,0.302689 -2.750649,0.306123 -0.353154,0.0054 -0.75572,-0.340315 -2.923791,-2.510764 z"
     id="path1567" /><path
     style="fill:#6db0f3;fill-opacity:1;stroke:#889acc;stroke-width:0.136054"
     d="m 41.534974,33.084988 -2.136319,-1.588389 -0.0054,-3.536962 -0.0055,-3.536961 2.515923,2.516553 2.515923,2.516553 -0.325581,2.560226 c -0.17907,1.408124 -0.34744,2.582083 -0.374154,2.608798 -0.02672,0.02671 -1.009916,-0.666204 -2.184892,-1.539818 z"
     id="path1569" /><path
     style="fill:#6db0f3;fill-opacity:1;stroke:#889acc;stroke-width:0.136054"
     d="m 56.1969,34.254697 c -0.04128,-0.244845 -0.197143,-1.424765 -0.34636,-2.622044 l -0.271304,-2.176871 2.516504,-2.516553 2.516505,-2.516553 -0.0072,3.536961 -0.0072,3.536962 -1.984775,1.496598 c -2.516935,1.897869 -2.325623,1.79798 -2.416075,1.2615 z"
     id="path1571" /><path
     style="fill:#6db0f3;fill-opacity:1;stroke:#889acc;stroke-width:0.136054"
     d="m 67.331396,44.030776 -2.192414,-0.289279 1.533659,-2.023462 c 0.843514,-1.112904 1.619077,-2.108879 1.723476,-2.213277 0.154426,-0.154427 0.835074,-0.183028 3.65084,-0.153409 l 3.461025,0.03641 -2.432026,2.482993 c -2.823866,2.883045 -2.159159,2.633106 -5.74456,2.160028 z"
     id="path1573" /><path
     style="fill:#6db0f3;fill-opacity:1;stroke:#889acc;stroke-width:0.136054"
     d="m 66.910073,58.467563 -1.661356,-2.20906 2.721252,-0.334208 2.721251,-0.334209 2.545093,2.545093 2.545093,2.545093 -3.604989,-0.0018 -3.604988,-0.0018 z"
     id="path1575" /><path
     style="fill:#6db0f3;fill-opacity:1;stroke:#889acc;stroke-width:0.136054"
     d="m 58.061228,73.027211 -2.480231,-2.482993 0.325283,-2.560226 c 0.178905,-1.408124 0.351891,-2.586834 0.384412,-2.619355 0.03252,-0.03252 1.014822,0.660396 2.182889,1.539817 l 2.123759,1.598947 0.0075,3.503402 c 0.0041,1.92687 -0.0085,3.503401 -0.02794,3.503401 -0.01947,0 -1.151497,-1.117347 -2.515624,-2.482993 z"
     id="path1577" /><path
     style="fill:#6db0f3;fill-opacity:1;stroke:#889acc;stroke-width:0.136054"
     d="m 39.393205,72.040363 0.0054,-3.536962 2.136319,-1.588389 c 1.174976,-0.873614 2.158177,-1.566532 2.184892,-1.539818 0.02671,0.02672 0.195084,1.200674 0.374154,2.608798 l 0.325581,2.560226 -2.515923,2.516553 -2.515923,2.516553 z"
     id="path1579" /><path
     style="fill:#6db0f3;fill-opacity:1;stroke:#889acc;stroke-width:0.136054"
     d="m 25.484048,59.628181 c 0.527591,-0.581214 1.634651,-1.726773 2.460134,-2.545687 l 1.500879,-1.488934 2.71566,0.322887 2.715661,0.322887 -1.661497,2.186456 -1.661496,2.186455 -3.514298,0.03634 -3.514298,0.03634 z"
     id="path1581" /><path
     style="fill:#64749c;fill-opacity:1;stroke:#889acc;stroke-width:0.136054"
     d="M 48.027211,38.077482 C 46.979592,37.254238 46.0206,36.50613 45.896118,36.415019 c -0.20984,-0.153585 -0.19774,-0.383424 0.166054,-3.154283 0.215812,-1.643745 0.394191,-3.034546 0.396399,-3.090668 0.0022,-0.05612 1.590469,-0.102041 3.52947,-0.102041 h 3.525456 l 0.07915,0.510204 c 0.04353,0.280613 0.201481,1.520408 0.350996,2.755102 0.149515,1.234694 0.301372,2.41302 0.33746,2.618501 0.06083,0.346336 -0.09269,0.492799 -2.103507,2.006803 -1.193018,0.89826 -2.186336,1.629252 -2.207373,1.624426 -0.02104,-0.0048 -0.895394,-0.682336 -1.943012,-1.505581 z"
     id="path1583" /><path
     style="fill:#64749c;fill-opacity:1;stroke:#889acc;stroke-width:0.136054"
     d="m 59.908087,43.011261 c -1.322661,-0.19701 -2.438296,-0.392203 -2.47919,-0.433762 -0.07645,-0.07769 -0.78881,-5.327473 -0.72805,-5.365401 0.01862,-0.01162 1.076982,-0.816232 2.351925,-1.788026 1.274943,-0.971793 2.399127,-1.816988 2.498187,-1.87821 0.126429,-0.07814 0.905474,0.613211 2.613895,2.319654 1.338582,1.337033 2.433785,2.479563 2.433785,2.538957 0,0.05939 -0.836501,1.20799 -1.858891,2.552438 -1.413621,1.858916 -1.926912,2.440629 -2.142857,2.4285 -0.156181,-0.0088 -1.366143,-0.177139 -2.688804,-0.37415 z"
     id="path1585" /><path
     style="fill:#64749c;fill-opacity:1;stroke:#889acc;stroke-width:0.136054"
     d="m 62.108844,52.222633 c -0.860545,-1.126066 -1.584706,-2.101142 -1.609247,-2.166835 -0.03424,-0.09165 1.349687,-1.967838 3.188538,-4.322714 0.02114,-0.02708 1.449962,0.123723 3.175153,0.335109 L 70,46.452531 V 50 53.547469 l -3.095238,0.374152 c -1.702381,0.205783 -3.12585,0.368359 -3.163265,0.361279 -0.03742,-0.0071 -0.772109,-0.9342 -1.632653,-2.060267 z"
     id="path1587" /><path
     style="fill:#64749c;fill-opacity:1;stroke:#889acc;stroke-width:0.136054"
     d="m 59.035138,64.630666 -2.46146,-1.891587 0.324294,-2.560016 c 0.178362,-1.408008 0.345453,-2.623593 0.371314,-2.701298 0.04463,-0.1341 5.334372,-0.843629 5.437582,-0.729358 0.02698,0.02987 0.886621,1.152164 1.910311,2.493981 l 1.861254,2.439667 -2.421473,2.424279 c -1.331809,1.333353 -2.452722,2.422397 -2.490917,2.420098 -0.03819,-0.0023 -1.177102,-0.855394 -2.530905,-1.895766 z"
     id="path1589" /><path
     style="fill:#64749c;fill-opacity:1;stroke:#889acc;stroke-width:0.136054"
     d="m 46.407352,69.421769 c -0.04353,-0.280613 -0.201481,-1.520408 -0.350996,-2.755102 -0.149515,-1.234694 -0.301222,-2.412271 -0.337128,-2.616837 -0.06011,-0.342445 0.101552,-0.501582 2.038585,-2.006803 1.157128,-0.899175 2.167526,-1.634864 2.245329,-1.634864 0.136726,0 4.160156,3.059765 4.264193,3.242862 0.02827,0.04976 -0.121797,1.43741 -0.33349,3.083669 -0.211692,1.646258 -0.387491,3.039116 -0.390663,3.095238 -0.0032,0.05612 -1.592222,0.102041 -3.531223,0.102041 h -3.525456 z"
     id="path1591" /><path
     style="fill:#64749c;fill-opacity:1;stroke:#889acc;stroke-width:0.136054"
     d="m 35.797489,63.960772 c -1.738264,-1.740279 -2.398892,-2.486576 -2.318401,-2.619048 0.360775,-0.593758 3.78673,-4.743073 3.916154,-4.743014 0.299743,1.36e-4 5.146885,0.65997 5.19396,0.707046 0.115051,0.11505 0.734791,5.341486 0.642696,5.420024 -0.62326,0.53151 -4.804798,3.668778 -4.889965,3.668778 -0.06241,0 -1.207411,-1.095204 -2.544444,-2.433786 z"
     id="path1593" /><path
     style="fill:#64749c;fill-opacity:1;stroke:#889acc;stroke-width:0.136054"
     d="M 32.823129,53.896986 30,53.54183 v -3.540449 -3.540448 l 2.619048,-0.315173 c 1.440476,-0.173346 2.86955,-0.348334 3.175721,-0.388862 l 0.556674,-0.07369 1.562762,2.022341 c 0.85952,1.112288 1.604012,2.093183 1.654428,2.179768 0.05192,0.08918 -0.619592,1.077195 -1.54888,2.278912 -1.42736,1.845802 -1.688167,2.119303 -2.00702,2.104699 -0.201561,-0.0092 -1.636883,-0.176606 -3.189604,-0.371943 z"
     id="path1595" /><path
     style="fill:#64749c;fill-opacity:1;stroke:#889acc;stroke-width:0.136054"
     d="m 35.401052,40.78734 -1.877859,-2.471023 2.42066,-2.423464 c 1.331362,-1.332906 2.451909,-2.423232 2.490104,-2.422948 0.03819,2.85e-4 1.177335,0.852779 2.531423,1.894432 l 2.46198,1.893915 -0.314207,2.425296 c -0.172814,1.333912 -0.331725,2.546916 -0.353136,2.695564 -0.03518,0.244264 -0.268026,0.299301 -2.419881,0.571989 -1.309524,0.165945 -2.534014,0.302966 -2.721088,0.304491 -0.282557,0.0023 -0.658025,-0.415529 -2.217996,-2.468252 z"
     id="path1597" /><path
     style="fill:#88a7bf;fill-opacity:1;stroke:#889acc;stroke-width:0.136054"
     d="m 65.61103,34.318541 -2.821914,-2.824317 v -4.694148 -4.694149 l 2.369748,-2.366846 2.369749,-2.366846 6.637904,0.843077 c 3.650848,0.463693 6.648109,0.85596 6.66058,0.871706 0.01248,0.01575 0.397421,2.997777 0.855446,6.626736 l 0.83277,6.598107 -2.412702,2.415498 -2.412701,2.415498 h -4.628483 -4.628483 z"
     id="path1599" /><path
     style="fill:#88a7bf;fill-opacity:1;stroke:#889acc;stroke-width:0.136054"
     d="m 75.407143,57.311924 -3.366327,-3.368347 v -3.945598 -3.945598 l 3.368348,-3.366327 3.368348,-3.366326 3.332332,0.0056 3.332333,0.0056 4.013605,5.253355 c 2.207483,2.889345 4.013606,5.326572 4.013606,5.416059 0,0.08949 -1.806123,2.526259 -4.013606,5.415051 l -4.013605,5.252347 -3.334354,0.0063 -3.334354,0.0063 -3.366326,-3.368348 z"
     id="path1601" /><path
     style="fill:#88a7bf;fill-opacity:1;stroke:#889acc;stroke-width:0.136054"
     d="M 65.270651,80.100623 62.92517,77.752265 v -4.693674 -4.693674 l 2.824316,-2.821914 2.824317,-2.821915 h 4.62608 4.626082 l 2.40308,2.414966 2.40308,2.414966 -0.84028,6.595507 -0.840282,6.595507 -0.339726,0.103816 c -0.376664,0.115104 -12.128194,1.60313 -12.660546,1.60313 -0.252639,0 -0.912644,-0.578194 -2.68064,-2.348357 z"
     id="path1603" /><path
     style="fill:#88a7bf;fill-opacity:1;stroke:#889acc;stroke-width:0.136054"
     d="m 44.706249,89.550558 -5.30196,-4.040354 -0.0083,-3.402402 -0.0083,-3.402402 3.300341,-3.298278 3.30034,-3.298278 h 4.013626 4.013626 l 3.298278,3.30034 3.298279,3.30034 -0.0074,3.40034 -0.0074,3.40034 -5.294596,4.040354 -5.294595,4.040354 z"
     id="path1605" /><path
     style="fill:#88a7bf;fill-opacity:1;stroke:#889acc;stroke-width:0.136054"
     d="m 25.446678,81.746536 c -3.439702,-0.444306 -6.263554,-0.820058 -6.275227,-0.835005 -0.01167,-0.01495 -0.39597,-2.996326 -0.853993,-6.625285 l -0.832771,-6.598108 2.412702,-2.415497 2.412701,-2.415498 h 4.626081 4.626081 l 2.824317,2.821914 2.824315,2.821914 v 4.696551 4.69655 l -2.348356,2.345482 c -2.037056,2.034559 -2.402276,2.343447 -2.755102,2.330145 -0.22371,-0.0084 -3.221047,-0.378857 -6.660748,-0.823163 z"
     id="path1607" /><path
     style="fill:#88a7bf;fill-opacity:1;stroke:#889acc;stroke-width:0.136054"
     d="M 10.544218,55.415355 C 8.3367347,52.526563 6.5306122,50.089654 6.5306122,50 c 0,-0.08965 1.8061225,-2.526563 4.0136058,-5.415355 l 4.013605,-5.252347 3.334354,-0.0063 3.334354,-0.0063 3.366326,3.368348 3.366327,3.368347 v 3.945598 3.945598 l -3.368349,3.366327 -3.368347,3.366326 -3.332332,-0.0063 -3.332333,-0.0063 z"
     id="path1609" /><path
     style="fill:#88a7bf;fill-opacity:1;stroke:#889acc;stroke-width:0.136054"
     d="m 19.770501,34.863946 -2.403535,-2.414966 0.841523,-6.58541 c 0.770686,-6.031074 0.864327,-6.594292 1.112435,-6.69094 0.149002,-0.05804 3.133835,-0.460621 6.632961,-0.894623 l 6.36205,-0.789093 2.379447,2.376534 2.379448,2.376534 v 4.69655 4.696551 l -2.824316,2.821914 -2.824317,2.821915 h -4.62608 -4.626081 z"
     id="path1611" /><path
     style="fill:#88a7bf;fill-opacity:1;stroke:#889acc;stroke-width:0.136054"
     d="m 42.686033,24.590816 -3.298278,-3.30034 0.0083,-3.40034 0.0083,-3.40034 5.30196,-4.040354 5.301959,-4.0403541 5.294595,4.0403541 5.294596,4.040354 0.0074,3.402402 0.0074,3.402402 -3.30034,3.298278 -3.30034,3.298278 h -4.013627 -4.013626 z"
     id="path1613" /></svg>
