<?xml version="1.0" encoding="UTF-8" standalone="no"?>
<svg
   xmlns:dc="http://purl.org/dc/elements/1.1/"
   xmlns:cc="http://creativecommons.org/ns#"
   xmlns:rdf="http://www.w3.org/1999/02/22-rdf-syntax-ns#"
   xmlns:svg="http://www.w3.org/2000/svg"
   xmlns="http://www.w3.org/2000/svg"
   xmlns:sodipodi="http://sodipodi.sourceforge.net/DTD/sodipodi-0.dtd"
   xmlns:inkscape="http://www.inkscape.org/namespaces/inkscape"
   height="24"
   viewBox="0 0 24 24"
   width="24"
   version="1.1"
   id="svg837"
   sodipodi:docname="play_push_icon.svg"
   inkscape:version="1.0.2 (e86c8708, 2021-01-15)">
  <metadata
     id="metadata843">
    <rdf:RDF>
      <cc:Work
         rdf:about="">
        <dc:format>image/svg+xml</dc:format>
        <dc:type
           rdf:resource="http://purl.org/dc/dcmitype/StillImage" />
      </cc:Work>
    </rdf:RDF>
  </metadata>
  <defs
     id="defs841" />
  <sodipodi:namedview
     pagecolor="#ffffff"
     bordercolor="#666666"
     borderopacity="1"
     objecttolerance="10"
     gridtolerance="10"
     guidetolerance="10"
     inkscape:pageopacity="0"
     inkscape:pageshadow="2"
     inkscape:window-width="1307"
     inkscape:window-height="856"
     id="namedview839"
     showgrid="false"
     inkscape:zoom="29.666667"
     inkscape:cx="12"
     inkscape:cy="12"
     inkscape:window-x="0"
     inkscape:window-y="25"
     inkscape:window-maximized="0"
     inkscape:current-layer="svg837" />
  <circle
     cx="12"
     cy="12"
     fill="none"
     r="10"
     stroke="#000"
     stroke-linecap="round"
     stroke-linejoin="round"
     stroke-width="2"
     id="circle833" />
  <polygon
     fill="none"
     points="10 8 16 12 10 16 10 8"
     stroke="#000"
     stroke-linecap="round"
     stroke-linejoin="round"
     stroke-width="2"
     id="polygon835" />
  <path
     style="fill:#121629;stroke:#889acc;stroke-width:0.0337079;fill-opacity:1"
     d="M 9.6413654,16.913374 C 9.4256047,16.837223 9.1618932,16.562867 9.0809923,16.330382 9.019293,16.153077 9.0168539,15.988398 9.0168539,12 c 0,-4.7428646 -0.024409,-4.36201 0.3003796,-4.6867987 0.2584183,-0.2584184 0.6141446,-0.3490274 0.9759055,-0.2485783 0.07428,0.020625 1.472952,0.9313866 3.255899,2.1201155 3.353786,2.2360415 3.28345,2.1832825 3.390282,2.5430225 0.06233,0.209875 0.06233,0.334603 0,0.544478 -0.106832,0.35974 -0.0365,0.306981 -3.390282,2.543023 -1.782947,1.188728 -3.181621,2.09949 -3.255899,2.120115 -0.182482,0.05067 -0.4737294,0.04084 -0.6517736,-0.022 z m 2.9830236,-3.840728 c 0.880991,-0.587292 1.590094,-1.078436 1.575785,-1.091431 -0.04749,-0.04313 -3.176842,-2.1216644 -3.194285,-2.1216644 -0.0094,0 -0.01713,0.9632024 -0.01713,2.1404494 0,1.177247 0.0076,2.140449 0.01691,2.140449 0.0093,0 0.737722,-0.480511 1.618713,-1.067803 z"
     id="path845" />
  <path
     style="fill:#121629;fill-opacity:1;stroke:#889acc;stroke-width:0.0337079"
     d="M 10.938202,22.933884 C 6.698611,22.529796 3.0135164,19.619051 1.6191326,15.573034 1.2095329,14.384518 1.0305786,13.298109 1.0305786,12 c 0,-0.816354 0.035305,-1.225323 0.1702276,-1.97191 C 1.7582089,6.9437363 3.6317112,4.2312587 6.3331871,2.5973717 7.724849,1.755677 9.3782835,1.2124792 11.005618,1.0623525 c 0.476339,-0.043944 1.512425,-0.043944 1.988764,0 3.768878,0.3476909 7.131377,2.6434789 8.828558,6.0278084 0.452988,0.903298 0.794039,1.9296529 0.976254,2.9379291 0.134923,0.746587 0.170227,1.155556 0.170227,1.97191 0,0.816354 -0.0353,1.225323 -0.170227,1.97191 -0.487397,2.696983 -1.968975,5.101051 -4.175598,6.775494 -1.6084,1.220496 -3.481838,1.962033 -5.489618,2.172879 -0.530407,0.0557 -1.679402,0.06282 -2.195776,0.0136 z m 1.837079,-1.952131 c 1.151042,-0.103544 2.156578,-0.384631 3.185393,-0.890441 0.926135,-0.455328 1.576691,-0.910715 2.288473,-1.601919 1.529708,-1.485485 2.440549,-3.306771 2.699402,-5.397633 0.06742,-0.544583 0.06742,-1.638937 0,-2.18352 C 20.748441,9.2918842 20.161151,7.846594 19.166832,6.5235246 18.847758,6.0989562 18.10168,5.3343762 17.662921,4.9823184 16.374801,3.9487385 14.924562,3.3211194 13.22377,3.0611892 c -0.509633,-0.077887 -1.937907,-0.077887 -2.44754,0 C 9.0969583,3.3178304 7.5905252,3.971815 6.3202247,4.9956651 5.6428045,5.5416593 4.9019083,6.3677339 4.4066713,7.1292135 3.6911651,8.2293802 3.1803126,9.6762148 3.0354728,11.012717 c -0.045892,0.42347 -0.045617,1.554887 4.803e-4,1.974566 0.1774723,1.615733 0.7919303,3.152913 1.7915798,4.481966 0.3182646,0.42314 1.0644361,1.190668 1.4926918,1.535417 0.9856551,0.79346 2.2415724,1.426944 3.4206331,1.725366 0.9874482,0.249925 2.0627662,0.339128 3.0344232,0.251721 z"
     id="path847" />
</svg>
