<?xml version="1.0" encoding="UTF-8" standalone="no"?>
<svg
   xmlns:dc="http://purl.org/dc/elements/1.1/"
   xmlns:cc="http://creativecommons.org/ns#"
   xmlns:rdf="http://www.w3.org/1999/02/22-rdf-syntax-ns#"
   xmlns:svg="http://www.w3.org/2000/svg"
   xmlns="http://www.w3.org/2000/svg"
   xmlns:sodipodi="http://sodipodi.sourceforge.net/DTD/sodipodi-0.dtd"
   xmlns:inkscape="http://www.inkscape.org/namespaces/inkscape"
   id="Layer_1"
   style="enable-background:new 0 0 512 512;"
   version="1.1"
   viewBox="0 0 512 512"
   xml:space="preserve"
   sodipodi:docname="radio_icon.svg"
   inkscape:version="1.0.2 (e86c8708, 2021-01-15)"><metadata
     id="metadata892"><rdf:RDF><cc:Work
         rdf:about=""><dc:format>image/svg+xml</dc:format><dc:type
           rdf:resource="http://purl.org/dc/dcmitype/StillImage" /><dc:title></dc:title></cc:Work></rdf:RDF></metadata><defs
     id="defs890" /><sodipodi:namedview
     pagecolor="#ffffff"
     bordercolor="#666666"
     borderopacity="1"
     objecttolerance="10"
     gridtolerance="10"
     guidetolerance="10"
     inkscape:pageopacity="0"
     inkscape:pageshadow="2"
     inkscape:window-width="1446"
     inkscape:window-height="902"
     id="namedview888"
     showgrid="false"
     inkscape:zoom="1.390625"
     inkscape:cx="256"
     inkscape:cy="256"
     inkscape:window-x="439"
     inkscape:window-y="1153"
     inkscape:window-maximized="0"
     inkscape:current-layer="Layer_1" /><style
     type="text/css"
     id="style833">
	.st0{fill:none;stroke:#000000;stroke-width:2;stroke-linecap:round;stroke-linejoin:round;stroke-miterlimit:10;}
	.st1{stroke:#000000;stroke-width:2;stroke-linecap:round;stroke-linejoin:round;stroke-miterlimit:10;}
	.st2{fill:#FFFFFF;}
</style><g
     id="g885"><g
       id="g837"><path
         d="M443.36,511H68.64c-17.55,0-31.84-14.28-31.84-31.84V167.71c0-17.55,14.28-31.83,31.84-31.83h374.73    c17.55,0,31.84,14.28,31.84,31.83v311.45C475.2,496.72,460.92,511,443.36,511z M68.64,151.33c-9.03,0-16.38,7.35-16.38,16.38    v311.45c0,9.03,7.35,16.38,16.38,16.38h374.73c9.03,0,16.38-7.35,16.38-16.38V167.71c0-9.03-7.35-16.38-16.38-16.38H68.64z"
         id="path835" /></g><g
       id="g841"><path
         d="M166.92,476.03c-53.38,0-96.82-43.43-96.82-96.81s43.44-96.81,96.82-96.81s96.81,43.43,96.81,96.81    S220.3,476.03,166.92,476.03z M166.92,297.86c-44.86,0-81.36,36.5-81.36,81.36c0,44.86,36.5,81.36,81.36,81.36    s81.36-36.5,81.36-81.36C248.27,334.36,211.78,297.86,166.92,297.86z"
         id="path839" /></g><g
       id="g845"><path
         d="M166.49,428.57c-26.52,0-48.11-21.58-48.11-48.11c0-26.52,21.58-48.11,48.11-48.11s48.11,21.58,48.11,48.11    C214.6,406.99,193.02,428.57,166.49,428.57z M166.49,347.81c-18.01,0-32.65,14.65-32.65,32.65c0,18.01,14.65,32.65,32.65,32.65    s32.65-14.65,32.65-32.65C199.15,362.46,184.5,347.81,166.49,347.81z"
         id="path843" /></g><g
       id="g849"><path
         d="M435.83,143h-52.45c-4.27,0-7.73-3.46-7.73-7.73V76.16c0-4.27,3.46-7.73,7.73-7.73h52.45c4.27,0,7.73,3.46,7.73,7.73    v59.11C443.56,139.54,440.1,143,435.83,143z M391.11,127.55h37V83.89h-37V127.55z"
         id="path847" /></g><g
       id="g853"><path
         d="M409.61,83.89c-4.27,0-7.73-3.46-7.73-7.73V8.73c0-4.27,3.46-7.73,7.73-7.73c4.27,0,7.73,3.46,7.73,7.73v67.44    C417.34,80.43,413.88,83.89,409.61,83.89z"
         id="path851" /></g><g
       id="g857"><path
         d="M422.51,264.56H89.49c-4.27,0-7.73-3.46-7.73-7.73v-71.6c0-4.27,3.46-7.73,7.73-7.73h333.03c4.27,0,7.73,3.46,7.73,7.73    v71.6C430.24,261.1,426.78,264.56,422.51,264.56z M97.21,249.1h317.57v-56.14H97.21V249.1z"
         id="path855" /></g><g
       id="g879"><g
         id="g861"><path
           d="M134.58,260.4c-4.27,0-7.73-3.46-7.73-7.73v-31.64c0-4.27,3.46-7.73,7.73-7.73c4.27,0,7.73,3.46,7.73,7.73v31.64     C142.31,256.94,138.85,260.4,134.58,260.4z"
           id="path859" /></g><g
         id="g865"><path
           d="M190.09,260.4c-4.27,0-7.73-3.46-7.73-7.73v-31.64c0-4.27,3.46-7.73,7.73-7.73s7.73,3.46,7.73,7.73v31.64     C197.82,256.94,194.36,260.4,190.09,260.4z"
           id="path863" /></g><g
         id="g869"><path
           d="M314.97,260.4c-4.27,0-7.73-3.46-7.73-7.73v-31.64c0-4.27,3.46-7.73,7.73-7.73c4.27,0,7.73,3.46,7.73,7.73v31.64     C322.7,256.94,319.24,260.4,314.97,260.4z"
           id="path867" /></g><g
         id="g873"><path
           d="M252.53,260.4c-4.27,0-7.73-3.46-7.73-7.73v-31.64c0-4.27,3.46-7.73,7.73-7.73s7.73,3.46,7.73,7.73v31.64     C260.26,256.94,256.8,260.4,252.53,260.4z"
           id="path871" /></g><g
         id="g877"><path
           d="M377.42,260.4c-4.27,0-7.73-3.46-7.73-7.73v-31.64c0-4.27,3.46-7.73,7.73-7.73c4.27,0,7.73,3.46,7.73,7.73v31.64     C385.15,256.94,381.69,260.4,377.42,260.4z"
           id="path875" /></g></g><g
       id="g883"><path
         d="M402.67,359.88c-15.73,0-28.54-12.8-28.54-28.54c0-15.74,12.81-28.54,28.54-28.54c15.74,0,28.55,12.81,28.55,28.54    C431.21,347.08,418.41,359.88,402.67,359.88z M402.67,318.26c-7.21,0-13.09,5.87-13.09,13.09c0,7.21,5.87,13.09,13.09,13.09    c7.22,0,13.09-5.87,13.09-13.09C415.76,324.13,409.89,318.26,402.67,318.26z"
         id="path881" /></g></g><path
     style="fill:#b2c3fb;stroke:#000000;stroke-width:0.719101;fill-opacity:1"
     d="m 394.2498,358.14089 c -7.13166,-2.22787 -13.63676,-8.04839 -17.28104,-15.4624 -1.73509,-3.52993 -1.95725,-4.79975 -1.95738,-11.18799 -1.3e-4,-6.68496 0.1698,-7.55135 2.34967,-11.97928 3.00611,-6.10628 9.25819,-12.0493 15.06352,-14.31887 5.81129,-2.27189 14.73283,-2.27189 20.54412,0 5.74257,2.24504 12.06024,8.21835 14.99314,14.1759 7.31147,14.85171 -1.06651,34.05385 -16.91077,38.75909 -4.37118,1.2981 -12.66786,1.30479 -16.80126,0.0136 z m 13.86984,-14.68357 c 5.93531,-2.69604 9.07161,-8.96723 7.53551,-15.06763 -1.6564,-6.57815 -6.24745,-10.18744 -12.95852,-10.18744 -12.0226,0 -17.73516,13.31219 -9.58417,22.33435 3.86909,4.28263 9.56744,5.39165 15.00718,2.92072 z"
     id="path894" /><path
     style="fill:#5d84d6;fill-opacity:1;stroke:#000000;stroke-width:0.719101"
     d="m 156.76404,475.24471 c -10.60395,-1.30375 -23.05578,-4.97865 -32,-9.44413 C 92.939245,449.91177 72.531622,419.01315 70.737173,384 68.182116,334.1459 104.43453,290.72739 154.5466,283.62378 c 9.14749,-1.29669 25.27464,-0.4624 34.26858,1.7728 12.59081,3.1291 21.08031,6.85465 31.94886,14.02049 7.72898,5.09586 20.72563,18.01573 25.76887,25.61664 24.22163,36.50555 21.97402,82.28915 -5.67898,115.68049 -14.03595,16.94857 -33.5943,28.6041 -55.68539,33.18495 -5.55711,1.15233 -23.18448,1.98737 -28.4045,1.34556 z m 31.26402,-17.0785 c 3.94576,-1.04299 10.43916,-3.4911 14.42976,-5.44023 46.67023,-22.79519 60.67473,-81.955 29.19091,-123.3124 -10.82516,-14.22002 -26.80698,-24.80845 -44.1152,-29.22763 -19.52909,-4.98622 -38.77016,-2.91779 -57.01668,6.12935 -9.49771,4.70924 -15.45774,9.10649 -22.89732,16.89342 -11.352546,11.88257 -18.744096,26.7942 -21.369481,43.11053 -1.192773,7.41288 -0.859614,21.83203 0.674361,29.18637 6.707128,32.156 31.06888,56.65293 63.36772,63.71934 9.38005,2.05219 27.93652,1.53156 37.73593,-1.05875 z"
     id="path896" /><path
     style="fill:#5d84d6;fill-opacity:1;stroke:#000000;stroke-width:0.719101"
     d="m 158.25164,427.48988 c -17.78433,-3.75542 -31.74807,-16.00798 -37.20642,-32.64698 -1.62682,-4.95916 -1.90802,-7.07187 -1.92172,-14.43841 -0.0141,-7.57491 0.22616,-9.33123 1.96632,-14.37512 5.10787,-14.80518 15.86912,-25.66226 30.55584,-30.82793 5.58608,-1.96476 7.04777,-2.17875 14.82625,-2.17052 7.53548,0.008 9.3575,0.26038 14.37512,1.99149 15.02494,5.18368 26.16162,16.34519 30.98084,31.04992 1.8122,5.5295 2.10406,7.52142 2.10003,14.33216 -0.008,13.56826 -4.28051,23.82319 -13.95666,33.49934 -9.07408,9.07408 -19.06524,13.48205 -31.70158,13.98633 -3.7573,0.14994 -8.26541,-0.0302 -10.01802,-0.40028 z m 22.2898,-17.33344 c 7.17292,-3.41315 12.26071,-8.49787 15.69186,-15.68241 2.53823,-5.31483 2.59816,-5.63937 2.59816,-14.06954 0,-8.21722 -0.10991,-8.86125 -2.30217,-13.48927 -2.59054,-5.46885 -8.34726,-11.98482 -12.9944,-14.70822 -10.18422,-5.96835 -23.94174,-5.96835 -34.12596,0 -4.64714,2.7234 -10.40386,9.23937 -12.9944,14.70822 -2.19397,4.63164 -2.30217,5.26738 -2.30217,13.52657 0,8.55214 0.0353,8.7379 2.67391,14.0768 4.25985,8.61921 11.1506,14.59383 20.33733,17.63344 1.83001,0.6055 5.62316,0.88649 10.42696,0.77242 6.99576,-0.16612 7.95031,-0.36951 12.99088,-2.76801 z"
     id="path898" /><path
     style="fill:#5376b5;fill-opacity:1;stroke:#000000;stroke-width:0.719101"
     d="m 85.875279,262.91382 c -1.218035,-0.74275 -2.601859,-2.28537 -3.075163,-3.42803 -0.639572,-1.54406 -0.809515,-11.73736 -0.661796,-39.69498 l 0.198759,-37.61743 2.348423,-2.09792 2.348424,-2.09793 H 256 424.96608 l 2.34842,2.09793 2.34842,2.09794 0.19834,37.81197 c 0.17276,32.93293 0.0552,38.08881 -0.91104,39.95732 -2.41714,4.67422 11.47172,4.32724 -173.09428,4.32428 -162.864845,-0.003 -167.830751,-0.0421 -169.980661,-1.35315 z M 127.2809,234.39126 c 0,-15.6372 0.43472,-18.04797 3.55567,-19.71826 2.73976,-1.46627 6.48028,-0.88251 8.72436,1.36157 l 2.10199,2.10199 v 15.51599 15.51599 h 20.49438 20.49439 v -14.94112 c 0,-15.69855 0.18649,-16.71272 3.5625,-19.37309 1.59578,-1.25751 5.90179,-1.12005 7.85907,0.25089 3.18589,2.23148 3.67955,4.91711 3.67955,20.01775 v 14.04557 h 23.73034 23.73033 v -14.78885 c 0,-9.47543 0.28861,-15.35318 0.80327,-16.35955 2.32199,-4.54042 7.94849,-5.51385 11.47677,-1.98557 l 2.10199,2.10199 v 15.51599 15.51599 h 24.08988 24.08989 v -15.51599 -15.51599 l 2.10199,-2.10199 c 2.95996,-2.95996 7.21809,-2.95996 10.17804,0 l 2.10199,2.10199 v 15.51599 15.51599 h 24.08989 24.08989 v -15.51599 -15.51599 l 2.10199,-2.10199 c 2.24408,-2.24408 5.9846,-2.82784 8.72436,-1.36157 3.12095,1.67029 3.55567,4.08106 3.55567,19.71826 v 14.77728 h 15.10112 15.10113 v -28.4045 -28.40449 H 256 97.078652 v 28.40449 28.4045 h 15.101128 15.10112 z"
     id="path900" /><path
     style="fill:#64749c;fill-opacity:1;stroke:#000000;stroke-width:0.719101"
     d="m 63.348311,510.10793 c -9.527573,-1.58144 -18.494413,-8.55527 -22.993947,-17.88321 l -2.601555,-5.39326 V 323.23596 159.64045 l 2.336259,-4.77525 c 2.89425,-5.91576 7.456305,-11.04855 12.506136,-14.07071 8.094478,-4.84427 -3.763126,-4.52483 167.960376,-4.52483 H 376.08989 V 105.00011 73.730553 l 2.09654,-2.348421 2.09653,-2.348424 10.84729,-0.231583 10.84728,-0.231583 V 38.349004 c 0,-25.76722 0.16377,-30.5666716 1.11119,-32.5631927 1.72062,-3.6259447 5.68435,-5.19215803 9.30821,-3.6780127 4.67866,1.9548697 4.68172,1.9783545 4.68172,35.9170424 v 30.545701 l 10.84728,0.231583 10.84729,0.231583 2.09653,2.348424 2.09654,2.348421 v 31.110397 31.1104 l 5.02992,0.79201 c 10.28876,1.62008 19.0801,8.2209 23.79148,17.86338 l 2.4595,5.03371 v 163.59551 163.5955 l -2.60156,5.39326 c -4.68827,9.71921 -13.30602,16.24992 -23.65958,17.92969 -5.88141,0.9542 -378.880523,0.90913 -384.637739,-0.0465 z M 450.1573,494.3216 c 4.02554,-1.82501 6.17085,-3.79423 8.15987,-7.49014 l 1.548,-2.8764 0.21923,-158.20225 c 0.15643,-112.88334 -0.007,-159.25689 -0.56993,-161.88385 -0.94008,-4.38565 -4.52751,-8.92868 -8.89511,-11.26455 l -2.97891,-1.59317 H 256 64.359551 l -2.978916,1.59317 c -3.995611,2.13693 -7.840509,6.77643 -8.811482,10.63251 -0.567585,2.25409 -0.784875,48.10518 -0.762309,160.85679 0.02599,129.86824 0.201513,158.18027 0.994417,160.40213 1.535415,4.30252 4.618853,7.74433 8.597729,9.59699 l 3.679662,1.71334 L 256,495.79741 c 190.62624,-0.009 190.92635,-0.0111 194.1573,-1.47581 z M 428.58427,105.70787 V 83.775281 h -19.05618 -19.05618 v 21.932589 21.93258 h 19.05618 19.05618 z"
     id="path902" /></svg>
