<?xml version="1.0" encoding="UTF-8" standalone="no"?>
<svg
   xmlns:dc="http://purl.org/dc/elements/1.1/"
   xmlns:cc="http://creativecommons.org/ns#"
   xmlns:rdf="http://www.w3.org/1999/02/22-rdf-syntax-ns#"
   xmlns:svg="http://www.w3.org/2000/svg"
   xmlns="http://www.w3.org/2000/svg"
   xmlns:sodipodi="http://sodipodi.sourceforge.net/DTD/sodipodi-0.dtd"
   xmlns:inkscape="http://www.inkscape.org/namespaces/inkscape"
   id="Layer_1"
   style="enable-background:new 0 0 32 32;"
   version="1.1"
   viewBox="0 0 32 32"
   xml:space="preserve"
   sodipodi:docname="radio_icon1.svg"
   inkscape:version="1.0.2 (e86c8708, 2021-01-15)"><metadata
     id="metadata1507"><rdf:RDF><cc:Work
         rdf:about=""><dc:format>image/svg+xml</dc:format><dc:type
           rdf:resource="http://purl.org/dc/dcmitype/StillImage" /><dc:title></dc:title></cc:Work></rdf:RDF></metadata><defs
     id="defs1505" /><sodipodi:namedview
     pagecolor="#ffffff"
     bordercolor="#666666"
     borderopacity="1"
     objecttolerance="10"
     gridtolerance="10"
     guidetolerance="10"
     inkscape:pageopacity="0"
     inkscape:pageshadow="2"
     inkscape:window-width="1224"
     inkscape:window-height="928"
     id="namedview1503"
     showgrid="false"
     inkscape:zoom="22.96875"
     inkscape:cx="16"
     inkscape:cy="16"
     inkscape:window-x="579"
     inkscape:window-y="1150"
     inkscape:window-maximized="0"
     inkscape:current-layer="Layer_1" /><g
     id="g1500"><path
       d="M28.4794922,12.1392164H3.5205078C2.6807251,12.1392164,2,12.8199415,2,13.6597242v15.3196402   c0,0.8397827,0.6807251,1.5205078,1.5205078,1.5205078h24.9589844C29.3192749,30.4998722,30,29.8191471,30,28.9793644V13.6597242   C30,12.8199415,29.3192749,12.1392164,28.4794922,12.1392164z M6.5,23.7546329c-0.8284302,0-1.5-0.6715698-1.5-1.5   s0.6715698-1.5,1.5-1.5s1.5,0.6715698,1.5,1.5S7.3284302,23.7546329,6.5,23.7546329z M6.5,18.8195133   c-0.8284302,0-1.5-0.6715698-1.5-1.5s0.6715698-1.499999,1.5-1.499999S8,16.4910831,8,17.3195133   S7.3284302,18.8195133,6.5,18.8195133z M23,23.7871037c-2.2091675,0-4-1.7908936-4-4c0-2.2091675,1.7908325-3.999999,4-3.999999   s4,1.7908316,4,3.999999C27,21.9962101,25.2091675,23.7871037,23,23.7871037z"
       id="path1494" /><g
       id="g1498"><path
         d="M3.5209961,14.4261427c-0.3813477,0-0.7460938-0.2197266-0.9125977-0.590332    c-0.2265625-0.5039063-0.0014648-1.0957031,0.5019531-1.3222656L27.409668,1.5877638    c0.503418-0.2250977,1.0961914-0.0019531,1.3222656,0.5019531c0.2265625,0.5039063,0.0014648,1.0957031-0.5019531,1.3222656    L3.9306641,14.3377638C3.7973633,14.3973341,3.6582031,14.4261427,3.5209961,14.4261427z"
         id="path1496" /></g></g><path
     style="fill:#889acc;stroke:#000000;stroke-width:0.0435374;fill-opacity:1"
     d="M 3.0606732,30.395119 C 2.6172252,30.241894 2.2760724,29.914382 2.1020538,29.47483 c -0.073202,-0.1849 -0.078271,-0.632968 -0.090131,-7.967347 -0.00885,-5.472837 0.0015,-7.853697 0.034979,-8.049574 0.091046,-0.532621 0.4022746,-0.941101 0.884847,-1.161337 0.1957214,-0.08932 0.3559681,-0.123128 0.6965986,-0.146947 L 4.0707483,12.118688 15.804082,6.8366633 c 9.526851,-4.2887276 11.776224,-5.2859302 11.961412,-5.3027899 0.319065,-0.029048 0.654411,0.1360148 0.848631,0.4177103 0.115746,0.1678777 0.143197,0.2538243 0.156752,0.4907801 0.01205,0.2106494 -0.0035,0.326763 -0.05821,0.4353741 C 28.51531,3.2693521 28.991376,3.0417353 18.56643,7.7288625 L 8.7883137,12.12517 18.794157,12.146939 28.8,12.168707 l 0.261224,0.121938 c 0.502112,0.234381 0.808563,0.643455 0.892862,1.19186 0.03093,0.201223 0.04176,2.797756 0.03355,8.046747 -0.01144,7.314106 -0.01648,7.760671 -0.08969,7.945578 -0.114077,0.288147 -0.341489,0.576089 -0.579493,0.733736 -0.436521,0.289139 0.634256,0.267768 -13.337239,0.266203 C 3.8806754,30.473414 3.2764879,30.46969 3.0606732,30.395119 Z M 23.989116,23.68367 c 1.29046,-0.311692 2.375307,-1.315064 2.811269,-2.600133 0.854864,-2.519852 -0.879518,-5.111701 -3.551405,-5.3072 -1.652922,-0.120942 -3.297803,0.887318 -3.938631,2.414255 -0.244532,0.582662 -0.306515,0.912539 -0.304189,1.618932 0.0022,0.67873 0.04346,0.899864 0.284378,1.525509 0.471866,1.225378 1.744613,2.221933 3.109462,2.434694 0.381305,0.05944 1.161706,0.01718 1.589116,-0.08606 z M 7.1532987,23.625165 c 0.3100173,-0.151677 0.5805889,-0.422854 0.7228665,-0.724485 0.096845,-0.205313 0.1129504,-0.29843 0.1129504,-0.653061 0,-0.363818 -0.014519,-0.443171 -0.1206191,-0.659222 -0.220446,-0.448894 -0.7031192,-0.786621 -1.2092403,-0.846105 -0.4989261,-0.05864 -1.0923526,0.203142 -1.3853432,0.611124 -0.1963399,0.273399 -0.2758481,0.520869 -0.2802993,0.872434 -0.00892,0.70474 0.3943824,1.264182 1.0705404,1.484993 0.2935541,0.09586 0.799421,0.05607 1.0891446,-0.08568 z M 7.1193717,18.704461 C 7.4334837,18.560655 7.722971,18.283448 7.8684969,17.987113 7.9745968,17.771062 7.989116,17.691709 7.989116,17.327891 7.989116,16.97326 7.973011,16.880143 7.8761656,16.67483 7.7321269,16.369467 7.4454992,16.082839 7.1401361,15.938801 6.9348232,15.841955 6.8417062,15.82585 6.4870748,15.82585 c -0.3884589,0 -0.430337,0.0091 -0.6888024,0.149209 -0.5190722,0.281434 -0.7982033,0.742263 -0.8066778,1.331776 -0.01589,1.105343 1.1267737,1.8559 2.1277771,1.397626 z"
     id="path2070" /></svg>
