<?xml version="1.0" encoding="UTF-8" standalone="no"?>
<svg
   xmlns:dc="http://purl.org/dc/elements/1.1/"
   xmlns:cc="http://creativecommons.org/ns#"
   xmlns:rdf="http://www.w3.org/1999/02/22-rdf-syntax-ns#"
   xmlns:svg="http://www.w3.org/2000/svg"
   xmlns="http://www.w3.org/2000/svg"
   xmlns:sodipodi="http://sodipodi.sourceforge.net/DTD/sodipodi-0.dtd"
   xmlns:inkscape="http://www.inkscape.org/namespaces/inkscape"
   height="48"
   viewBox="0 0 48 48"
   width="48"
   version="1.1"
   id="svg2713"
   sodipodi:docname="radio_icon2.svg"
   inkscape:version="1.0.2 (e86c8708, 2021-01-15)">
  <metadata
     id="metadata2719">
    <rdf:RDF>
      <cc:Work
         rdf:about="">
        <dc:format>image/svg+xml</dc:format>
        <dc:type
           rdf:resource="http://purl.org/dc/dcmitype/StillImage" />
        <dc:title></dc:title>
      </cc:Work>
    </rdf:RDF>
  </metadata>
  <defs
     id="defs2717" />
  <sodipodi:namedview
     pagecolor="#ffffff"
     bordercolor="#666666"
     borderopacity="1"
     objecttolerance="10"
     gridtolerance="10"
     guidetolerance="10"
     inkscape:pageopacity="0"
     inkscape:pageshadow="2"
     inkscape:window-width="1513"
     inkscape:window-height="897"
     id="namedview2715"
     showgrid="false"
     inkscape:zoom="15.3125"
     inkscape:cx="24"
     inkscape:cy="24"
     inkscape:window-x="289"
     inkscape:window-y="1173"
     inkscape:window-maximized="0"
     inkscape:current-layer="svg2713" />
  <path
     d="M6.47 12.3C5.02 12.87 4 14.33 4 16v24c0 2.21 1.79 4 4 4h32c2.21 0 4-1.79 4-4V16c0-2.21-1.79-4-4-4H16.61l16.53-6.67L31.76 2 6.47 12.3zM14 40c-3.31 0-6-2.69-6-6s2.69-6 6-6 6 2.69 6 6-2.69 6-6 6zm26-16h-4v-4h-4v4H8v-8h32v8z"
     id="path2709" />
  <path
     d="M0 0h48v48H0z"
     fill="none"
     id="path2711" />
  <path
     style="fill:#889acc;stroke:#889acc;stroke-width:0.0653061"
     d="M 7.0530612,43.848093 C 5.6483235,43.479168 4.5063522,42.326953 4.1479205,40.916891 4.0612187,40.575809 4.049099,38.980312 4.0499449,28.018932 4.0507928,17.031396 4.0630407,15.458582 4.1506595,15.085714 4.4243593,13.920967 5.1905309,12.972381 6.2767254,12.453464 7.4165134,11.908944 31.681403,2.0716027 31.739927,2.1303098 c 0.06824,0.068457 1.303367,3.0315179 1.304315,3.129052 3.91e-4,0.037139 -3.636079,1.5333654 -8.080977,3.3249478 -4.444898,1.7915824 -8.155102,3.2955304 -8.244898,3.3421054 -0.134326,0.06967 1.931928,0.08523 11.657143,0.08779 7.709244,0.002 11.9632,0.02628 12.230962,0.06973 1.258941,0.204299 2.385856,1.042787 2.946291,2.192206 0.421083,0.863616 0.396232,0.004 0.397292,13.742789 8.43e-4,10.96138 -0.01127,12.556877 -0.09797,12.897959 -0.362105,1.42451 -1.510679,2.573084 -2.935189,2.935189 -0.57443,0.146018 -33.3073368,0.142164 -33.8638298,-0.004 z M 15.510204,39.84072 c 0.960575,-0.249909 1.892123,-0.764119 2.60378,-1.437274 1.752121,-1.657326 2.356253,-4.084767 1.581678,-6.355281 -0.503026,-1.474524 -1.620764,-2.759419 -3.009948,-3.460082 -0.846402,-0.426901 -2.178419,-0.687596 -3.09895,-0.606511 -1.47866,0.130248 -2.690608,0.668831 -3.7483828,1.66576 -0.7915551,0.746023 -1.3909995,1.757525 -1.6845225,2.842464 -0.187274,0.692214 -0.2060594,2.185793 -0.036028,2.86451 0.5995094,2.393072 2.4267373,4.126235 4.8350883,4.586179 0.6481,0.123773 1.883288,0.07559 2.557285,-0.09977 z M 32,22.040816 V 20.04898 h 1.991837 1.991836 v 1.991836 1.991837 h 2.02449 2.02449 V 20.016327 16 H 24 7.9673469 v 4.016327 4.016326 H 19.983673 32 Z"
     id="path3282" />
</svg>
