<?xml version="1.0" encoding="UTF-8" standalone="no"?>
<svg
   xmlns:dc="http://purl.org/dc/elements/1.1/"
   xmlns:cc="http://creativecommons.org/ns#"
   xmlns:rdf="http://www.w3.org/1999/02/22-rdf-syntax-ns#"
   xmlns:svg="http://www.w3.org/2000/svg"
   xmlns="http://www.w3.org/2000/svg"
   xmlns:sodipodi="http://sodipodi.sourceforge.net/DTD/sodipodi-0.dtd"
   xmlns:inkscape="http://www.inkscape.org/namespaces/inkscape"
   version="1.0"
   width="225.000000pt"
   height="225.000000pt"
   viewBox="0 0 225.000000 225.000000"
   preserveAspectRatio="xMidYMid meet"
   id="svg1482"
   sodipodi:docname="search_icon2.svg"
   inkscape:version="1.0.2 (e86c8708, 2021-01-15)">
  <metadata
     id="metadata1488">
    <rdf:RDF>
      <cc:Work
         rdf:about="">
        <dc:format>image/svg+xml</dc:format>
        <dc:type
           rdf:resource="http://purl.org/dc/dcmitype/StillImage" />
        <dc:title />
      </cc:Work>
    </rdf:RDF>
  </metadata>
  <defs
     id="defs1486" />
  <sodipodi:namedview
     pagecolor="#ffffff"
     bordercolor="#666666"
     borderopacity="1"
     objecttolerance="10"
     gridtolerance="10"
     guidetolerance="10"
     inkscape:pageopacity="0"
     inkscape:pageshadow="2"
     inkscape:window-width="1348"
     inkscape:window-height="951"
     id="namedview1484"
     showgrid="false"
     inkscape:zoom="2.45"
     inkscape:cx="150"
     inkscape:cy="150"
     inkscape:window-x="576"
     inkscape:window-y="1157"
     inkscape:window-maximized="0"
     inkscape:current-layer="svg1482"
     inkscape:document-rotation="0" />
  <g
     transform="translate(0.000000,225.000000) scale(0.100000,-0.100000)"
     fill="#000000"
     stroke="none"
     id="g1480">
    <path
       d="M695 2225 c-259 -57 -478 -233 -586 -471 -114 -250 -85 -567 71 -801 46 -67 145 -168 210 -212 73 -51 207 -108 294 -127 92 -20 270 -20 364 0 40 9 107 32 149 51 l75 35 302 -296 c165 -163 328 -319 360 -346 59 -50 60 -50 118 -46 94 7 148 60 156 152 4 45 0 60 -18 88 -13 18 -114 125 -224 238 -110 113 -252 258 -315 322 l-114 117 51 103 c77 153 96 239 89 412 -3 108 -10 158 -27 211 -113 357 -428 587 -798 584 -53 0 -124 -7 -157 -14z m334 -111 c149 -36 308 -139 397 -258 193 -257 203 -582 24 -845 -27 -41 -50 -81 -50 -90 0 -8 158 -174 351 -367 282 -282 352 -357 352 -378 0 -36 -20 -56 -56 -56 -27 0 -73 42 -387 355 -196 195 -362 355 -368 355 -7 0 -45 -18 -85 -39 -118 -65 -202 -86 -342 -85 -184 0 -323 48 -457 158 -231 191 -318 499 -222 788 71 213 272 399 496 458 93 24 256 26 347 4z"
       id="path1476" />
    <path
       d="M815 2013 c-282 -31 -494 -225 -541 -496 -54 -304 139 -600 442 -677 140 -36 266 -23 403 41 66 31 99 54 161 116 88 88 131 163 161 281 90 354 -168 706 -541 735 -30 2 -68 2 -85 0z m170 -128 c85 -23 152 -62 220 -130 187 -187 189 -478 3 -671 -189 -198 -492 -202 -684 -10 -99 99 -144 207 -144 347 0 129 40 228 133 326 126 133 297 183 472 138z"
       id="path1478" />
  </g>
  <path
     style="fill:#a6bac9;stroke-width:0.408163;fill-opacity:1"
     d="m 268.73748,281.68244 c -4.3857,-3.09745 -12.63453,-10.95101 -41.01883,-39.05327 -26.94846,-26.6807 -48.12163,-47.29446 -52.76686,-51.37275 l -2.61916,-2.2995 -2.10595,0.83009 c -1.15828,0.45655 -5.99945,2.81201 -10.75815,5.23435 -16.88937,8.59724 -24.68713,10.47762 -43.34608,10.45262 -12.11567,-0.0162 -17.882001,-0.627 -26.589944,-2.8164 C 58.598759,194.88 32.204922,168.59807 23.465475,136.87066 c -2.67227,-9.70132 -3.249308,-14.24764 -3.255121,-25.64617 -0.0057,-11.0851 0.377698,-14.530261 2.649078,-23.807094 6.402739,-26.150249 25.454644,-49.19472 51.326829,-62.083009 8.59229,-4.280268 16.227894,-6.712987 25.282763,-8.055141 6.913386,-1.024733 25.391166,-1.032801 31.863526,-0.01391 18.11671,2.85196 38.18527,13.663973 52.14908,28.095503 6.85497,7.084585 11.85711,14.336269 16.71429,24.231 4.66204,9.497204 7.46477,18.40833 9.05048,28.77551 0.98623,6.447831 0.98664,19.283171 8.2e-4,25.657061 -2.19999,14.22425 -7.10546,27.00239 -15.22109,39.64906 -4.79153,7.46669 -7.49552,12.24597 -7.49552,13.2483 0,1.54339 11.44796,13.68564 40.99984,43.48639 38.17515,38.49664 48.42219,49.17624 51.30374,53.46939 1.05974,1.57887 1.20982,2.1285 1.06905,3.91495 -0.2875,3.64851 -2.76769,5.88097 -6.53357,5.88097 -1.51225,0 -2.28081,-0.33034 -4.63219,-1.99103 z M 128.30659,189.61476 c 11.18036,-2.09501 25.1757,-8.00489 33.12198,-13.98659 4.22183,-3.17805 12.78329,-11.55061 16.39815,-16.03633 7.05452,-8.75406 11.63375,-18.25859 14.56794,-30.23688 9.38947,-38.330707 -11.18044,-77.631354 -48.34822,-92.373578 -19.83271,-7.86645 -41.03238,-7.491086 -60.834469,1.077145 -14.295187,6.185431 -26.348733,16.168704 -34.776828,28.803689 -13.378924,20.057025 -16.863097,46.256474 -9.210676,69.260234 10.315045,31.00781 38.769072,52.63976 71.591863,54.42715 5.92044,0.32241 12.72039,-0.041 17.49026,-0.93484 z"
     id="path2051"
     transform="scale(0.75)" />
  <path
     style="fill:#a6bac9;fill-opacity:1;stroke-width:0.408163"
     d="m 265.5102,297.63118 c -4.6772,-2.23121 -12.34047,-9.43835 -66.26955,-62.32506 -16.02401,-15.71428 -29.27954,-28.6271 -29.45674,-28.69515 -0.17721,-0.068 -3.5072,1.33879 -7.39999,3.12631 -8.77087,4.02748 -19.12756,7.5501 -25.29866,8.60481 -10.52321,1.79854 -27.43781,2.06815 -39.107938,0.62337 C 82.406437,217.03774 60.151269,207.60717 47.755102,197.68391 42.835601,193.7458 32.240515,183.0494 28.015062,177.7551 16.269657,163.03866 8.5606678,143.28135 6.1169747,121.63265 5.5505631,116.61481 5.5564918,103.39056 6.1274965,98.163265 6.76996,92.281796 8.7143731,82.975069 10.425251,77.592522 21.117149,43.955041 49.376384,16.404181 83.955306,5.9056478 94.561865,2.6853827 100.71797,1.8766976 114.4898,1.8945407 c 11.63357,0.015073 17.45138,0.7002092 27.64204,3.2552776 33.56473,8.4155687 60.98655,32.4988997 74.33178,65.2822147 5.57829,13.703371 6.85385,21.71544 6.91674,43.445517 0.0373,12.88081 -0.36242,16.75507 -2.6108,25.30612 -1.79255,6.81742 -4.66837,13.80044 -10.63375,25.82071 -2.90084,5.84519 -5.22014,10.8672 -5.15401,11.16001 0.0661,0.29281 13.81186,14.54601 30.54606,31.67379 42.67404,43.6777 53.9624,55.4905 56.37498,58.99407 1.78261,2.58873 2.3837,4.71984 2.37579,8.42315 -0.0199,9.30751 -4.12029,17.01679 -10.77167,20.25214 -3.5838,1.74323 -6.77146,2.46778 -11.87431,2.69902 -3.84934,0.17444 -4.72269,0.0924 -6.12245,-0.57538 z m 11.50667,-14.34416 c 2.14893,-0.97562 3.39129,-3.20406 3.39129,-6.083 0,-1.73142 -0.24665,-2.34722 -1.76769,-4.41341 -3.15179,-4.28141 -11.02581,-12.51861 -37.58754,-39.32122 -36.08234,-36.40956 -54.1244,-55.24623 -54.10841,-56.49148 0.01,-0.75139 2.92789,-5.86023 7.02157,-12.29231 8.68513,-13.64632 13.58245,-26.26414 15.6882,-40.42029 0.98991,-6.65479 0.9779,-19.78099 -0.0241,-26.306126 C 206.47892,77.436853 196.80863,57.939098 182.89475,44.053714 168.25977,29.448701 148.58088,19.218651 130.20408,16.662521 124.30167,15.841522 105.5996,15.9706 99.387755,16.875209 79.782082,19.730313 59.599139,30.674808 44.905643,46.418927 c -16.31319,17.479628 -24.516756,37.59744 -25.19767,61.792893 -0.253232,8.99832 0.191144,14.64661 1.752873,22.28003 3.889983,19.01346 13.094746,35.71731 27.169334,49.30407 13.900159,13.41838 29.702653,21.67418 47.163028,24.63969 14.538382,2.46923 32.698542,2.06661 44.444952,-0.98536 5.56087,-1.44484 10.16353,-3.36647 21.11751,-8.81663 5.34766,-2.66073 10.06278,-4.8377 10.47805,-4.8377 1.36099,0 13.42874,11.55297 53.03708,50.77464 33.44715,33.12064 41.91698,41.10274 45.47798,42.85921 1.74091,0.85871 4.59693,0.79756 6.66809,-0.14275 z"
     id="path2053"
     transform="scale(0.75)" />
  <path
     style="fill:#a6bac9;fill-opacity:1;stroke-width:0.408163"
     d="M 109.95935,190.1685 C 93.995233,189.01565 77.361682,182.44312 64.897959,172.36309 58.528487,167.21178 51.011305,158.57378 46.80584,151.57343 38.238467,137.31231 34.193709,119.58927 35.920674,103.87755 38.604986,79.456016 50.922964,58.592242 70.345333,45.570227 84.895127,35.815104 103.45334,30.629431 119.47465,31.84215 c 25.77337,1.950892 48.26336,15.236704 62.32188,36.816234 6.34186,9.734612 10.76805,22.174253 12.05373,33.876546 2.03142,18.49 -3.5824,39.65479 -14.322,53.99568 -3.90944,5.22039 -13.87874,15.37705 -18.30377,18.64777 -8.31035,6.14252 -20.80633,11.54446 -31.83673,13.76283 -3.4258,0.68898 -13.79186,1.82018 -14.69388,1.60348 -0.11225,-0.027 -2.24279,-0.19625 -4.73453,-0.37619 z m 10.91577,-14.67717 c 21.77575,-2.2 41.31166,-15.65411 51.54044,-35.4952 5.03259,-9.76188 7.17628,-18.50209 7.17628,-29.259 0,-17.678044 -6.90336,-33.443424 -20.25416,-46.254986 C 151.47395,56.936037 144.19109,52.514005 134.53495,49.422333 122.93233,45.707444 108.83001,45.465889 97.342086,48.785266 87.303159,51.685961 77.907808,57.305571 70.052797,65.107712 63.593865,71.523171 59.49198,77.143376 56.09742,84.228686 c -4.322069,9.021261 -5.71044,16.490594 -5.359284,28.832534 0.323411,11.36688 1.892642,17.96153 6.41022,26.93878 5.370899,10.67296 15.836357,21.52954 26.724387,27.72315 11.039237,6.27962 24.261227,9.05541 37.002377,7.76818 z"
     id="path2055"
     transform="scale(0.75)" />
  <path
     style="fill:#a6bac9;fill-opacity:1;stroke-width:0.408163"
     d="m 271.66365,283.04695 c -3.50061,-1.20345 -8.99345,-6.30592 -46.35753,-43.06298 -47.11689,-46.35143 -51.97046,-51.00438 -53.20359,-51.00438 -0.43396,0 -5.86007,2.46672 -12.05802,5.48159 -15.986,7.77609 -21.60971,9.55346 -33.15168,10.47758 -7.25182,0.58062 -22.67843,0.23279 -28.288838,-0.63785 C 79.586094,201.34968 62.415302,192.52445 48.234278,178.41253 36.611531,166.84643 28.156579,152.4873 23.693508,136.73469 20.941821,127.0225 20.642812,124.53535 20.626632,111.22449 20.61125,98.568988 20.747783,97.196131 22.913541,88.229502 24.6078,81.214963 26.116104,77.088494 29.576776,70 34.548648,59.816118 40.319142,51.926428 48.847928,43.651582 64.54318,28.423651 83.897151,18.965791 103.06122,17.158736 c 5.7636,-0.543471 19.11687,-0.544545 24.89796,-0.002 21.7291,2.039224 47.82829,17.242151 62.05818,36.149238 7.82825,10.401308 14.38508,24.285246 17.32913,36.69403 1.98507,8.36682 2.23261,10.755176 2.22101,21.428566 -0.0118,10.83184 -0.35296,13.74906 -2.66083,22.75136 -2.09368,8.16678 -6.27049,18.11863 -10.66545,25.41191 -1.01458,1.68367 -3.61453,5.97267 -5.77765,9.53112 -2.47555,4.07237 -3.93296,6.89009 -3.93296,7.60385 0,2.09925 3.17499,5.47984 46.96645,50.00788 44.49724,45.2457 46.08228,46.97616 46.09049,50.31924 0.006,2.26424 -0.87683,4.33491 -2.22317,5.21707 -1.57978,1.03511 -3.99186,1.36343 -5.70073,0.77595 z M 120.40816,190.61988 c 8.73199,-0.56614 15.25177,-2.14358 24.55586,-5.94119 10.70431,-4.36915 16.07574,-7.87111 24.28944,-15.8358 6.29218,-6.10141 9.26716,-9.51742 12.7105,-14.59476 4.91796,-7.25172 9.13771,-17.74731 11.30792,-28.12568 1.32296,-6.32668 1.82056,-17.99325 1.03825,-24.34289 C 191.53101,79.222522 179.49328,58.997261 161.11285,46.002912 143.68143,33.679487 121.1483,28.61635 100.86174,32.464643 69.492682,38.415253 45.197157,60.960665 37.540608,91.22449 c -8.130678,32.13789 4.106803,65.49625 31.107751,84.79714 12.1624,8.69396 26.285143,13.60276 42.372051,14.72772 1.0102,0.0706 2.20408,0.15675 2.65306,0.19134 0.44898,0.0346 3.47959,-0.10977 6.73469,-0.32081 z"
     id="path2057"
     transform="scale(0.75)" />
  <path
     style="fill:#677d90;fill-opacity:1;stroke-width:0.408163"
     d="m 271.66365,283.04695 c -3.50168,-1.20382 -8.99359,-6.29458 -44.72487,-41.45798 -33.92142,-33.3823 -46.08149,-45.22631 -50.75013,-49.43105 -3.13501,-2.8235 -3.74953,-3.2137 -4.69388,-2.98051 -0.59763,0.14758 -5.95395,2.62976 -11.90293,5.51594 -11.41915,5.54007 -16.61413,7.56427 -22.89463,8.92073 -10.9042,2.3551 -30.77629,2.26441 -42.819659,-0.19541 C 61.016033,196.70681 33.179987,170.2997 23.705755,136.84908 21.236341,128.13033 20.80471,125.08007 20.538915,114.46954 20.256306,103.18781 20.669724,97.890416 22.436692,90.152118 24.173973,82.543824 26.330209,76.457127 29.64498,69.804298 34.822609,59.412665 40.337422,51.902643 48.872751,43.620086 64.586567,28.371631 83.836457,18.971514 103.06122,17.158736 c 5.789,-0.545867 19.73268,-0.544996 25.16084,0.0016 12.18274,1.226693 26.5678,6.778161 38.91972,15.01986 14.65867,9.780856 24.52167,20.987849 32.413,36.829795 4.64869,9.332315 7.39473,17.54047 9.27529,27.724731 1.0446,5.657068 1.04124,23.014018 -0.006,28.775508 -2.56119,14.09638 -7.01866,25.23604 -15.69656,39.22725 -5.09705,8.2179 -6.73034,11.41168 -6.43588,12.58493 0.57252,2.28109 6.20894,8.20976 50.85897,53.49606 29.22915,29.64567 35.84852,36.54474 39.63546,41.3102 2.12424,2.67312 2.40535,3.23995 2.40535,4.84998 0,2.33781 -0.86885,4.4022 -2.22745,5.29238 -1.57978,1.03511 -3.99186,1.36343 -5.70073,0.77595 z M 125.30612,190.16624 c 9.67836,-1.13718 24.46951,-6.62941 33.14822,-12.30855 6.51041,-4.26025 17.09848,-14.64403 22.16285,-21.73524 5.01134,-7.01694 9.31889,-16.55612 11.67701,-25.85904 10.66564,-42.076614 -14.39607,-84.599691 -56.70042,-96.205558 -7.50007,-2.057583 -12.67978,-2.740751 -20.69582,-2.729634 -7.80625,0.01083 -12.97703,0.67245 -20.152989,2.578658 C 71.749384,40.015384 52.656762,55.690446 42.828184,76.530612 23.4342,117.65293 41.801497,166.47889 83.338886,184.22058 c 13.377485,5.71387 27.233224,7.67686 41.967234,5.94566 z"
     id="path2059"
     transform="scale(0.75)" />
  <path
     style="fill:#012a4a;stroke-width:0.408163;fill-opacity:0.1733871"
     d="M 109.59184,175.26575 C 96.147502,173.9032 82.962762,168.19211 73.231794,159.51606 61.919616,149.43022 55.123098,138.15537 52.240862,124.69388 51.122966,119.47274 50.686763,107.56421 51.404533,101.86176 53.123551,88.204739 59.190228,76.60514 70.416668,65.510204 83.906042,52.178842 101.5408,45.501116 119.41089,46.957639 c 17.07725,1.391902 30.86013,8.242921 43.07203,21.409708 7.7898,8.398916 12.79935,18.030594 15.49718,29.795918 1.23222,5.373765 1.53013,15.727535 0.6193,21.523735 -3.87809,24.67893 -21.41012,45.07597 -45.49083,52.92474 -6.13377,1.99922 -17.41514,3.27239 -23.51673,2.65401 z"
     id="path845"
     transform="scale(0.75)" />
</svg>
