<?xml version="1.0" encoding="UTF-8" standalone="no"?>
<svg
   xmlns:dc="http://purl.org/dc/elements/1.1/"
   xmlns:cc="http://creativecommons.org/ns#"
   xmlns:rdf="http://www.w3.org/1999/02/22-rdf-syntax-ns#"
   xmlns:svg="http://www.w3.org/2000/svg"
   xmlns="http://www.w3.org/2000/svg"
   xmlns:sodipodi="http://sodipodi.sourceforge.net/DTD/sodipodi-0.dtd"
   xmlns:inkscape="http://www.inkscape.org/namespaces/inkscape"
   version="1.0"
   width="225.000000pt"
   height="225.000000pt"
   viewBox="0 0 225.000000 225.000000"
   preserveAspectRatio="xMidYMid meet"
   id="svg1482"
   sodipodi:docname="search_icon1.svg"
   inkscape:version="1.0.2 (e86c8708, 2021-01-15)">
  <metadata
     id="metadata1488">
    <rdf:RDF>
      <cc:Work
         rdf:about="">
        <dc:format>image/svg+xml</dc:format>
        <dc:type
           rdf:resource="http://purl.org/dc/dcmitype/StillImage" />
        <dc:title />
      </cc:Work>
    </rdf:RDF>
  </metadata>
  <defs
     id="defs1486" />
  <sodipodi:namedview
     pagecolor="#ffffff"
     bordercolor="#666666"
     borderopacity="1"
     objecttolerance="10"
     gridtolerance="10"
     guidetolerance="10"
     inkscape:pageopacity="0"
     inkscape:pageshadow="2"
     inkscape:window-width="1388"
     inkscape:window-height="951"
     id="namedview1484"
     showgrid="false"
     inkscape:zoom="2.45"
     inkscape:cx="150"
     inkscape:cy="150"
     inkscape:window-x="526"
     inkscape:window-y="1150"
     inkscape:window-maximized="0"
     inkscape:current-layer="svg1482"
     inkscape:document-rotation="0" />
  <g
     transform="translate(0.000000,225.000000) scale(0.100000,-0.100000)"
     fill="#000000"
     stroke="none"
     id="g1480">
    <path
       d="M695 2225 c-259 -57 -478 -233 -586 -471 -114 -250 -85 -567 71 -801 46 -67 145 -168 210 -212 73 -51 207 -108 294 -127 92 -20 270 -20 364 0 40 9 107 32 149 51 l75 35 302 -296 c165 -163 328 -319 360 -346 59 -50 60 -50 118 -46 94 7 148 60 156 152 4 45 0 60 -18 88 -13 18 -114 125 -224 238 -110 113 -252 258 -315 322 l-114 117 51 103 c77 153 96 239 89 412 -3 108 -10 158 -27 211 -113 357 -428 587 -798 584 -53 0 -124 -7 -157 -14z m334 -111 c149 -36 308 -139 397 -258 193 -257 203 -582 24 -845 -27 -41 -50 -81 -50 -90 0 -8 158 -174 351 -367 282 -282 352 -357 352 -378 0 -36 -20 -56 -56 -56 -27 0 -73 42 -387 355 -196 195 -362 355 -368 355 -7 0 -45 -18 -85 -39 -118 -65 -202 -86 -342 -85 -184 0 -323 48 -457 158 -231 191 -318 499 -222 788 71 213 272 399 496 458 93 24 256 26 347 4z"
       id="path1476" />
    <path
       d="M815 2013 c-282 -31 -494 -225 -541 -496 -54 -304 139 -600 442 -677 140 -36 266 -23 403 41 66 31 99 54 161 116 88 88 131 163 161 281 90 354 -168 706 -541 735 -30 2 -68 2 -85 0z m170 -128 c85 -23 152 -62 220 -130 187 -187 189 -478 3 -671 -189 -198 -492 -202 -684 -10 -99 99 -144 207 -144 347 0 129 40 228 133 326 126 133 297 183 472 138z"
       id="path1478" />
  </g>
  <path
     style="fill:#a6bac9;stroke-width:0.408163;fill-opacity:1"
     d="m 268.73748,281.68244 c -4.3857,-3.09745 -12.63453,-10.95101 -41.01883,-39.05327 -26.94846,-26.6807 -48.12163,-47.29446 -52.76686,-51.37275 l -2.61916,-2.2995 -2.10595,0.83009 c -1.15828,0.45655 -5.99945,2.81201 -10.75815,5.23435 -16.88937,8.59724 -24.68713,10.47762 -43.34608,10.45262 -12.11567,-0.0162 -17.882001,-0.627 -26.589944,-2.8164 C 58.598759,194.88 32.204922,168.59807 23.465475,136.87066 c -2.67227,-9.70132 -3.249308,-14.24764 -3.255121,-25.64617 -0.0057,-11.0851 0.377698,-14.530261 2.649078,-23.807094 6.402739,-26.150249 25.454644,-49.19472 51.326829,-62.083009 8.59229,-4.280268 16.227894,-6.712987 25.282763,-8.055141 6.913386,-1.024733 25.391166,-1.032801 31.863526,-0.01391 18.11671,2.85196 38.18527,13.663973 52.14908,28.095503 6.85497,7.084585 11.85711,14.336269 16.71429,24.231 4.66204,9.497204 7.46477,18.40833 9.05048,28.77551 0.98623,6.447831 0.98664,19.283171 8.2e-4,25.657061 -2.19999,14.22425 -7.10546,27.00239 -15.22109,39.64906 -4.79153,7.46669 -7.49552,12.24597 -7.49552,13.2483 0,1.54339 11.44796,13.68564 40.99984,43.48639 38.17515,38.49664 48.42219,49.17624 51.30374,53.46939 1.05974,1.57887 1.20982,2.1285 1.06905,3.91495 -0.2875,3.64851 -2.76769,5.88097 -6.53357,5.88097 -1.51225,0 -2.28081,-0.33034 -4.63219,-1.99103 z M 128.30659,189.61476 c 11.18036,-2.09501 25.1757,-8.00489 33.12198,-13.98659 4.22183,-3.17805 12.78329,-11.55061 16.39815,-16.03633 7.05452,-8.75406 11.63375,-18.25859 14.56794,-30.23688 9.38947,-38.330707 -11.18044,-77.631354 -48.34822,-92.373578 -19.83271,-7.86645 -41.03238,-7.491086 -60.834469,1.077145 -14.295187,6.185431 -26.348733,16.168704 -34.776828,28.803689 -13.378924,20.057025 -16.863097,46.256474 -9.210676,69.260234 10.315045,31.00781 38.769072,52.63976 71.591863,54.42715 5.92044,0.32241 12.72039,-0.041 17.49026,-0.93484 z"
     id="path2051"
     transform="scale(0.75)" />
  <path
     style="fill:#a6bac9;fill-opacity:1;stroke-width:0.408163"
     d="m 265.5102,297.63118 c -4.6772,-2.23121 -12.34047,-9.43835 -66.26955,-62.32506 -16.02401,-15.71428 -29.27954,-28.6271 -29.45674,-28.69515 -0.17721,-0.068 -3.5072,1.33879 -7.39999,3.12631 -8.77087,4.02748 -19.12756,7.5501 -25.29866,8.60481 -10.52321,1.79854 -27.43781,2.06815 -39.107938,0.62337 C 82.406437,217.03774 60.151269,207.60717 47.755102,197.68391 42.835601,193.7458 32.240515,183.0494 28.015062,177.7551 16.269657,163.03866 8.5606678,143.28135 6.1169747,121.63265 5.5505631,116.61481 5.5564918,103.39056 6.1274965,98.163265 6.76996,92.281796 8.7143731,82.975069 10.425251,77.592522 21.117149,43.955041 49.376384,16.404181 83.955306,5.9056478 94.561865,2.6853827 100.71797,1.8766976 114.4898,1.8945407 c 11.63357,0.015073 17.45138,0.7002092 27.64204,3.2552776 33.56473,8.4155687 60.98655,32.4988997 74.33178,65.2822147 5.57829,13.703371 6.85385,21.71544 6.91674,43.445517 0.0373,12.88081 -0.36242,16.75507 -2.6108,25.30612 -1.79255,6.81742 -4.66837,13.80044 -10.63375,25.82071 -2.90084,5.84519 -5.22014,10.8672 -5.15401,11.16001 0.0661,0.29281 13.81186,14.54601 30.54606,31.67379 42.67404,43.6777 53.9624,55.4905 56.37498,58.99407 1.78261,2.58873 2.3837,4.71984 2.37579,8.42315 -0.0199,9.30751 -4.12029,17.01679 -10.77167,20.25214 -3.5838,1.74323 -6.77146,2.46778 -11.87431,2.69902 -3.84934,0.17444 -4.72269,0.0924 -6.12245,-0.57538 z m 11.50667,-14.34416 c 2.14893,-0.97562 3.39129,-3.20406 3.39129,-6.083 0,-1.73142 -0.24665,-2.34722 -1.76769,-4.41341 -3.15179,-4.28141 -11.02581,-12.51861 -37.58754,-39.32122 -36.08234,-36.40956 -54.1244,-55.24623 -54.10841,-56.49148 0.01,-0.75139 2.92789,-5.86023 7.02157,-12.29231 8.68513,-13.64632 13.58245,-26.26414 15.6882,-40.42029 0.98991,-6.65479 0.9779,-19.78099 -0.0241,-26.306126 C 206.47892,77.436853 196.80863,57.939098 182.89475,44.053714 168.25977,29.448701 148.58088,19.218651 130.20408,16.662521 124.30167,15.841522 105.5996,15.9706 99.387755,16.875209 79.782082,19.730313 59.599139,30.674808 44.905643,46.418927 c -16.31319,17.479628 -24.516756,37.59744 -25.19767,61.792893 -0.253232,8.99832 0.191144,14.64661 1.752873,22.28003 3.889983,19.01346 13.094746,35.71731 27.169334,49.30407 13.900159,13.41838 29.702653,21.67418 47.163028,24.63969 14.538382,2.46923 32.698542,2.06661 44.444952,-0.98536 5.56087,-1.44484 10.16353,-3.36647 21.11751,-8.81663 5.34766,-2.66073 10.06278,-4.8377 10.47805,-4.8377 1.36099,0 13.42874,11.55297 53.03708,50.77464 33.44715,33.12064 41.91698,41.10274 45.47798,42.85921 1.74091,0.85871 4.59693,0.79756 6.66809,-0.14275 z"
     id="path2053"
     transform="scale(0.75)" />
  <path
     style="fill:#a6bac9;fill-opacity:1;stroke-width:0.408163"
     d="M 109.95935,190.1685 C 93.995233,189.01565 77.361682,182.44312 64.897959,172.36309 58.528487,167.21178 51.011305,158.57378 46.80584,151.57343 38.238467,137.31231 34.193709,119.58927 35.920674,103.87755 38.604986,79.456016 50.922964,58.592242 70.345333,45.570227 84.895127,35.815104 103.45334,30.629431 119.47465,31.84215 c 25.77337,1.950892 48.26336,15.236704 62.32188,36.816234 6.34186,9.734612 10.76805,22.174253 12.05373,33.876546 2.03142,18.49 -3.5824,39.65479 -14.322,53.99568 -3.90944,5.22039 -13.87874,15.37705 -18.30377,18.64777 -8.31035,6.14252 -20.80633,11.54446 -31.83673,13.76283 -3.4258,0.68898 -13.79186,1.82018 -14.69388,1.60348 -0.11225,-0.027 -2.24279,-0.19625 -4.73453,-0.37619 z m 10.91577,-14.67717 c 21.77575,-2.2 41.31166,-15.65411 51.54044,-35.4952 5.03259,-9.76188 7.17628,-18.50209 7.17628,-29.259 0,-17.678044 -6.90336,-33.443424 -20.25416,-46.254986 C 151.47395,56.936037 144.19109,52.514005 134.53495,49.422333 122.93233,45.707444 108.83001,45.465889 97.342086,48.785266 87.303159,51.685961 77.907808,57.305571 70.052797,65.107712 63.593865,71.523171 59.49198,77.143376 56.09742,84.228686 c -4.322069,9.021261 -5.71044,16.490594 -5.359284,28.832534 0.323411,11.36688 1.892642,17.96153 6.41022,26.93878 5.370899,10.67296 15.836357,21.52954 26.724387,27.72315 11.039237,6.27962 24.261227,9.05541 37.002377,7.76818 z"
     id="path2055"
     transform="scale(0.75)" />
  <path
     style="fill:#a6bac9;fill-opacity:1;stroke-width:0.408163"
     d="m 271.66365,283.04695 c -3.50061,-1.20345 -8.99345,-6.30592 -46.35753,-43.06298 -47.11689,-46.35143 -51.97046,-51.00438 -53.20359,-51.00438 -0.43396,0 -5.86007,2.46672 -12.05802,5.48159 -15.986,7.77609 -21.60971,9.55346 -33.15168,10.47758 -7.25182,0.58062 -22.67843,0.23279 -28.288838,-0.63785 C 79.586094,201.34968 62.415302,192.52445 48.234278,178.41253 36.611531,166.84643 28.156579,152.4873 23.693508,136.73469 20.941821,127.0225 20.642812,124.53535 20.626632,111.22449 20.61125,98.568988 20.747783,97.196131 22.913541,88.229502 24.6078,81.214963 26.116104,77.088494 29.576776,70 34.548648,59.816118 40.319142,51.926428 48.847928,43.651582 64.54318,28.423651 83.897151,18.965791 103.06122,17.158736 c 5.7636,-0.543471 19.11687,-0.544545 24.89796,-0.002 21.7291,2.039224 47.82829,17.242151 62.05818,36.149238 7.82825,10.401308 14.38508,24.285246 17.32913,36.69403 1.98507,8.36682 2.23261,10.755176 2.22101,21.428566 -0.0118,10.83184 -0.35296,13.74906 -2.66083,22.75136 -2.09368,8.16678 -6.27049,18.11863 -10.66545,25.41191 -1.01458,1.68367 -3.61453,5.97267 -5.77765,9.53112 -2.47555,4.07237 -3.93296,6.89009 -3.93296,7.60385 0,2.09925 3.17499,5.47984 46.96645,50.00788 44.49724,45.2457 46.08228,46.97616 46.09049,50.31924 0.006,2.26424 -0.87683,4.33491 -2.22317,5.21707 -1.57978,1.03511 -3.99186,1.36343 -5.70073,0.77595 z M 120.40816,190.61988 c 8.73199,-0.56614 15.25177,-2.14358 24.55586,-5.94119 10.70431,-4.36915 16.07574,-7.87111 24.28944,-15.8358 6.29218,-6.10141 9.26716,-9.51742 12.7105,-14.59476 4.91796,-7.25172 9.13771,-17.74731 11.30792,-28.12568 1.32296,-6.32668 1.82056,-17.99325 1.03825,-24.34289 C 191.53101,79.222522 179.49328,58.997261 161.11285,46.002912 143.68143,33.679487 121.1483,28.61635 100.86174,32.464643 69.492682,38.415253 45.197157,60.960665 37.540608,91.22449 c -8.130678,32.13789 4.106803,65.49625 31.107751,84.79714 12.1624,8.69396 26.285143,13.60276 42.372051,14.72772 1.0102,0.0706 2.20408,0.15675 2.65306,0.19134 0.44898,0.0346 3.47959,-0.10977 6.73469,-0.32081 z"
     id="path2057"
     transform="scale(0.75)" />
  <path
     style="fill:#39566a;fill-opacity:1;stroke-width:0.408163"
     d="m 271.66365,283.04695 c -3.50168,-1.20382 -8.99359,-6.29458 -44.72487,-41.45798 -33.92142,-33.3823 -46.08149,-45.22631 -50.75013,-49.43105 -3.13501,-2.8235 -3.74953,-3.2137 -4.69388,-2.98051 -0.59763,0.14758 -5.95395,2.62976 -11.90293,5.51594 -11.41915,5.54007 -16.61413,7.56427 -22.89463,8.92073 -10.9042,2.3551 -30.77629,2.26441 -42.819659,-0.19541 C 61.016033,196.70681 33.179987,170.2997 23.705755,136.84908 21.236341,128.13033 20.80471,125.08007 20.538915,114.46954 20.256306,103.18781 20.669724,97.890416 22.436692,90.152118 24.173973,82.543824 26.330209,76.457127 29.64498,69.804298 34.822609,59.412665 40.337422,51.902643 48.872751,43.620086 64.586567,28.371631 83.836457,18.971514 103.06122,17.158736 c 5.789,-0.545867 19.73268,-0.544996 25.16084,0.0016 12.18274,1.226693 26.5678,6.778161 38.91972,15.01986 14.65867,9.780856 24.52167,20.987849 32.413,36.829795 4.64869,9.332315 7.39473,17.54047 9.27529,27.724731 1.0446,5.657068 1.04124,23.014018 -0.006,28.775508 -2.56119,14.09638 -7.01866,25.23604 -15.69656,39.22725 -5.09705,8.2179 -6.73034,11.41168 -6.43588,12.58493 0.57252,2.28109 6.20894,8.20976 50.85897,53.49606 29.22915,29.64567 35.84852,36.54474 39.63546,41.3102 2.12424,2.67312 2.40535,3.23995 2.40535,4.84998 0,2.33781 -0.86885,4.4022 -2.22745,5.29238 -1.57978,1.03511 -3.99186,1.36343 -5.70073,0.77595 z M 125.30612,190.16624 c 9.67836,-1.13718 24.46951,-6.62941 33.14822,-12.30855 6.51041,-4.26025 17.09848,-14.64403 22.16285,-21.73524 5.01134,-7.01694 9.31889,-16.55612 11.67701,-25.85904 10.66564,-42.076614 -14.39607,-84.599691 -56.70042,-96.205558 -7.50007,-2.057583 -12.67978,-2.740751 -20.69582,-2.729634 -7.80625,0.01083 -12.97703,0.67245 -20.152989,2.578658 C 71.749384,40.015384 52.656762,55.690446 42.828184,76.530612 23.4342,117.65293 41.801497,166.47889 83.338886,184.22058 c 13.377485,5.71387 27.233224,7.67686 41.967234,5.94566 z"
     id="path2059"
     transform="scale(0.75)" />
  <path
     style="fill:#677d90;stroke-width:0.408163"
     d="M 107.47969,189.75695 C 88.392714,187.53296 70.414258,178.6545 57.730797,165.18904 c -8.828639,-9.37297 -14.048631,-18.0651 -17.9568,-29.90099 -3.059474,-9.26562 -3.653781,-13.19734 -3.637373,-24.06356 0.01307,-8.65512 0.10148,-9.79699 1.132857,-14.631576 C 41.922,74.784208 53.283396,57.41567 70.408163,45.932717 85.613061,35.737127 105.29408,30.419985 121.22449,32.203873 c 23.33906,2.613509 42.70356,13.361412 56.68722,31.463176 7.0895,9.177314 12.0757,20.179959 14.80836,32.676429 0.82953,3.793472 0.9327,5.359482 0.92659,14.064682 -0.006,9.11812 -0.0845,10.16052 -1.12806,15.06525 -2.73731,12.86486 -8.06848,24.81181 -14.49634,32.48577 -6.90315,8.2414 -14.46725,15.47683 -19.85899,18.9961 -14.76641,9.63826 -34.67554,14.66692 -50.68358,12.80167 z m 19.77354,-15.02873 c 25.95149,-5.68037 45.80566,-25.57955 51.3975,-51.51404 1.05965,-4.91457 1.05802,-19.87201 -0.003,-24.846833 -3.5571,-16.684041 -13.4854,-31.22771 -28.37242,-41.562307 -14.93761,-10.369715 -36.97594,-13.407451 -54.969188,-7.576884 -9.890146,3.204822 -18.922902,9.022317 -26.94809,17.355763 -5.952053,6.180677 -9.348521,11.037877 -12.663655,18.109959 -3.80026,8.106987 -5.075988,14.482775 -5.079726,25.387252 -0.0042,12.2377 1.430527,19.59494 5.48421,28.123 6.163644,12.96695 17.827916,24.87504 30.666931,31.30795 5.402155,2.70672 13.967028,5.26231 20.581148,6.14102 0.78571,0.10438 4.73469,0.12534 8.77551,0.0466 5.43106,-0.10587 8.33366,-0.3592 11.13078,-0.97145 z"
     id="path845"
     transform="scale(0.75)" />
  <path
     style="fill:#a6bac9;stroke-width:0.408163;fill-opacity:1"
     d="m 265.10204,297.1286 c -4.57553,-2.5075 -8.79523,-6.46951 -57.14286,-53.65318 -37.08462,-36.19183 -37.86835,-36.94481 -38.45365,-36.94481 -0.23137,0 -3.0617,1.16999 -6.28963,2.59998 -18.8851,8.3662 -28.49003,10.46234 -47.90978,10.45564 -14.45421,-0.005 -22.267712,-1.10825 -33.2359,-4.69291 C 68.701335,210.52405 55.529502,203.73555 47.553959,197.10431 40.606196,191.32762 31.123874,181.4974 26.527229,175.30612 14.636473,159.29033 7.0501524,137.48459 6.1499487,116.73469 5.3930729,99.288535 7.4634478,85.419755 12.913388,71.428571 24.817698,40.867613 51.832755,16.030714 83.877551,6.186082 94.557865,2.9049319 99.620224,2.2513353 114.28571,2.2601108 c 12.97656,0.00776 16.46982,0.3816232 26.37094,2.8222877 20.32862,5.0110795 36.6232,14.1663145 51.19979,28.7669835 5.83304,5.842668 9.35685,10.11852 13.6464,16.558781 9.25954,13.902102 15.10079,28.774992 16.75176,42.653061 0.83828,7.046556 1.21505,25.421366 0.6586,32.119216 -1.02011,12.2787 -3.23489,19.15404 -12.35817,38.36333 -3.11139,6.55112 -5.65707,12.13756 -5.65707,12.41432 0,0.70062 0.41312,1.13129 51.44721,53.63375 39.26067,40.39028 37.52114,38.27055 37.52839,45.73057 0.0107,11.0472 -5.21114,18.72843 -14.68989,21.60832 -1.32713,0.40321 -4.33073,0.76598 -7.34694,0.88733 -4.69929,0.18907 -5.23091,0.13465 -6.73469,-0.68946 z m 12.03268,-13.76189 c 2.24614,-1.1285 3.27344,-3.02393 3.27344,-6.03969 0,-4.22851 0.66683,-3.4846 -42.42297,-47.32702 -43.09573,-43.84845 -50.63825,-51.78147 -50.63825,-53.25994 0,-0.36514 1.49467,-3.13307 3.32149,-6.15095 1.82683,-3.01789 4.42874,-7.3238 5.78204,-9.5687 6.53029,-10.83268 11.00835,-22.74332 13.12064,-34.89796 0.90821,-5.2261 1.26282,-17.71587 0.6812,-23.99236 C 208.5118,83.347882 199.91018,63.068947 187.7077,48.979592 173.87734,33.010628 154.66059,21.507778 134.69388,17.246339 129.77312,16.196116 129.1205,16.156865 116.32653,16.141665 101.96063,16.124598 98.995763,16.384673 91.291343,18.337724 78.747506,21.517555 65.186392,28.445186 54.446955,37.159502 50.191265,40.612702 43.332011,47.524384 39.878405,51.8394 29.372983,64.965127 23.150363,79.140878 20.529403,95.918367 c -0.576059,3.687511 -0.731547,7.100413 -0.725225,15.918363 0.0088,12.22416 0.239053,14.24236 2.724572,23.87756 5.394268,20.91105 17.780559,39.10134 35.879462,52.69197 11.797894,8.85914 25.550776,14.55041 40.371494,16.70669 6.287234,0.91473 21.687804,1.25854 28.432704,0.63474 11.70326,-1.08238 17.56162,-2.89334 32.46512,-10.03577 5.88436,-2.82005 11.12143,-5.23343 11.63793,-5.36306 1.64191,-0.41209 3.06135,0.9225 48.68454,45.77433 41.97207,41.26244 46.36704,45.42039 50.02676,47.32883 1.62548,0.84764 5.33977,0.80306 7.10796,-0.0853 z"
     id="path847"
     transform="scale(0.75)" />
  <path
     style="fill:#a6bac9;fill-opacity:1;stroke-width:0.408163"
     d="m 270.78818,282.27036 c -3.85337,-1.94672 -7.12855,-5.03475 -52.42083,-49.42532 -45.34444,-44.44167 -44.99124,-44.1121 -46.87104,-43.73614 -0.63421,0.12684 -5.27115,2.18817 -10.30431,4.58074 -19.22517,9.13889 -23.96915,10.52882 -38.13078,11.1719 -11.91278,0.54096 -24.577204,-0.40272 -32.478522,-2.4201 -8.643661,-2.20693 -18.9858,-6.71026 -26.362322,-11.47909 C 50.724699,182.23756 39.355347,169.94619 31.6448,155.745 c -5.172513,-9.52668 -9.371675,-22.35044 -10.396363,-31.74932 -0.664834,-6.09815 -0.547971,-22.07415 0.199028,-27.208602 1.382562,-9.50296 4.365237,-18.739776 8.985051,-27.825107 4.590949,-9.028567 9.068022,-15.314608 16.085149,-22.58438 13.892284,-14.392463 30.638453,-23.960238 48.788457,-27.874854 4.551902,-0.981761 5.835678,-1.069974 18.170188,-1.248537 12.04933,-0.174436 13.72287,-0.115164 18.16326,0.64328 24.60421,4.202548 49.37137,20.847743 62.52754,42.022704 6.76249,10.884269 11.37272,22.286314 14.0602,34.773694 0.83849,3.896057 0.92314,5.380462 0.93102,16.326532 0.008,11.07712 -0.0674,12.39783 -0.94173,16.50158 -2.97127,13.94566 -6.40309,22.16367 -15.99004,38.29052 -5.67324,9.54333 -6.174,10.78736 -5.12576,12.73382 1.16443,2.16222 11.50978,13.02497 39.47921,41.45367 42.61413,43.31388 49.14526,50.13326 51.69439,53.97596 1.83063,2.7596 0.96088,7.12563 -1.67303,8.39837 -2.12742,1.02801 -3.62557,1.00121 -5.81319,-0.10397 z M 122.64644,190.5946 c 13.45747,-1.27614 29.6842,-7.55664 39.71093,-15.37 4.31076,-3.35917 12.56285,-11.5586 16.14395,-16.04093 17.83641,-22.32516 21.39916,-56.04529 8.71128,-82.448976 C 174.83789,50.982715 149.5068,33.59227 121.12245,31.3621 107.06494,30.257595 93.015016,32.93379 80.086955,39.178442 71.700882,43.229175 65.667298,47.455382 58.827754,54.069393 46.180171,66.299927 38.377145,81.702792 35.739744,99.64422 c -0.831607,5.65716 -0.83119,16.49149 8.57e-4,22.45707 3.609464,25.87876 19.678543,48.41334 42.830819,60.06409 13.928821,7.00929 28.8851,9.86964 44.07501,8.42922 z"
     id="path849"
     transform="scale(0.75)" />
  <path
     style="fill:#a6bac9;fill-opacity:1;stroke-width:0.408163"
     d="m 265.01826,297.09939 c -4.09704,-2.1701 -10.90673,-8.56485 -56.65091,-53.19895 -38.14978,-37.22397 -38.30147,-37.36983 -38.86502,-37.36983 -0.23777,0 -2.51898,0.93667 -5.06936,2.08148 -19.60591,8.80068 -29.33591,10.97379 -49.12685,10.97204 -14.44885,-10e-4 -22.247189,-1.10249 -33.268491,-4.69793 C 69.27029,210.72116 55.763229,203.87271 48.367347,197.81446 41.380849,192.09155 31.215309,181.6236 26.311078,175.10204 14.87715,159.89742 7.0379138,137.20249 6.1499487,116.73469 5.230456,95.54018 8.4332773,79.447392 16.913391,62.653061 27.148106,42.383859 42.533482,26.499669 63.061224,15.00906 73.328686,9.2617445 86.639343,4.6096716 97.346939,3.0262052 103.18427,2.1629667 117.79042,1.8338084 124.69388,2.4099261 c 25.81685,2.154507 50.75966,14.1089349 68.7532,32.9515839 16.06817,16.826429 26.82861,38.807547 29.04503,59.332368 0.71047,6.579192 0.73249,31.047972 0.0318,35.306122 -0.85498,5.19562 -2.89351,12.6866 -4.77617,17.55102 -1.944,5.0229 -2.79934,6.91347 -8.7105,19.25278 -2.27662,4.75229 -4.13928,8.87104 -4.13928,9.15277 0,0.60828 0.37674,1.00539 25.52073,26.90057 10.78989,11.11225 25.67924,26.44898 33.08745,34.08164 31.05524,31.9961 30.36502,31.12387 30.36139,38.36734 -0.004,6.98646 -1.84035,12.20285 -5.75426,16.34122 -3.84665,4.06727 -8.5953,5.86541 -16.27654,6.16333 -4.70283,0.18239 -5.23634,0.12674 -6.81847,-0.71128 z m 12.11646,-13.73268 c 2.20647,-1.10857 3.27344,-3.03314 3.27344,-5.90455 0,-4.4653 0.88828,-3.48694 -51.43046,-56.64583 -32.40773,-32.92815 -41.63076,-42.66729 -41.63076,-43.9604 0,-0.76744 1.45564,-3.36009 6.21923,-11.07714 9.03331,-14.63403 13.47666,-25.56897 15.86737,-39.04913 0.81499,-4.59538 0.94015,-6.65951 0.94015,-15.50517 0,-8.78098 -0.12823,-10.92632 -0.91947,-15.382727 C 205.82679,75.411408 196.29228,57.019922 182.17855,43.228637 168.65044,30.009598 152.15296,20.978469 134.7026,17.23912 129.70719,16.16868 129.2786,16.144564 115.71429,16.17065 103.45495,16.19423 101.2894,16.297253 97.142857,17.05419 79.39202,20.294547 61.753424,29.607192 48.13938,42.926543 32.781475,57.952004 23.873131,74.972612 20.605107,95.534527 c -0.888972,5.593283 -1.263202,20.839293 -0.649668,26.467273 2.765385,25.36702 15.929876,48.77676 36.457083,64.82976 14.556311,11.38356 29.342809,17.15293 48.438708,18.89972 6.82401,0.62422 22.34784,0.29842 27.89161,-0.58537 9.18167,-1.46375 13.10738,-2.86043 27.80884,-9.89378 5.80342,-2.77643 10.83463,-5.04805 11.18048,-5.04805 1.42326,0 5.83492,4.19364 47.6556,45.30051 42.0059,41.28893 47.07584,46.08933 50.64043,47.94818 1.62422,0.84699 5.33896,0.802 7.10653,-0.0861 z"
     id="path851"
     transform="scale(0.75)" />
  <path
     style="fill:#677d90;fill-opacity:1;stroke-width:0.408163"
     d="m 265.5102,297.41842 c -3.9678,-1.8395 -8.59841,-6.17262 -56.32987,-52.71096 -39.10904,-38.13145 -39.15609,-38.17685 -39.56071,-38.17685 -0.17856,0 -2.92112,1.1257 -6.09458,2.50155 -21.18057,9.18277 -29.87101,10.92359 -52.09647,10.43561 C 97.571608,219.16353 91.597653,218.18158 80.37142,214.36286 68.473727,210.31572 55.318808,203.51296 48.367347,197.81268 41.006556,191.77675 31.360577,181.82263 26.321817,175.0629 14.702462,159.47501 7.1022441,137.51444 6.1353147,116.73469 5.1657643,95.898624 8.4516132,79.411078 16.913391,62.653061 21.885378,52.806355 27.636079,44.572686 35.135922,36.562622 52.883869,17.607263 79.077624,4.3711443 102.61029,2.4667551 c 19.15673,-1.55026445 36.01773,0.7139064 52.22734,7.0133192 26.1902,10.1780907 47.98109,31.0113867 59.66533,57.0433667 4.43826,9.888245 6.98065,18.850567 7.99126,28.170437 0.70412,6.493382 0.73269,31.467212 0.0406,35.510202 -1.82066,10.63618 -4.29586,17.40747 -13.097,35.82882 -2.49692,5.22626 -4.53987,9.71372 -4.53987,9.97213 0,0.54015 -0.26403,0.26287 26.533,27.86439 11.11093,11.4445 26.08953,26.87307 33.28577,34.28571 29.46213,30.34808 29.15441,29.95591 29.1508,37.15099 -0.002,4.80756 -0.7294,8.24604 -2.47425,11.70257 -2.41389,4.78189 -6.66683,8.238 -12.20961,9.92204 -3.10216,0.94251 -12.0073,1.26013 -13.67347,0.48769 z m 11.60364,-14.05171 c 2.10077,-1.0712 3.0111,-2.58455 3.21016,-5.3366 0.34135,-4.71909 2.54144,-2.23241 -43.39742,-49.05052 -43.04494,-43.86879 -49.57964,-50.75177 -49.57964,-52.22205 0,-0.39367 2.2579,-4.46291 5.01755,-9.04277 6.27546,-10.41459 7.95035,-13.45641 10.09124,-18.32701 3.45325,-7.85623 5.76968,-15.54448 7.19419,-23.87756 1.08477,-6.34568 0.98078,-23.26862 -0.18183,-29.591833 -4.3188,-23.488902 -15.70331,-43.432706 -33.14156,-58.05859 -11.87261,-9.957844 -28.09492,-17.895229 -42.48232,-20.786096 -4.30013,-0.864028 -5.68636,-0.935339 -17.92584,-0.922158 -8.65078,0.0093 -14.40119,0.19424 -16.530615,0.531595 -19.274731,3.053615 -37.874563,12.826865 -52.448453,27.558951 -7.86615,7.951535 -13.192729,15.225902 -17.628609,24.074927 -4.43948,8.856204 -7.200097,17.562077 -8.756962,27.615922 -0.928627,5.996842 -1.061969,25.024502 -0.208703,29.781372 3.836736,21.38937 12.703147,38.77268 27.06636,53.06577 14.97709,14.90396 31.736436,23.41241 51.976367,26.38753 6.194465,0.91054 25.649975,1.04218 31.632655,0.21403 9.83357,-1.36121 14.60757,-3.00825 29.94609,-10.33145 5.58259,-2.66535 10.43014,-4.84609 10.77232,-4.84609 1.51368,0 5.80314,4.09278 54.99587,52.47423 34.17607,33.61242 39.69903,38.82073 43.06123,40.60789 1.86495,0.99131 5.4543,1.0308 7.31792,0.0805 z"
     id="path853"
     transform="scale(0.75)" />
</svg>
