<svg width="618.8674926757812px" height="170.02501220703124px" xmlns="http://www.w3.org/2000/svg" viewBox="-59.433746337890625 -10.01250610351562 618.8674926757812 170.02501220703124" style="background: none;" preserveAspectRatio="xMidYMid"><defs><linearGradient id="editing-glowing-gradient" x1="0.4304134495199673" x2="0.5695865504800327" y1="0.9951340343707852" y2="0.004865965629214819"><stop offset="0" stop-color="#eebbc3"></stop><stop offset="1" stop-color="#fffffe"></stop></linearGradient><filter id="editing-glowing" x="-100%" y="-100%" width="300%" height="300%"><feGaussianBlur in="SourceGraphic" result="blur" stdDeviation="7"></feGaussianBlur><feMerge><feMergeNode in="blur"></feMergeNode><feMergeNode in="SourceGraphic"></feMergeNode></feMerge></filter></defs><g filter="url(#editing-glowing)"><g transform="translate(32.104371309280396, 107.54999923706055)"><path d="M9.25 0L9.25-21.06L-2.28-21.06L-2.28-21.06Q-2.12-22.46-1.50-23.70L-1.50-23.70L-1.50-23.70Q-0.88-24.94 0.06-25.89L0.06-25.89L0.06-25.89Q1.00-26.83 2.20-27.37L2.20-27.37L2.20-27.37Q3.40-27.91 4.72-27.91L4.72-27.91L9.21-27.91L9.21-60.70L39.04-60.70L39.04-60.70Q40.60-60.70 41.98-59.92L41.98-59.92L41.98-59.92Q43.36-59.14 44.40-57.76L44.40-57.76L44.40-57.76Q45.44-56.38 46.04-54.51L46.04-54.51L46.04-54.51Q46.65-52.65 46.65-50.53L46.65-50.53L46.65-31.15L46.65-31.15Q46.65-29.03 46.04-27.21L46.04-27.21L46.04-27.21Q45.44-25.38 44.40-24.00L44.40-24.00L44.40-24.00Q43.36-22.62 41.98-21.84L41.98-21.84L41.98-21.84Q40.60-21.06 39.04-21.06L39.04-21.06L18.86-21.06L18.86 0L9.25 0ZM18.82-27.91L37.32-27.91L37.32-53.93L18.82-53.93L18.82-27.91ZM59.94-10.17L59.94-31.75L59.94-31.75Q59.94-33.87 60.54-35.71L60.54-35.71L60.54-35.71Q61.14-37.56 62.16-38.94L62.16-38.94L62.16-38.94Q63.18-40.32 64.58-41.12L64.58-41.12L64.58-41.12Q65.98-41.92 67.55-41.92L67.55-41.92L88.81-41.92L88.81-41.92Q90.37-41.92 91.75-41.12L91.75-41.12L91.75-41.12Q93.13-40.32 94.17-38.94L94.17-38.94L94.17-38.94Q95.21-37.56 95.81-35.71L95.81-35.71L95.81-35.71Q96.41-33.87 96.41-31.75L96.41-31.75L96.41-18.42L69.51-18.42L69.51-6.85L98.90-6.85L98.90-6.85Q98.74-5.45 98.12-4.18L98.12-4.18L98.12-4.18Q97.50-2.92 96.55-2.00L96.55-2.00L96.55-2.00Q95.61-1.08 94.41-0.54L94.41-0.54L94.41-0.54Q93.21 0 91.89 0L91.89 0L67.55 0L67.55 0Q65.98 0 64.58-0.80L64.58-0.80L64.58-0.80Q63.18-1.60 62.16-2.98L62.16-2.98L62.16-2.98Q61.14-4.36 60.54-6.21L60.54-6.21L60.54-6.21Q59.94-8.05 59.94-10.17L59.94-10.17ZM69.51-24.02L86.84-24.02L86.84-35.07L69.51-35.07L69.51-24.02ZM110.99 0L110.99-63.70L120.52-63.70L120.52-37.28L120.52-37.28Q121.64-39.44 123.32-40.68L123.32-40.68L123.32-40.68Q125.00-41.92 126.96-41.92L126.96-41.92L139.06-41.92L139.06-41.92Q140.62-41.92 141.98-41.12L141.98-41.12L141.98-41.12Q143.34-40.32 144.38-38.94L144.38-38.94L144.38-38.94Q145.42-37.56 146.02-35.71L146.02-35.71L146.02-35.71Q146.62-33.87 146.62-31.75L146.62-31.75L146.62-6.85L155.07-6.85L155.07-6.85Q154.91-5.45 154.29-4.18L154.29-4.18L154.29-4.18Q153.67-2.92 152.73-2.00L152.73-2.00L152.73-2.00Q151.79-1.08 150.59-0.54L150.59-0.54L150.59-0.54Q149.39 0 148.06 0L148.06 0L126.96 0L126.96 0Q125.00 0 123.34-1.22L123.34-1.22L123.34-1.22Q121.68-2.44 120.52-4.52L120.52-4.52L120.52 0L110.99 0ZM120.52-6.85L137.09-6.85L137.09-35.07L120.52-35.07L120.52-6.85ZM161.24-10.17L161.24-63.70L170.81-63.70L170.81-6.85L179.33-6.85L179.33-6.85Q179.09-5.25 178.43-3.96L178.43-3.96L178.43-3.96Q177.77-2.68 176.83-1.80L176.83-1.80L176.83-1.80Q175.89-0.92 174.71-0.46L174.71-0.46L174.71-0.46Q173.53 0 172.25 0L172.25 0L168.88 0L168.88 0Q167.32 0 165.92-0.80L165.92-0.80L165.92-0.80Q164.52-1.60 163.48-2.98L163.48-2.98L163.48-2.98Q162.44-4.36 161.84-6.21L161.84-6.21L161.84-6.21Q161.24-8.05 161.24-10.17L161.24-10.17ZM214.09 0L214.09-22.58L205.16-22.58L205.16-22.58Q205.28-23.98 205.90-25.22L205.90-25.22L205.90-25.22Q206.52-26.47 207.46-27.41L207.46-27.41L207.46-27.41Q208.40-28.35 209.60-28.89L209.60-28.89L209.60-28.89Q210.81-29.43 212.17-29.43L212.17-29.43L214.09-29.43L214.09-60.70L241.24-60.70L241.24-60.70Q242.84-60.70 244.32-59.92L244.32-59.92L244.32-59.92Q245.80-59.14 246.94-57.76L246.94-57.76L246.94-57.76Q248.08-56.38 248.76-54.51L248.76-54.51L248.76-54.51Q249.44-52.65 249.44-50.53L249.44-50.53L249.44-35.59L249.44-35.59Q249.44-32.67 248.12-30.23L248.12-30.23L248.12-30.23Q246.80-27.79 244.28-26.31L244.28-26.31L244.28-26.31Q246.04-25.67 247.32-24.50L247.32-24.50L247.32-24.50Q248.60-23.34 249.44-21.94L249.44-21.94L249.44-21.94Q250.28-20.54 250.68-19.02L250.68-19.02L250.68-19.02Q251.08-17.50 251.08-16.14L251.08-16.14L251.04-6.89L261.58-6.89L261.58-6.89Q261.42-5.45 260.79-4.20L260.79-4.20L260.79-4.20Q260.17-2.96 259.23-2.02L259.23-2.02L259.23-2.02Q258.29-1.08 257.09-0.54L257.09-0.54L257.09-0.54Q255.89 0 254.57 0L254.57 0L249.04 0L249.04 0Q247.48 0 246.10-0.80L246.10-0.80L246.10-0.80Q244.72-1.60 243.68-2.96L243.68-2.96L243.68-2.96Q242.64-4.32 242.04-6.17L242.04-6.17L242.04-6.17Q241.44-8.01 241.44-10.09L241.44-10.09L241.44-22.58L223.58-22.58L223.54 0L214.09 0ZM223.58-29.43L239.95-29.43L239.95-53.85L223.58-53.85L223.58-29.43ZM267.86-10.05L267.86-30.63L267.86-30.63Q267.86-33.03 268.52-35.11L268.52-35.11L268.52-35.11Q269.18-37.20 270.34-38.72L270.34-38.72L270.34-38.72Q271.50-40.24 273.09-41.10L273.09-41.10L273.09-41.10Q274.67-41.96 276.51-41.96L276.51-41.96L303.50-41.96L303.50-6.85L312.18-6.85L312.18-6.85Q312.02-5.45 311.40-4.18L311.40-4.18L311.40-4.18Q310.78-2.92 309.84-2.00L309.84-2.00L309.84-2.00Q308.90-1.08 307.70-0.54L307.70-0.54L307.70-0.54Q306.50 0 305.18 0L305.18 0L300.89 0L300.89 0Q298.93 0 297.17-1.34L297.17-1.34L297.17-1.34Q295.41-2.68 294.25-4.96L294.25-4.96L294.25-4.96Q293.09-2.68 291.32-1.34L291.32-1.34L291.32-1.34Q289.56 0 287.60 0L287.60 0L275.47 0L275.47 0Q273.91 0 272.51-0.80L272.51-0.80L272.51-0.80Q271.10-1.60 270.08-2.96L270.08-2.96L270.08-2.96Q269.06-4.32 268.46-6.15L268.46-6.15L268.46-6.15Q267.86-7.97 267.86-10.05L267.86-10.05ZM277.39-6.85L293.97-6.85L293.97-35.07L277.39-35.07L277.39-6.85ZM319.15-10.17L319.15-31.75L319.15-31.75Q319.15-33.87 319.75-35.71L319.75-35.71L319.75-35.71Q320.35-37.56 321.37-38.94L321.37-38.94L321.37-38.94Q322.39-40.32 323.80-41.12L323.80-41.12L323.80-41.12Q325.20-41.92 326.76-41.92L326.76-41.92L345.26-41.92L345.26-63.66L354.79-63.66L354.79-6.85L362.39-6.85L362.39-6.85Q362.23-5.45 361.61-4.18L361.61-4.18L361.61-4.18Q360.99-2.92 360.05-2.00L360.05-2.00L360.05-2.00Q359.11-1.08 357.91-0.54L357.91-0.54L357.91-0.54Q356.71 0 355.39 0L355.39 0L345.26 0L345.26-4.36L345.26-4.36Q344.18-2.32 342.49-1.16L342.49-1.16L342.49-1.16Q340.81 0 338.93 0L338.93 0L326.76 0L326.76 0Q325.20 0 323.80-0.80L323.80-0.80L323.80-0.80Q322.39-1.60 321.37-2.98L321.37-2.98L321.37-2.98Q320.35-4.36 319.75-6.21L319.75-6.21L319.75-6.21Q319.15-8.05 319.15-10.17L319.15-10.17ZM328.68-6.85L345.26-6.85L345.26-35.07L328.68-35.07L328.68-6.85ZM374.41-51.61L374.41-51.61L374.41-51.61Q373.00-51.61 371.78-52.13L371.78-52.13L371.78-52.13Q370.56-52.65 369.64-53.57L369.64-53.57L369.64-53.57Q368.72-54.49 368.20-55.71L368.20-55.71L368.20-55.71Q367.68-56.94 367.68-58.34L367.68-58.34L367.68-58.34Q367.68-59.74 368.20-60.96L368.20-60.96L368.20-60.96Q368.72-62.18 369.64-63.10L369.64-63.10L369.64-63.10Q370.56-64.02 371.78-64.56L371.78-64.56L371.78-64.56Q373.00-65.10 374.41-65.10L374.41-65.10L374.41-65.10Q375.81-65.10 377.03-64.56L377.03-64.56L377.03-64.56Q378.25-64.02 379.17-63.10L379.17-63.10L379.17-63.10Q380.09-62.18 380.63-60.96L380.63-60.96L380.63-60.96Q381.17-59.74 381.17-58.34L381.17-58.34L381.17-58.34Q381.17-56.94 380.63-55.71L380.63-55.71L380.63-55.71Q380.09-54.49 379.17-53.57L379.17-53.57L379.17-53.57Q378.25-52.65 377.01-52.13L377.01-52.13L377.01-52.13Q375.77-51.61 374.41-51.61ZM369.72-10.17L369.72-41.92L379.29-41.92L379.29-6.85L387.86-6.85L387.86-6.85Q387.74-5.45 387.12-4.18L387.12-4.18L387.12-4.18Q386.50-2.92 385.56-2.00L385.56-2.00L385.56-2.00Q384.62-1.08 383.41-0.54L383.41-0.54L383.41-0.54Q382.21 0 380.89 0L380.89 0L377.37 0L377.37 0Q375.81 0 374.41-0.80L374.41-0.80L374.41-0.80Q373.00-1.60 371.96-2.98L371.96-2.98L371.96-2.98Q370.92-4.36 370.32-6.21L370.32-6.21L370.32-6.21Q369.72-8.05 369.72-10.17L369.72-10.17ZM394.71-10.09L394.71-31.75L394.71-31.75Q394.71-33.87 395.31-35.73L395.31-35.73L395.31-35.73Q395.91-37.60 396.93-38.98L396.93-38.98L396.93-38.98Q397.95-40.36 399.31-41.14L399.31-41.14L399.31-41.14Q400.67-41.92 402.23-41.92L402.23-41.92L435.79-41.92L435.79-41.92Q435.63-40.52 435.00-39.26L435.00-39.26L435.00-39.26Q434.38-38.00 433.44-37.08L433.44-37.08L433.44-37.08Q432.50-36.16 431.30-35.61L431.30-35.61L431.30-35.61Q430.10-35.07 428.78-35.07L428.78-35.07L426.26-35.07L426.26-35.07Q427.02-34.51 427.76-33.63L427.76-33.63L427.76-33.63Q428.50-32.75 429.08-31.59L429.08-31.59L429.08-31.59Q429.66-30.43 430.00-29.05L430.00-29.05L430.00-29.05Q430.34-27.67 430.34-26.07L430.34-26.07L430.34-10.09L430.34-10.09Q430.34-8.01 429.74-6.17L429.74-6.17L429.74-6.17Q429.14-4.32 428.10-2.96L428.10-2.96L428.10-2.96Q427.06-1.60 425.68-0.80L425.68-0.80L425.68-0.80Q424.29 0 422.73 0L422.73 0L402.23 0L402.23 0Q400.67 0 399.31-0.80L399.31-0.80L399.31-0.80Q397.95-1.60 396.93-2.96L396.93-2.96L396.93-2.96Q395.91-4.32 395.31-6.17L395.31-6.17L395.31-6.17Q394.71-8.01 394.71-10.09L394.71-10.09ZM404.27-6.85L420.77-6.85L420.77-35.07L404.27-35.07L404.27-6.85Z" fill="url(#editing-glowing-gradient)"></path></g></g><style>text {
  font-size: 64px;
  font-family: Arial Black;
  dominant-baseline: central;
  text-anchor: middle;
}</style></svg>