<svg width="1066.2650146484375px" height="234.1999267578125px" xmlns="http://www.w3.org/2000/svg" viewBox="-283.13250732421875 -42.09996337890625 1066.2650146484375 234.1999267578125" style="background: none;" preserveAspectRatio="xMidYMid"><defs><filter id="editing-vintage" x="-100%" y="-100%" width="300%" height="300%"><feConvolveMatrix in="SourceGraphic" result="extrude" order="9,9" divisor="1" kernelMatrix="1,0,0,0,0,0,0,0,0,0,1,0,0,0,0,0,0,0,0,0,1,0,0,0,0,0,0,0,0,0,1,0,0,0,0,0,0,0,0,0,1,0,0,0,0,0,0,0,0,0,1,0,0,0,0,0,0,0,0,0,1,0,0,0,0,0,0,0,0,0,1,0,0,0,0,0,0,0,0,0,1"> </feConvolveMatrix><feFlood flood-color="#a6bac9" result="flood-extrude"></feFlood><feComposite operator="in" in="flood-extrude" in2="extrude" result="extrude-color"></feComposite><feOffset dx="5" dy="5" in="extrude-color" result="extrude-offset"></feOffset><feColorMatrix in="SourceGraphic" result="stroke" type="matrix" values="0 0 0 0 0 0 0 0 0 0 0 0 0 0 0 0 1 0 0 0 "></feColorMatrix><feColorMatrix in="SourceGraphic" result="fill" type="matrix" values="0 0 0 0 0 0 0 0 0 0 0 0 0 0 0 1 0 0 1 0 "></feColorMatrix><feConvolveMatrix in="stroke" result="inner-shadow" order="5,5" divisor="1" kernelMatrix="1 0 0 0 0 0 1 0 0 0 0 0 1 0 0 0 0 0 1 0 0 0 0 0 1 "></feConvolveMatrix><feOffset dx="1" dy="1" in="inner-shadow" result="offset"></feOffset><feComposite operator="in" in="offset" in2="SourceAlpha" result="comp"></feComposite><feFlood flood-color="#000" result="flood3"></feFlood><feComposite operator="in" in="flood3" in2="comp" result="comp2"></feComposite><feColorMatrix in="comp2" result="comp3" type="matrix" values="1 0 0 0 0 0 1 0 0 0 0 0 1 0 0 0 0 0 0.5 0 "></feColorMatrix><feFlood flood-color="#86a1b5" result="flood1"></feFlood><feComposite operator="in" in="flood1" in2="fill" result="fill2"></feComposite><feFlood flood-color="#fff" result="flood2"></feFlood><feComposite operator="in" in="flood2" in2="stroke" result="stroke2"></feComposite><feMerge result="obj"><feMergeNode in="extrude-offset"></feMergeNode><feMergeNode in="fill2"></feMergeNode><feMergeNode in="comp3"></feMergeNode></feMerge><feConvolveMatrix in="SourceAlpha" result="shadow" order="9,9" divisor="1" kernelMatrix="1,0,0,0,0,0,0,0,0,0,1,0,0,0,0,0,0,0,0,0,1,0,0,0,0,0,0,0,0,0,1,0,0,0,0,0,0,0,0,0,1,0,0,0,0,0,0,0,0,0,1,0,0,0,0,0,0,0,0,0,1,0,0,0,0,0,0,0,0,0,1,0,0,0,0,0,0,0,0,0,1"></feConvolveMatrix><feOffset dx="15" dy="15" in="shadow" result="shadow-offset"></feOffset><feFlood flood-color="rgba(26.666666666666668%,26.666666666666668%,26.666666666666668%,0.648)" result="flood-shadow"></feFlood><feComposite operator="in" in="flood-shadow" in2="shadow-offset" result="shadow-color"></feComposite><feMerge><feMergeNode in="shadow-color"></feMergeNode><feMergeNode in="obj"></feMergeNode></feMerge></filter></defs><g transform="translate(-9,-9)"><g filter="url(#editing-vintage)"><g transform="translate(-138.8799991607666, 130.41500091552734)"><path d="M25.10-5.50L25.10-5.50Q25.10-3.10 23.55-1.55L23.55-1.55L23.55-1.55Q22.00 0 19.60 0L19.60 0L19.60 0Q17.20 0 15.65-1.55L15.65-1.55L15.65-1.55Q14.10-3.10 14.10-5.50L14.10-5.50L14.10-104.62L14.10-104.62Q14.10-107.02 15.65-108.57L15.65-108.57L15.65-108.57Q17.20-110.12 19.60-110.12L19.60-110.12L47.80-110.12L47.80-110.12Q58.09-110.12 66.20-105.54L66.20-105.54L66.20-105.54Q74.31-100.96 78.82-92.85L78.82-92.85L78.82-92.85Q83.33-84.74 83.33-74.31L83.33-74.31L83.33-74.31Q83.33-64.01 78.82-55.98L78.82-55.98L78.82-55.98Q74.31-47.94 66.20-43.43L66.20-43.43L66.20-43.43Q58.09-38.92 47.80-38.92L47.80-38.92L25.10-38.92L25.10-5.50ZM47.80-49.49L47.80-49.49Q54.99-49.49 60.63-52.66L60.63-52.66L60.63-52.66Q66.27-55.84 69.44-61.48L69.44-61.48L69.44-61.48Q72.62-67.12 72.62-74.31L72.62-74.31L72.62-74.31Q72.62-81.64 69.44-87.35L69.44-87.35L69.44-87.35Q66.27-93.06 60.63-96.30L60.63-96.30L60.63-96.30Q54.99-99.55 47.80-99.55L47.80-99.55L25.10-99.55L25.10-49.49L47.80-49.49ZM131.84-77.83L131.84-77.83Q142.27-77.83 150.31-72.97L150.31-72.97L150.31-72.97Q158.34-68.10 162.78-59.50L162.78-59.50L162.78-59.50Q167.23-50.90 167.23-39.90L167.23-39.90L167.23-39.90Q167.23-37.65 165.82-36.31L165.82-36.31L165.82-36.31Q164.41-34.97 162.15-34.97L162.15-34.97L105.19-34.97L105.19-34.97Q106.31-23.41 114.21-16.22L114.21-16.22L114.21-16.22Q122.11-9.02 133.95-9.02L133.95-9.02L133.95-9.02Q139.03-9.02 144.17-10.79L144.17-10.79L144.17-10.79Q149.32-12.55 152.42-15.23L152.42-15.23L152.42-15.23Q154.25-16.64 156.23-16.64L156.23-16.64L156.23-16.64Q157.78-16.64 159.33-15.51L159.33-15.51L159.33-15.51Q161.16-13.82 161.16-11.70L161.16-11.70L161.16-11.70Q161.16-9.87 159.61-8.46L159.61-8.46L159.61-8.46Q154.96-4.51 147.77-1.90L147.77-1.90L147.77-1.90Q140.58 0.71 133.95 0.71L133.95 0.71L133.95 0.71Q122.67 0.71 113.79-4.30L113.79-4.30L113.79-4.30Q104.90-9.31 99.90-18.26L99.90-18.26L99.90-18.26Q94.89-27.21 94.89-38.49L94.89-38.49L94.89-38.49Q94.89-49.91 99.62-58.87L99.62-58.87L99.62-58.87Q104.34-67.82 112.73-72.83L112.73-72.83L112.73-72.83Q121.12-77.83 131.84-77.83L131.84-77.83ZM131.84-68.10L131.84-68.10Q121.12-68.10 114.07-61.48L114.07-61.48L114.07-61.48Q107.02-54.85 105.47-43.99L105.47-43.99L157.07-43.99L157.07-43.99Q155.95-54.85 149.18-61.48L149.18-61.48L149.18-61.48Q142.41-68.10 131.84-68.10L131.84-68.10ZM185.70-73.04L185.70-73.04Q185.56-72.62 185.56-71.77L185.56-71.77L185.56-38.63L185.56-38.63Q185.56-27.64 190.70-18.61L190.70-18.61L190.70-18.61Q195.85-9.59 204.80-4.44L204.80-4.44L204.80-4.44Q213.76 0.71 224.75 0.71L224.75 0.71L224.75 0.71Q235.75 0.71 244.71-4.44L244.71-4.44L244.71-4.44Q253.66-9.59 258.81-18.61L258.81-18.61L258.81-18.61Q263.95-27.64 263.95-38.63L263.95-38.63L263.95-38.63Q263.95-49.63 258.95-58.59L258.95-58.59L258.95-58.59Q253.94-67.54 245.27-72.69L245.27-72.69L245.27-72.69Q236.60-77.83 225.88-77.83L225.88-77.83L225.88-77.83Q216.72-77.83 209.10-73.95L209.10-73.95L209.10-73.95Q201.49-70.08 196.55-63.31L196.55-63.31L196.55-104.62L196.55-104.62Q196.55-107.02 195.00-108.57L195.00-108.57L195.00-108.57Q193.45-110.12 191.06-110.12L191.06-110.12L191.06-110.12Q188.66-110.12 187.18-108.57L187.18-108.57L187.18-108.57Q185.70-107.02 185.70-104.62L185.70-104.62L185.70-73.04ZM224.75-9.17L224.75-9.17Q216.72-9.17 210.23-13.04L210.23-13.04L210.23-13.04Q203.75-16.92 200.01-23.62L200.01-23.62L200.01-23.62Q196.27-30.32 196.27-38.63L196.27-38.63L196.27-38.63Q196.27-41.03 196.41-42.16L196.41-42.16L196.41-42.16Q196.55-42.44 196.55-42.86L196.55-42.86L196.55-42.86Q197.96-53.86 205.79-60.91L205.79-60.91L205.79-60.91Q213.62-67.96 224.75-67.96L224.75-67.96L224.75-67.96Q232.79-67.96 239.35-64.16L239.35-64.16L239.35-64.16Q245.90-60.35 249.64-53.65L249.64-53.65L249.64-53.65Q253.38-46.95 253.38-38.63L253.38-38.63L253.38-38.63Q253.38-30.32 249.64-23.62L249.64-23.62L249.64-23.62Q245.90-16.92 239.35-13.04L239.35-13.04L239.35-13.04Q232.79-9.17 224.75-9.17L224.75-9.17ZM282.42-104.76L282.42-104.76Q282.42-107.16 283.97-108.64L283.97-108.64L283.97-108.64Q285.52-110.12 287.78-110.12L287.78-110.12L287.78-110.12Q290.18-110.12 291.66-108.64L291.66-108.64L291.66-108.64Q293.14-107.16 293.14-104.76L293.14-104.76L293.14-24.39L293.14-24.39Q293.14-18.33 295.61-14.52L295.61-14.52L295.61-14.52Q298.07-10.72 301.88-10.72L301.88-10.72L305.41-10.72L305.41-10.72Q307.52-10.72 308.79-9.24L308.79-9.24L308.79-9.24Q310.06-7.76 310.06-5.36L310.06-5.36L310.06-5.36Q310.06-2.96 308.30-1.48L308.30-1.48L308.30-1.48Q306.53 0 303.71 0L303.71 0L301.88 0L301.88 0Q293.28 0 287.85-6.84L287.85-6.84L287.85-6.84Q282.42-13.68 282.42-24.39L282.42-24.39L282.42-104.76ZM436.54-8.46L436.54-8.46Q437.81-6.35 437.81-4.65L437.81-4.65L437.81-4.65Q437.81-2.54 436.25-1.27L436.25-1.27L436.25-1.27Q434.70 0 432.16 0L432.16 0L432.16 0Q430.47 0 429.35-0.71L429.35-0.71L429.35-0.71Q428.22-1.41 427.37-2.82L427.37-2.82L401.99-43.15L399.59-43.15L378.73-43.15L378.73-5.50L378.73-5.50Q378.73-3.10 377.18-1.55L377.18-1.55L377.18-1.55Q375.62 0 373.23 0L373.23 0L373.23 0Q370.83 0 369.28-1.55L369.28-1.55L369.28-1.55Q367.73-3.10 367.73-5.50L367.73-5.50L367.73-104.62L367.73-104.62Q367.73-107.02 369.28-108.57L369.28-108.57L369.28-108.57Q370.83-110.12 373.23-110.12L373.23-110.12L399.59-110.12L399.59-110.12Q409.89-110.12 417.92-105.82L417.92-105.82L417.92-105.82Q425.96-101.52 430.54-93.77L430.54-93.77L430.54-93.77Q435.13-86.01 435.13-76.14L435.13-76.14L435.13-76.14Q435.13-65.28 429.27-57.11L429.27-57.11L429.27-57.11Q423.42-48.93 413.41-45.40L413.41-45.40L436.54-8.46ZM378.73-53.72L399.59-53.72L399.59-53.72Q406.64-53.72 412.35-56.61L412.35-56.61L412.35-56.61Q418.06-59.50 421.24-64.58L421.24-64.58L421.24-64.58Q424.41-69.65 424.41-76.14L424.41-76.14L424.41-76.14Q424.41-82.91 421.24-88.27L421.24-88.27L421.24-88.27Q418.06-93.62 412.43-96.59L412.43-96.59L412.43-96.59Q406.78-99.55 399.59-99.55L399.59-99.55L378.73-99.55L378.73-53.72ZM488.56-77.83L488.56-77.83Q499.56-77.83 508.52-72.69L508.52-72.69L508.52-72.69Q517.47-67.54 522.62-58.52L522.62-58.52L522.62-58.52Q527.76-49.49 527.76-38.49L527.76-38.49L527.76-5.36L527.76-5.36Q527.76-3.10 526.21-1.55L526.21-1.55L526.21-1.55Q524.66 0 522.26 0L522.26 0L522.26 0Q519.87 0 518.32-1.48L518.32-1.48L518.32-1.48Q516.76-2.96 516.76-5.36L516.76-5.36L516.76-13.82L516.76-13.82Q511.83-7.05 504.22-3.17L504.22-3.17L504.22-3.17Q496.60 0.71 487.44 0.71L487.44 0.71L487.44 0.71Q476.72 0.71 468.05-4.44L468.05-4.44L468.05-4.44Q459.38-9.59 454.37-18.54L454.37-18.54L454.37-18.54Q449.37-27.50 449.37-38.49L449.37-38.49L449.37-38.49Q449.37-49.49 454.51-58.52L454.51-58.52L454.51-58.52Q459.66-67.54 468.61-72.69L468.61-72.69L468.61-72.69Q477.57-77.83 488.56-77.83L488.56-77.83ZM488.56-9.17L488.56-9.17Q496.60-9.17 503.09-12.97L503.09-12.97L503.09-12.97Q509.57-16.78 513.31-23.48L513.31-23.48L513.31-23.48Q517.05-30.17 517.05-38.49L517.05-38.49L517.05-38.49Q517.05-46.81 513.31-53.51L513.31-53.51L513.31-53.51Q509.57-60.21 503.09-64.08L503.09-64.08L503.09-64.08Q496.60-67.96 488.56-67.96L488.56-67.96L488.56-67.96Q480.53-67.96 473.97-64.08L473.97-64.08L473.97-64.08Q467.41-60.21 463.68-53.51L463.68-53.51L463.68-53.51Q459.94-46.81 459.94-38.49L459.94-38.49L459.94-38.49Q459.94-30.17 463.68-23.48L463.68-23.48L463.68-23.48Q467.41-16.78 473.97-12.97L473.97-12.97L473.97-12.97Q480.53-9.17 488.56-9.17L488.56-9.17ZM623.08-73.04L623.08-73.04Q623.22-72.62 623.22-71.77L623.22-71.77L623.22-38.63L623.22-38.63Q623.22-27.64 618.07-18.61L618.07-18.61L618.07-18.61Q612.93-9.59 603.97-4.44L603.97-4.44L603.97-4.44Q595.02 0.71 584.02 0.71L584.02 0.71L584.02 0.71Q573.02 0.71 564.07-4.44L564.07-4.44L564.07-4.44Q555.12-9.59 549.97-18.61L549.97-18.61L549.97-18.61Q544.82-27.64 544.82-38.63L544.82-38.63L544.82-38.63Q544.82-49.63 549.83-58.59L549.83-58.59L549.83-58.59Q554.83-67.54 563.51-72.69L563.51-72.69L563.51-72.69Q572.18-77.83 582.89-77.83L582.89-77.83L582.89-77.83Q592.06-77.83 599.67-73.95L599.67-73.95L599.67-73.95Q607.29-70.08 612.22-63.31L612.22-63.31L612.22-104.62L612.22-104.62Q612.22-107.02 613.77-108.57L613.77-108.57L613.77-108.57Q615.32-110.12 617.72-110.12L617.72-110.12L617.72-110.12Q620.12-110.12 621.60-108.57L621.60-108.57L621.60-108.57Q623.08-107.02 623.08-104.62L623.08-104.62L623.08-73.04ZM584.02-9.17L584.02-9.17Q592.06-9.17 598.54-13.04L598.54-13.04L598.54-13.04Q605.03-16.92 608.77-23.62L608.77-23.62L608.77-23.62Q612.50-30.32 612.50-38.63L612.50-38.63L612.50-38.63Q612.50-41.03 612.36-42.16L612.36-42.16L612.36-42.16Q612.22-42.44 612.22-42.86L612.22-42.86L612.22-42.86Q610.81-53.86 602.99-60.91L602.99-60.91L602.99-60.91Q595.16-67.96 584.02-67.96L584.02-67.96L584.02-67.96Q575.98-67.96 569.43-64.16L569.43-64.16L569.43-64.16Q562.87-60.35 559.14-53.65L559.14-53.65L559.14-53.65Q555.40-46.95 555.40-38.63L555.40-38.63L555.40-38.63Q555.40-30.32 559.14-23.62L559.14-23.62L559.14-23.62Q562.87-16.92 569.43-13.04L569.43-13.04L569.43-13.04Q575.98-9.17 584.02-9.17L584.02-9.17ZM650.86-71.63L650.86-71.63Q650.86-74.03 652.41-75.58L652.41-75.58L652.41-75.58Q653.96-77.13 656.36-77.13L656.36-77.13L656.36-77.13Q658.75-77.13 660.23-75.58L660.23-75.58L660.23-75.58Q661.71-74.03 661.71-71.63L661.71-71.63L661.71-5.50L661.71-5.50Q661.71-3.10 660.23-1.55L660.23-1.55L660.23-1.55Q658.75 0 656.36 0L656.36 0L656.36 0Q653.96 0 652.41-1.55L652.41-1.55L652.41-1.55Q650.86-3.10 650.86-5.50L650.86-5.50L650.86-71.63ZM656.36-107.16L656.36-107.16Q659.46-107.16 661.71-105.05L661.71-105.05L661.71-105.05Q663.97-102.93 663.97-99.55L663.97-99.55L663.97-99.55Q663.97-96.30 661.71-94.05L661.71-94.05L661.71-94.05Q659.46-91.79 656.21-91.79L656.21-91.79L656.21-91.79Q652.97-91.79 650.79-94.05L650.79-94.05L650.79-94.05Q648.60-96.30 648.60-99.55L648.60-99.55L648.60-99.55Q648.60-102.93 650.86-105.05L650.86-105.05L650.86-105.05Q653.11-107.16 656.36-107.16L656.36-107.16ZM724.46-77.83L724.46-77.83Q735.60-77.83 744.48-72.76L744.48-72.76L744.48-72.76Q753.36-67.68 758.51-58.66L758.51-58.66L758.51-58.66Q763.66-49.63 763.66-38.49L763.66-38.49L763.66-38.49Q763.66-27.35 758.58-18.40L758.58-18.40L758.58-18.40Q753.50-9.45 744.55-4.37L744.55-4.37L744.55-4.37Q735.60 0.71 724.46 0.71L724.46 0.71L724.46 0.71Q713.32 0.71 704.37-4.37L704.37-4.37L704.37-4.37Q695.41-9.45 690.34-18.40L690.34-18.40L690.34-18.40Q685.26-27.35 685.26-38.49L685.26-38.49L685.26-38.49Q685.26-49.63 690.34-58.66L690.34-58.66L690.34-58.66Q695.41-67.68 704.37-72.76L704.37-72.76L704.37-72.76Q713.32-77.83 724.46-77.83L724.46-77.83ZM724.46-67.96L724.46-67.96Q716.42-67.96 709.86-64.16L709.86-64.16L709.86-64.16Q703.31-60.35 699.57-53.65L699.57-53.65L699.57-53.65Q695.84-46.95 695.84-38.49L695.84-38.49L695.84-38.49Q695.84-30.17 699.57-23.48L699.57-23.48L699.57-23.48Q703.31-16.78 709.86-12.97L709.86-12.97L709.86-12.97Q716.42-9.17 724.46-9.17L724.46-9.17L724.46-9.17Q732.64-9.17 739.12-12.97L739.12-12.97L739.12-12.97Q745.61-16.78 749.27-23.48L749.27-23.48L749.27-23.48Q752.94-30.17 752.94-38.49L752.94-38.49L752.94-38.49Q752.94-46.95 749.27-53.65L749.27-53.65L749.27-53.65Q745.61-60.35 739.12-64.16L739.12-64.16L739.12-64.16Q732.64-67.96 724.46-67.96L724.46-67.96Z" fill="#f00" stroke="#0f0" stroke-width="1.8"></path></g></g><g><g transform="translate(-138.8799991607666, 130.41500091552734)"><path d="M25.10-5.50L25.10-5.50Q25.10-3.10 23.55-1.55L23.55-1.55L23.55-1.55Q22.00 0 19.60 0L19.60 0L19.60 0Q17.20 0 15.65-1.55L15.65-1.55L15.65-1.55Q14.10-3.10 14.10-5.50L14.10-5.50L14.10-104.62L14.10-104.62Q14.10-107.02 15.65-108.57L15.65-108.57L15.65-108.57Q17.20-110.12 19.60-110.12L19.60-110.12L47.80-110.12L47.80-110.12Q58.09-110.12 66.20-105.54L66.20-105.54L66.20-105.54Q74.31-100.96 78.82-92.85L78.82-92.85L78.82-92.85Q83.33-84.74 83.33-74.31L83.33-74.31L83.33-74.31Q83.33-64.01 78.82-55.98L78.82-55.98L78.82-55.98Q74.31-47.94 66.20-43.43L66.20-43.43L66.20-43.43Q58.09-38.92 47.80-38.92L47.80-38.92L25.10-38.92L25.10-5.50ZM47.80-49.49L47.80-49.49Q54.99-49.49 60.63-52.66L60.63-52.66L60.63-52.66Q66.27-55.84 69.44-61.48L69.44-61.48L69.44-61.48Q72.62-67.12 72.62-74.31L72.62-74.31L72.62-74.31Q72.62-81.64 69.44-87.35L69.44-87.35L69.44-87.35Q66.27-93.06 60.63-96.30L60.63-96.30L60.63-96.30Q54.99-99.55 47.80-99.55L47.80-99.55L25.10-99.55L25.10-49.49L47.80-49.49ZM131.84-77.83L131.84-77.83Q142.27-77.83 150.31-72.97L150.31-72.97L150.31-72.97Q158.34-68.10 162.78-59.50L162.78-59.50L162.78-59.50Q167.23-50.90 167.23-39.90L167.23-39.90L167.23-39.90Q167.23-37.65 165.82-36.31L165.82-36.31L165.82-36.31Q164.41-34.97 162.15-34.97L162.15-34.97L105.19-34.97L105.19-34.97Q106.31-23.41 114.21-16.22L114.21-16.22L114.21-16.22Q122.11-9.02 133.95-9.02L133.95-9.02L133.95-9.02Q139.03-9.02 144.17-10.79L144.17-10.79L144.17-10.79Q149.32-12.55 152.42-15.23L152.42-15.23L152.42-15.23Q154.25-16.64 156.23-16.64L156.23-16.64L156.23-16.64Q157.78-16.64 159.33-15.51L159.33-15.51L159.33-15.51Q161.16-13.82 161.16-11.70L161.16-11.70L161.16-11.70Q161.16-9.87 159.61-8.46L159.61-8.46L159.61-8.46Q154.96-4.51 147.77-1.90L147.77-1.90L147.77-1.90Q140.58 0.71 133.95 0.71L133.95 0.71L133.95 0.71Q122.67 0.71 113.79-4.30L113.79-4.30L113.79-4.30Q104.90-9.31 99.90-18.26L99.90-18.26L99.90-18.26Q94.89-27.21 94.89-38.49L94.89-38.49L94.89-38.49Q94.89-49.91 99.62-58.87L99.62-58.87L99.62-58.87Q104.34-67.82 112.73-72.83L112.73-72.83L112.73-72.83Q121.12-77.83 131.84-77.83L131.84-77.83ZM131.84-68.10L131.84-68.10Q121.12-68.10 114.07-61.48L114.07-61.48L114.07-61.48Q107.02-54.85 105.47-43.99L105.47-43.99L157.07-43.99L157.07-43.99Q155.95-54.85 149.18-61.48L149.18-61.48L149.18-61.48Q142.41-68.10 131.84-68.10L131.84-68.10ZM185.70-73.04L185.70-73.04Q185.56-72.62 185.56-71.77L185.56-71.77L185.56-38.63L185.56-38.63Q185.56-27.64 190.70-18.61L190.70-18.61L190.70-18.61Q195.85-9.59 204.80-4.44L204.80-4.44L204.80-4.44Q213.76 0.71 224.75 0.71L224.75 0.71L224.75 0.71Q235.75 0.71 244.71-4.44L244.71-4.44L244.71-4.44Q253.66-9.59 258.81-18.61L258.81-18.61L258.81-18.61Q263.95-27.64 263.95-38.63L263.95-38.63L263.95-38.63Q263.95-49.63 258.95-58.59L258.95-58.59L258.95-58.59Q253.94-67.54 245.27-72.69L245.27-72.69L245.27-72.69Q236.60-77.83 225.88-77.83L225.88-77.83L225.88-77.83Q216.72-77.83 209.10-73.95L209.10-73.95L209.10-73.95Q201.49-70.08 196.55-63.31L196.55-63.31L196.55-104.62L196.55-104.62Q196.55-107.02 195.00-108.57L195.00-108.57L195.00-108.57Q193.45-110.12 191.06-110.12L191.06-110.12L191.06-110.12Q188.66-110.12 187.18-108.57L187.18-108.57L187.18-108.57Q185.70-107.02 185.70-104.62L185.70-104.62L185.70-73.04ZM224.75-9.17L224.75-9.17Q216.72-9.17 210.23-13.04L210.23-13.04L210.23-13.04Q203.75-16.92 200.01-23.62L200.01-23.62L200.01-23.62Q196.27-30.32 196.27-38.63L196.27-38.63L196.27-38.63Q196.27-41.03 196.41-42.16L196.41-42.16L196.41-42.16Q196.55-42.44 196.55-42.86L196.55-42.86L196.55-42.86Q197.96-53.86 205.79-60.91L205.79-60.91L205.79-60.91Q213.62-67.96 224.75-67.96L224.75-67.96L224.75-67.96Q232.79-67.96 239.35-64.16L239.35-64.16L239.35-64.16Q245.90-60.35 249.64-53.65L249.64-53.65L249.64-53.65Q253.38-46.95 253.38-38.63L253.38-38.63L253.38-38.63Q253.38-30.32 249.64-23.62L249.64-23.62L249.64-23.62Q245.90-16.92 239.35-13.04L239.35-13.04L239.35-13.04Q232.79-9.17 224.75-9.17L224.75-9.17ZM282.42-104.76L282.42-104.76Q282.42-107.16 283.97-108.64L283.97-108.64L283.97-108.64Q285.52-110.12 287.78-110.12L287.78-110.12L287.78-110.12Q290.18-110.12 291.66-108.64L291.66-108.64L291.66-108.64Q293.14-107.16 293.14-104.76L293.14-104.76L293.14-24.39L293.14-24.39Q293.14-18.33 295.61-14.52L295.61-14.52L295.61-14.52Q298.07-10.72 301.88-10.72L301.88-10.72L305.41-10.72L305.41-10.72Q307.52-10.72 308.79-9.24L308.79-9.24L308.79-9.24Q310.06-7.76 310.06-5.36L310.06-5.36L310.06-5.36Q310.06-2.96 308.30-1.48L308.30-1.48L308.30-1.48Q306.53 0 303.71 0L303.71 0L301.88 0L301.88 0Q293.28 0 287.85-6.84L287.85-6.84L287.85-6.84Q282.42-13.68 282.42-24.39L282.42-24.39L282.42-104.76ZM436.54-8.46L436.54-8.46Q437.81-6.35 437.81-4.65L437.81-4.65L437.81-4.65Q437.81-2.54 436.25-1.27L436.25-1.27L436.25-1.27Q434.70 0 432.16 0L432.16 0L432.16 0Q430.47 0 429.35-0.71L429.35-0.71L429.35-0.71Q428.22-1.41 427.37-2.82L427.37-2.82L401.99-43.15L399.59-43.15L378.73-43.15L378.73-5.50L378.73-5.50Q378.73-3.10 377.18-1.55L377.18-1.55L377.18-1.55Q375.62 0 373.23 0L373.23 0L373.23 0Q370.83 0 369.28-1.55L369.28-1.55L369.28-1.55Q367.73-3.10 367.73-5.50L367.73-5.50L367.73-104.62L367.73-104.62Q367.73-107.02 369.28-108.57L369.28-108.57L369.28-108.57Q370.83-110.12 373.23-110.12L373.23-110.12L399.59-110.12L399.59-110.12Q409.89-110.12 417.92-105.82L417.92-105.82L417.92-105.82Q425.96-101.52 430.54-93.77L430.54-93.77L430.54-93.77Q435.13-86.01 435.13-76.14L435.13-76.14L435.13-76.14Q435.13-65.28 429.27-57.11L429.27-57.11L429.27-57.11Q423.42-48.93 413.41-45.40L413.41-45.40L436.54-8.46ZM378.73-53.72L399.59-53.72L399.59-53.72Q406.64-53.72 412.35-56.61L412.35-56.61L412.35-56.61Q418.06-59.50 421.24-64.58L421.24-64.58L421.24-64.58Q424.41-69.65 424.41-76.14L424.41-76.14L424.41-76.14Q424.41-82.91 421.24-88.27L421.24-88.27L421.24-88.27Q418.06-93.62 412.43-96.59L412.43-96.59L412.43-96.59Q406.78-99.55 399.59-99.55L399.59-99.55L378.73-99.55L378.73-53.72ZM488.56-77.83L488.56-77.83Q499.56-77.83 508.52-72.69L508.52-72.69L508.52-72.69Q517.47-67.54 522.62-58.52L522.62-58.52L522.62-58.52Q527.76-49.49 527.76-38.49L527.76-38.49L527.76-5.36L527.76-5.36Q527.76-3.10 526.21-1.55L526.21-1.55L526.21-1.55Q524.66 0 522.26 0L522.26 0L522.26 0Q519.87 0 518.32-1.48L518.32-1.48L518.32-1.48Q516.76-2.96 516.76-5.36L516.76-5.36L516.76-13.82L516.76-13.82Q511.83-7.05 504.22-3.17L504.22-3.17L504.22-3.17Q496.60 0.71 487.44 0.71L487.44 0.71L487.44 0.71Q476.72 0.71 468.05-4.44L468.05-4.44L468.05-4.44Q459.38-9.59 454.37-18.54L454.37-18.54L454.37-18.54Q449.37-27.50 449.37-38.49L449.37-38.49L449.37-38.49Q449.37-49.49 454.51-58.52L454.51-58.52L454.51-58.52Q459.66-67.54 468.61-72.69L468.61-72.69L468.61-72.69Q477.57-77.83 488.56-77.83L488.56-77.83ZM488.56-9.17L488.56-9.17Q496.60-9.17 503.09-12.97L503.09-12.97L503.09-12.97Q509.57-16.78 513.31-23.48L513.31-23.48L513.31-23.48Q517.05-30.17 517.05-38.49L517.05-38.49L517.05-38.49Q517.05-46.81 513.31-53.51L513.31-53.51L513.31-53.51Q509.57-60.21 503.09-64.08L503.09-64.08L503.09-64.08Q496.60-67.96 488.56-67.96L488.56-67.96L488.56-67.96Q480.53-67.96 473.97-64.08L473.97-64.08L473.97-64.08Q467.41-60.21 463.68-53.51L463.68-53.51L463.68-53.51Q459.94-46.81 459.94-38.49L459.94-38.49L459.94-38.49Q459.94-30.17 463.68-23.48L463.68-23.48L463.68-23.48Q467.41-16.78 473.97-12.97L473.97-12.97L473.97-12.97Q480.53-9.17 488.56-9.17L488.56-9.17ZM623.08-73.04L623.08-73.04Q623.22-72.62 623.22-71.77L623.22-71.77L623.22-38.63L623.22-38.63Q623.22-27.64 618.07-18.61L618.07-18.61L618.07-18.61Q612.93-9.59 603.97-4.44L603.97-4.44L603.97-4.44Q595.02 0.71 584.02 0.71L584.02 0.71L584.02 0.71Q573.02 0.71 564.07-4.44L564.07-4.44L564.07-4.44Q555.12-9.59 549.97-18.61L549.97-18.61L549.97-18.61Q544.82-27.64 544.82-38.63L544.82-38.63L544.82-38.63Q544.82-49.63 549.83-58.59L549.83-58.59L549.83-58.59Q554.83-67.54 563.51-72.69L563.51-72.69L563.51-72.69Q572.18-77.83 582.89-77.83L582.89-77.83L582.89-77.83Q592.06-77.83 599.67-73.95L599.67-73.95L599.67-73.95Q607.29-70.08 612.22-63.31L612.22-63.31L612.22-104.62L612.22-104.62Q612.22-107.02 613.77-108.57L613.77-108.57L613.77-108.57Q615.32-110.12 617.72-110.12L617.72-110.12L617.72-110.12Q620.12-110.12 621.60-108.57L621.60-108.57L621.60-108.57Q623.08-107.02 623.08-104.62L623.08-104.62L623.08-73.04ZM584.02-9.17L584.02-9.17Q592.06-9.17 598.54-13.04L598.54-13.04L598.54-13.04Q605.03-16.92 608.77-23.62L608.77-23.62L608.77-23.62Q612.50-30.32 612.50-38.63L612.50-38.63L612.50-38.63Q612.50-41.03 612.36-42.16L612.36-42.16L612.36-42.16Q612.22-42.44 612.22-42.86L612.22-42.86L612.22-42.86Q610.81-53.86 602.99-60.91L602.99-60.91L602.99-60.91Q595.16-67.96 584.02-67.96L584.02-67.96L584.02-67.96Q575.98-67.96 569.43-64.16L569.43-64.16L569.43-64.16Q562.87-60.35 559.14-53.65L559.14-53.65L559.14-53.65Q555.40-46.95 555.40-38.63L555.40-38.63L555.40-38.63Q555.40-30.32 559.14-23.62L559.14-23.62L559.14-23.62Q562.87-16.92 569.43-13.04L569.43-13.04L569.43-13.04Q575.98-9.17 584.02-9.17L584.02-9.17ZM650.86-71.63L650.86-71.63Q650.86-74.03 652.41-75.58L652.41-75.58L652.41-75.58Q653.96-77.13 656.36-77.13L656.36-77.13L656.36-77.13Q658.75-77.13 660.23-75.58L660.23-75.58L660.23-75.58Q661.71-74.03 661.71-71.63L661.71-71.63L661.71-5.50L661.71-5.50Q661.71-3.10 660.23-1.55L660.23-1.55L660.23-1.55Q658.75 0 656.36 0L656.36 0L656.36 0Q653.96 0 652.41-1.55L652.41-1.55L652.41-1.55Q650.86-3.10 650.86-5.50L650.86-5.50L650.86-71.63ZM656.36-107.16L656.36-107.16Q659.46-107.16 661.71-105.05L661.71-105.05L661.71-105.05Q663.97-102.93 663.97-99.55L663.97-99.55L663.97-99.55Q663.97-96.30 661.71-94.05L661.71-94.05L661.71-94.05Q659.46-91.79 656.21-91.79L656.21-91.79L656.21-91.79Q652.97-91.79 650.79-94.05L650.79-94.05L650.79-94.05Q648.60-96.30 648.60-99.55L648.60-99.55L648.60-99.55Q648.60-102.93 650.86-105.05L650.86-105.05L650.86-105.05Q653.11-107.16 656.36-107.16L656.36-107.16ZM724.46-77.83L724.46-77.83Q735.60-77.83 744.48-72.76L744.48-72.76L744.48-72.76Q753.36-67.68 758.51-58.66L758.51-58.66L758.51-58.66Q763.66-49.63 763.66-38.49L763.66-38.49L763.66-38.49Q763.66-27.35 758.58-18.40L758.58-18.40L758.58-18.40Q753.50-9.45 744.55-4.37L744.55-4.37L744.55-4.37Q735.60 0.71 724.46 0.71L724.46 0.71L724.46 0.71Q713.32 0.71 704.37-4.37L704.37-4.37L704.37-4.37Q695.41-9.45 690.34-18.40L690.34-18.40L690.34-18.40Q685.26-27.35 685.26-38.49L685.26-38.49L685.26-38.49Q685.26-49.63 690.34-58.66L690.34-58.66L690.34-58.66Q695.41-67.68 704.37-72.76L704.37-72.76L704.37-72.76Q713.32-77.83 724.46-77.83L724.46-77.83ZM724.46-67.96L724.46-67.96Q716.42-67.96 709.86-64.16L709.86-64.16L709.86-64.16Q703.31-60.35 699.57-53.65L699.57-53.65L699.57-53.65Q695.84-46.95 695.84-38.49L695.84-38.49L695.84-38.49Q695.84-30.17 699.57-23.48L699.57-23.48L699.57-23.48Q703.31-16.78 709.86-12.97L709.86-12.97L709.86-12.97Q716.42-9.17 724.46-9.17L724.46-9.17L724.46-9.17Q732.64-9.17 739.12-12.97L739.12-12.97L739.12-12.97Q745.61-16.78 749.27-23.48L749.27-23.48L749.27-23.48Q752.94-30.17 752.94-38.49L752.94-38.49L752.94-38.49Q752.94-46.95 749.27-53.65L749.27-53.65L749.27-53.65Q745.61-60.35 739.12-64.16L739.12-64.16L739.12-64.16Q732.64-67.96 724.46-67.96L724.46-67.96Z" fill="none" stroke="#21333f" stroke-width="2.1"></path></g></g></g><style>text {
  font-size: 64px;
  font-family: Arial Black;
  dominant-baseline: central;
  text-anchor: middle;
}</style></svg>