<svg width="591.3700317382812px" height="137.002490234375px" xmlns="http://www.w3.org/2000/svg" viewBox="-45.685015869140614 6.498754882812506 591.3700317382812 137.002490234375" style="background: none;" preserveAspectRatio="xMidYMid"><defs><filter id="editing-vintage" x="-100%" y="-100%" width="300%" height="300%"><feConvolveMatrix in="SourceGraphic" result="extrude" order="9,9" divisor="1" kernelMatrix="1,0,0,0,0,0,0,0,0,0,1,0,0,0,0,0,0,0,0,0,1,0,0,0,0,0,0,0,0,0,1,0,0,0,0,0,0,0,0,0,1,0,0,0,0,0,0,0,0,0,1,0,0,0,0,0,0,0,0,0,1,0,0,0,0,0,0,0,0,0,1,0,0,0,0,0,0,0,0,0,1"> </feConvolveMatrix><feFlood flood-color="#c7d1d8" result="flood-extrude"></feFlood><feComposite operator="in" in="flood-extrude" in2="extrude" result="extrude-color"></feComposite><feOffset dx="5" dy="5" in="extrude-color" result="extrude-offset"></feOffset><feColorMatrix in="SourceGraphic" result="stroke" type="matrix" values="0 0 0 0 0 0 0 0 0 0 0 0 0 0 0 0 1 0 0 0 "></feColorMatrix><feColorMatrix in="SourceGraphic" result="fill" type="matrix" values="0 0 0 0 0 0 0 0 0 0 0 0 0 0 0 1 0 0 1 0 "></feColorMatrix><feConvolveMatrix in="stroke" result="inner-shadow" order="5,5" divisor="1" kernelMatrix="1 0 0 0 0 0 1 0 0 0 0 0 1 0 0 0 0 0 1 0 0 0 0 0 1 "></feConvolveMatrix><feOffset dx="1" dy="1" in="inner-shadow" result="offset"></feOffset><feComposite operator="in" in="offset" in2="SourceAlpha" result="comp"></feComposite><feFlood flood-color="rgba(0%,0%,0%,0.71)" result="flood3"></feFlood><feComposite operator="in" in="flood3" in2="comp" result="comp2"></feComposite><feColorMatrix in="comp2" result="comp3" type="matrix" values="1 0 0 0 0 0 1 0 0 0 0 0 1 0 0 0 0 0 0.5 0 "></feColorMatrix><feFlood flood-color="#a6bac9" result="flood1"></feFlood><feComposite operator="in" in="flood1" in2="fill" result="fill2"></feComposite><feFlood flood-color="#fff" result="flood2"></feFlood><feComposite operator="in" in="flood2" in2="stroke" result="stroke2"></feComposite><feMerge result="obj"><feMergeNode in="extrude-offset"></feMergeNode><feMergeNode in="fill2"></feMergeNode><feMergeNode in="comp3"></feMergeNode></feMerge><feConvolveMatrix in="SourceAlpha" result="shadow" order="9,9" divisor="1" kernelMatrix="1,0,0,0,0,0,0,0,0,0,1,0,0,0,0,0,0,0,0,0,1,0,0,0,0,0,0,0,0,0,1,0,0,0,0,0,0,0,0,0,1,0,0,0,0,0,0,0,0,0,1,0,0,0,0,0,0,0,0,0,1,0,0,0,0,0,0,0,0,0,1,0,0,0,0,0,0,0,0,0,1"></feConvolveMatrix><feOffset dx="15" dy="15" in="shadow" result="shadow-offset"></feOffset><feFlood flood-color="rgba(26.666666666666668%,26.666666666666668%,26.666666666666668%,0.561)" result="flood-shadow"></feFlood><feComposite operator="in" in="flood-shadow" in2="shadow-offset" result="shadow-color"></feComposite><feMerge><feMergeNode in="shadow-color"></feMergeNode><feMergeNode in="obj"></feMergeNode></feMerge></filter></defs><g transform="translate(-9,-9)"><g filter="url(#editing-vintage)"><g transform="translate(37.63500690460205, 105.26499938964844)"><path d="M13.71-3.00L13.71-3.00Q13.71-1.69 12.86-0.85L12.86-0.85L12.86-0.85Q12.01 0 10.70 0L10.70 0L10.70 0Q9.39 0 8.55-0.85L8.55-0.85L8.55-0.85Q7.70-1.69 7.70-3.00L7.70-3.00L7.70-57.13L7.70-57.13Q7.70-58.44 8.55-59.29L8.55-59.29L8.55-59.29Q9.39-60.14 10.70-60.14L10.70-60.14L26.10-60.14L26.10-60.14Q31.72-60.14 36.15-57.63L36.15-57.63L36.15-57.63Q40.58-55.13 43.04-50.70L43.04-50.70L43.04-50.70Q45.51-46.28 45.51-40.58L45.51-40.58L45.51-40.58Q45.51-34.96 43.04-30.57L43.04-30.57L43.04-30.57Q40.58-26.18 36.15-23.72L36.15-23.72L36.15-23.72Q31.72-21.25 26.10-21.25L26.10-21.25L13.71-21.25L13.71-3.00ZM26.10-27.03L26.10-27.03Q30.03-27.03 33.11-28.76L33.11-28.76L33.11-28.76Q36.19-30.49 37.92-33.57L37.92-33.57L37.92-33.57Q39.66-36.65 39.66-40.58L39.66-40.58L39.66-40.58Q39.66-44.58 37.92-47.70L37.92-47.70L37.92-47.70Q36.19-50.82 33.11-52.59L33.11-52.59L33.11-52.59Q30.03-54.36 26.10-54.36L26.10-54.36L13.71-54.36L13.71-27.03L26.10-27.03ZM72.00-42.50L72.00-42.50Q77.69-42.50 82.08-39.85L82.08-39.85L82.08-39.85Q86.47-37.19 88.90-32.49L88.90-32.49L88.90-32.49Q91.32-27.80 91.32-21.79L91.32-21.79L91.32-21.79Q91.32-20.56 90.55-19.83L90.55-19.83L90.55-19.83Q89.78-19.10 88.55-19.10L88.55-19.10L57.44-19.10L57.44-19.10Q58.06-12.78 62.37-8.86L62.37-8.86L62.37-8.86Q66.68-4.93 73.15-4.93L73.15-4.93L73.15-4.93Q75.92-4.93 78.73-5.89L78.73-5.89L78.73-5.89Q81.54-6.85 83.24-8.32L83.24-8.32L83.24-8.32Q84.24-9.09 85.32-9.09L85.32-9.09L85.32-9.09Q86.16-9.09 87.01-8.47L87.01-8.47L87.01-8.47Q88.01-7.55 88.01-6.39L88.01-6.39L88.01-6.39Q88.01-5.39 87.16-4.62L87.16-4.62L87.16-4.62Q84.62-2.46 80.70-1.04L80.70-1.04L80.70-1.04Q76.77 0.39 73.15 0.39L73.15 0.39L73.15 0.39Q66.99 0.39 62.14-2.35L62.14-2.35L62.14-2.35Q57.29-5.08 54.55-9.97L54.55-9.97L54.55-9.97Q51.82-14.86 51.82-21.02L51.82-21.02L51.82-21.02Q51.82-27.26 54.40-32.15L54.40-32.15L54.40-32.15Q56.98-37.04 61.56-39.77L61.56-39.77L61.56-39.77Q66.14-42.50 72.00-42.50L72.00-42.50ZM72.00-37.19L72.00-37.19Q66.14-37.19 62.29-33.57L62.29-33.57L62.29-33.57Q58.44-29.95 57.60-24.02L57.60-24.02L85.78-24.02L85.78-24.02Q85.16-29.95 81.47-33.57L81.47-33.57L81.47-33.57Q77.77-37.19 72.00-37.19L72.00-37.19ZM101.41-39.89L101.41-39.89Q101.33-39.66 101.33-39.19L101.33-39.19L101.33-21.10L101.33-21.10Q101.33-15.09 104.14-10.16L104.14-10.16L104.14-10.16Q106.95-5.24 111.84-2.43L111.84-2.43L111.84-2.43Q116.73 0.39 122.74 0.39L122.74 0.39L122.74 0.39Q128.74 0.39 133.63-2.43L133.63-2.43L133.63-2.43Q138.52-5.24 141.33-10.16L141.33-10.16L141.33-10.16Q144.14-15.09 144.14-21.10L144.14-21.10L144.14-21.10Q144.14-27.10 141.41-31.99L141.41-31.99L141.41-31.99Q138.68-36.88 133.94-39.69L133.94-39.69L133.94-39.69Q129.21-42.50 123.35-42.50L123.35-42.50L123.35-42.50Q118.35-42.50 114.19-40.39L114.19-40.39L114.19-40.39Q110.03-38.27 107.34-34.57L107.34-34.57L107.34-57.13L107.34-57.13Q107.34-58.44 106.49-59.29L106.49-59.29L106.49-59.29Q105.64-60.14 104.34-60.14L104.34-60.14L104.34-60.14Q103.03-60.14 102.22-59.29L102.22-59.29L102.22-59.29Q101.41-58.44 101.41-57.13L101.41-57.13L101.41-39.89ZM122.74-5.00L122.74-5.00Q118.35-5.00 114.81-7.12L114.81-7.12L114.81-7.12Q111.27-9.24 109.22-12.90L109.22-12.90L109.22-12.90Q107.18-16.55 107.18-21.10L107.18-21.10L107.18-21.10Q107.18-22.41 107.26-23.02L107.26-23.02L107.26-23.02Q107.34-23.18 107.34-23.41L107.34-23.41L107.34-23.41Q108.11-29.41 112.38-33.26L112.38-33.26L112.38-33.26Q116.66-37.11 122.74-37.11L122.74-37.11L122.74-37.11Q127.13-37.11 130.71-35.03L130.71-35.03L130.71-35.03Q134.29-32.96 136.33-29.30L136.33-29.30L136.33-29.30Q138.37-25.64 138.37-21.10L138.37-21.10L138.37-21.10Q138.37-16.55 136.33-12.90L136.33-12.90L136.33-12.90Q134.29-9.24 130.71-7.12L130.71-7.12L130.71-7.12Q127.13-5.00 122.74-5.00L122.74-5.00ZM154.23-57.21L154.23-57.21Q154.23-58.52 155.08-59.33L155.08-59.33L155.08-59.33Q155.93-60.14 157.16-60.14L157.16-60.14L157.16-60.14Q158.47-60.14 159.27-59.33L159.27-59.33L159.27-59.33Q160.08-58.52 160.08-57.21L160.08-57.21L160.08-13.32L160.08-13.32Q160.08-10.01 161.43-7.93L161.43-7.93L161.43-7.93Q162.78-5.85 164.86-5.85L164.86-5.85L166.78-5.85L166.78-5.85Q167.94-5.85 168.63-5.04L168.63-5.04L168.63-5.04Q169.32-4.24 169.32-2.93L169.32-2.93L169.32-2.93Q169.32-1.62 168.36-0.81L168.36-0.81L168.36-0.81Q167.40 0 165.86 0L165.86 0L164.86 0L164.86 0Q160.16 0 157.20-3.73L157.20-3.73L157.20-3.73Q154.23-7.47 154.23-13.32L154.23-13.32L154.23-57.21ZM238.39-4.62L238.39-4.62Q239.09-3.46 239.09-2.54L239.09-2.54L239.09-2.54Q239.09-1.39 238.24-0.69L238.24-0.69L238.24-0.69Q237.39 0 236.01 0L236.01 0L236.01 0Q235.08 0 234.47-0.39L234.47-0.39L234.47-0.39Q233.85-0.77 233.39-1.54L233.39-1.54L219.53-23.56L218.22-23.56L206.82-23.56L206.82-3.00L206.82-3.00Q206.82-1.69 205.98-0.85L205.98-0.85L205.98-0.85Q205.13 0 203.82 0L203.82 0L203.82 0Q202.51 0 201.66-0.85L201.66-0.85L201.66-0.85Q200.82-1.69 200.82-3.00L200.82-3.00L200.82-57.13L200.82-57.13Q200.82-58.44 201.66-59.29L201.66-59.29L201.66-59.29Q202.51-60.14 203.82-60.14L203.82-60.14L218.22-60.14L218.22-60.14Q223.84-60.14 228.23-57.79L228.23-57.79L228.23-57.79Q232.62-55.44 235.12-51.20L235.12-51.20L235.12-51.20Q237.62-46.97 237.62-41.58L237.62-41.58L237.62-41.58Q237.62-35.65 234.43-31.18L234.43-31.18L234.43-31.18Q231.23-26.72 225.76-24.79L225.76-24.79L238.39-4.62ZM206.82-29.34L218.22-29.34L218.22-29.34Q222.07-29.34 225.19-30.92L225.19-30.92L225.19-30.92Q228.31-32.49 230.04-35.27L230.04-35.27L230.04-35.27Q231.77-38.04 231.77-41.58L231.77-41.58L231.77-41.58Q231.77-45.28 230.04-48.20L230.04-48.20L230.04-48.20Q228.31-51.13 225.23-52.74L225.23-52.74L225.23-52.74Q222.15-54.36 218.22-54.36L218.22-54.36L206.82-54.36L206.82-29.34ZM266.81-42.50L266.81-42.50Q272.81-42.50 277.70-39.69L277.70-39.69L277.70-39.69Q282.59-36.88 285.40-31.95L285.40-31.95L285.40-31.95Q288.21-27.03 288.21-21.02L288.21-21.02L288.21-2.93L288.21-2.93Q288.21-1.69 287.36-0.85L287.36-0.85L287.36-0.85Q286.52 0 285.21 0L285.21 0L285.21 0Q283.90 0 283.05-0.81L283.05-0.81L283.05-0.81Q282.20-1.62 282.20-2.93L282.20-2.93L282.20-7.55L282.20-7.55Q279.51-3.85 275.35-1.73L275.35-1.73L275.35-1.73Q271.19 0.39 266.19 0.39L266.19 0.39L266.19 0.39Q260.34 0.39 255.60-2.43L255.60-2.43L255.60-2.43Q250.87-5.24 248.13-10.13L248.13-10.13L248.13-10.13Q245.40-15.02 245.40-21.02L245.40-21.02L245.40-21.02Q245.40-27.03 248.21-31.95L248.21-31.95L248.21-31.95Q251.02-36.88 255.91-39.69L255.91-39.69L255.91-39.69Q260.80-42.50 266.81-42.50L266.81-42.50ZM266.81-5.00L266.81-5.00Q271.19-5.00 274.74-7.08L274.74-7.08L274.74-7.08Q278.28-9.16 280.32-12.82L280.32-12.82L280.32-12.82Q282.36-16.48 282.36-21.02L282.36-21.02L282.36-21.02Q282.36-25.56 280.32-29.22L280.32-29.22L280.32-29.22Q278.28-32.88 274.74-35.00L274.74-35.00L274.74-35.00Q271.19-37.11 266.81-37.11L266.81-37.11L266.81-37.11Q262.42-37.11 258.84-35.00L258.84-35.00L258.84-35.00Q255.25-32.88 253.21-29.22L253.21-29.22L253.21-29.22Q251.17-25.56 251.17-21.02L251.17-21.02L251.17-21.02Q251.17-16.48 253.21-12.82L253.21-12.82L253.21-12.82Q255.25-9.16 258.84-7.08L258.84-7.08L258.84-7.08Q262.42-5.00 266.81-5.00L266.81-5.00ZM340.26-39.89L340.26-39.89Q340.34-39.66 340.34-39.19L340.34-39.19L340.34-21.10L340.34-21.10Q340.34-15.09 337.53-10.16L337.53-10.16L337.53-10.16Q334.72-5.24 329.83-2.43L329.83-2.43L329.83-2.43Q324.94 0.39 318.93 0.39L318.93 0.39L318.93 0.39Q312.93 0.39 308.04-2.43L308.04-2.43L308.04-2.43Q303.15-5.24 300.34-10.16L300.34-10.16L300.34-10.16Q297.53-15.09 297.53-21.10L297.53-21.10L297.53-21.10Q297.53-27.10 300.26-31.99L300.26-31.99L300.26-31.99Q303.00-36.88 307.73-39.69L307.73-39.69L307.73-39.69Q312.47-42.50 318.32-42.50L318.32-42.50L318.32-42.50Q323.32-42.50 327.48-40.39L327.48-40.39L327.48-40.39Q331.64-38.27 334.33-34.57L334.33-34.57L334.33-57.13L334.33-57.13Q334.33-58.44 335.18-59.29L335.18-59.29L335.18-59.29Q336.03-60.14 337.34-60.14L337.34-60.14L337.34-60.14Q338.65-60.14 339.45-59.29L339.45-59.29L339.45-59.29Q340.26-58.44 340.26-57.13L340.26-57.13L340.26-39.89ZM318.93-5.00L318.93-5.00Q323.32-5.00 326.87-7.12L326.87-7.12L326.87-7.12Q330.41-9.24 332.45-12.90L332.45-12.90L332.45-12.90Q334.49-16.55 334.49-21.10L334.49-21.10L334.49-21.10Q334.49-22.41 334.41-23.02L334.41-23.02L334.41-23.02Q334.33-23.18 334.33-23.41L334.33-23.41L334.33-23.41Q333.56-29.41 329.29-33.26L329.29-33.26L329.29-33.26Q325.02-37.11 318.93-37.11L318.93-37.11L318.93-37.11Q314.55-37.11 310.96-35.03L310.96-35.03L310.96-35.03Q307.38-32.96 305.34-29.30L305.34-29.30L305.34-29.30Q303.30-25.64 303.30-21.10L303.30-21.10L303.30-21.10Q303.30-16.55 305.34-12.90L305.34-12.90L305.34-12.90Q307.38-9.24 310.96-7.12L310.96-7.12L310.96-7.12Q314.55-5.00 318.93-5.00L318.93-5.00ZM355.43-39.12L355.43-39.12Q355.43-40.42 356.28-41.27L356.28-41.27L356.28-41.27Q357.13-42.12 358.44-42.12L358.44-42.12L358.44-42.12Q359.74-42.12 360.55-41.27L360.55-41.27L360.55-41.27Q361.36-40.42 361.36-39.12L361.36-39.12L361.36-3.00L361.36-3.00Q361.36-1.69 360.55-0.85L360.55-0.85L360.55-0.85Q359.74 0 358.44 0L358.44 0L358.44 0Q357.13 0 356.28-0.85L356.28-0.85L356.28-0.85Q355.43-1.69 355.43-3.00L355.43-3.00L355.43-39.12ZM358.44-58.52L358.44-58.52Q360.13-58.52 361.36-57.37L361.36-57.37L361.36-57.37Q362.59-56.21 362.59-54.36L362.59-54.36L362.59-54.36Q362.59-52.59 361.36-51.36L361.36-51.36L361.36-51.36Q360.13-50.13 358.36-50.13L358.36-50.13L358.36-50.13Q356.59-50.13 355.39-51.36L355.39-51.36L355.39-51.36Q354.20-52.59 354.20-54.36L354.20-54.36L354.20-54.36Q354.20-56.21 355.43-57.37L355.43-57.37L355.43-57.37Q356.66-58.52 358.44-58.52L358.44-58.52ZM395.63-42.50L395.63-42.50Q401.71-42.50 406.56-39.73L406.56-39.73L406.56-39.73Q411.41-36.96 414.22-32.03L414.22-32.03L414.22-32.03Q417.03-27.10 417.03-21.02L417.03-21.02L417.03-21.02Q417.03-14.94 414.26-10.05L414.26-10.05L414.26-10.05Q411.49-5.16 406.60-2.39L406.60-2.39L406.60-2.39Q401.71 0.39 395.63 0.39L395.63 0.39L395.63 0.39Q389.54 0.39 384.65-2.39L384.65-2.39L384.65-2.39Q379.76-5.16 376.99-10.05L376.99-10.05L376.99-10.05Q374.22-14.94 374.22-21.02L374.22-21.02L374.22-21.02Q374.22-27.10 376.99-32.03L376.99-32.03L376.99-32.03Q379.76-36.96 384.65-39.73L384.65-39.73L384.65-39.73Q389.54-42.50 395.63-42.50L395.63-42.50ZM395.63-37.11L395.63-37.11Q391.24-37.11 387.66-35.03L387.66-35.03L387.66-35.03Q384.08-32.96 382.04-29.30L382.04-29.30L382.04-29.30Q380.00-25.64 380.00-21.02L380.00-21.02L380.00-21.02Q380.00-16.48 382.04-12.82L382.04-12.82L382.04-12.82Q384.08-9.16 387.66-7.08L387.66-7.08L387.66-7.08Q391.24-5.00 395.63-5.00L395.63-5.00L395.63-5.00Q400.09-5.00 403.63-7.08L403.63-7.08L403.63-7.08Q407.18-9.16 409.18-12.82L409.18-12.82L409.18-12.82Q411.18-16.48 411.18-21.02L411.18-21.02L411.18-21.02Q411.18-25.64 409.18-29.30L409.18-29.30L409.18-29.30Q407.18-32.96 403.63-35.03L403.63-35.03L403.63-35.03Q400.09-37.11 395.63-37.11L395.63-37.11Z" fill="#f00" stroke="#0f0" stroke-width="1.8"></path></g></g><g><g transform="translate(37.63500690460205, 105.26499938964844)"><path d="M13.71-3.00L13.71-3.00Q13.71-1.69 12.86-0.85L12.86-0.85L12.86-0.85Q12.01 0 10.70 0L10.70 0L10.70 0Q9.39 0 8.55-0.85L8.55-0.85L8.55-0.85Q7.70-1.69 7.70-3.00L7.70-3.00L7.70-57.13L7.70-57.13Q7.70-58.44 8.55-59.29L8.55-59.29L8.55-59.29Q9.39-60.14 10.70-60.14L10.70-60.14L26.10-60.14L26.10-60.14Q31.72-60.14 36.15-57.63L36.15-57.63L36.15-57.63Q40.58-55.13 43.04-50.70L43.04-50.70L43.04-50.70Q45.51-46.28 45.51-40.58L45.51-40.58L45.51-40.58Q45.51-34.96 43.04-30.57L43.04-30.57L43.04-30.57Q40.58-26.18 36.15-23.72L36.15-23.72L36.15-23.72Q31.72-21.25 26.10-21.25L26.10-21.25L13.71-21.25L13.71-3.00ZM26.10-27.03L26.10-27.03Q30.03-27.03 33.11-28.76L33.11-28.76L33.11-28.76Q36.19-30.49 37.92-33.57L37.92-33.57L37.92-33.57Q39.66-36.65 39.66-40.58L39.66-40.58L39.66-40.58Q39.66-44.58 37.92-47.70L37.92-47.70L37.92-47.70Q36.19-50.82 33.11-52.59L33.11-52.59L33.11-52.59Q30.03-54.36 26.10-54.36L26.10-54.36L13.71-54.36L13.71-27.03L26.10-27.03ZM72.00-42.50L72.00-42.50Q77.69-42.50 82.08-39.85L82.08-39.85L82.08-39.85Q86.47-37.19 88.90-32.49L88.90-32.49L88.90-32.49Q91.32-27.80 91.32-21.79L91.32-21.79L91.32-21.79Q91.32-20.56 90.55-19.83L90.55-19.83L90.55-19.83Q89.78-19.10 88.55-19.10L88.55-19.10L57.44-19.10L57.44-19.10Q58.06-12.78 62.37-8.86L62.37-8.86L62.37-8.86Q66.68-4.93 73.15-4.93L73.15-4.93L73.15-4.93Q75.92-4.93 78.73-5.89L78.73-5.89L78.73-5.89Q81.54-6.85 83.24-8.32L83.24-8.32L83.24-8.32Q84.24-9.09 85.32-9.09L85.32-9.09L85.32-9.09Q86.16-9.09 87.01-8.47L87.01-8.47L87.01-8.47Q88.01-7.55 88.01-6.39L88.01-6.39L88.01-6.39Q88.01-5.39 87.16-4.62L87.16-4.62L87.16-4.62Q84.62-2.46 80.70-1.04L80.70-1.04L80.70-1.04Q76.77 0.39 73.15 0.39L73.15 0.39L73.15 0.39Q66.99 0.39 62.14-2.35L62.14-2.35L62.14-2.35Q57.29-5.08 54.55-9.97L54.55-9.97L54.55-9.97Q51.82-14.86 51.82-21.02L51.82-21.02L51.82-21.02Q51.82-27.26 54.40-32.15L54.40-32.15L54.40-32.15Q56.98-37.04 61.56-39.77L61.56-39.77L61.56-39.77Q66.14-42.50 72.00-42.50L72.00-42.50ZM72.00-37.19L72.00-37.19Q66.14-37.19 62.29-33.57L62.29-33.57L62.29-33.57Q58.44-29.95 57.60-24.02L57.60-24.02L85.78-24.02L85.78-24.02Q85.16-29.95 81.47-33.57L81.47-33.57L81.47-33.57Q77.77-37.19 72.00-37.19L72.00-37.19ZM101.41-39.89L101.41-39.89Q101.33-39.66 101.33-39.19L101.33-39.19L101.33-21.10L101.33-21.10Q101.33-15.09 104.14-10.16L104.14-10.16L104.14-10.16Q106.95-5.24 111.84-2.43L111.84-2.43L111.84-2.43Q116.73 0.39 122.74 0.39L122.74 0.39L122.74 0.39Q128.74 0.39 133.63-2.43L133.63-2.43L133.63-2.43Q138.52-5.24 141.33-10.16L141.33-10.16L141.33-10.16Q144.14-15.09 144.14-21.10L144.14-21.10L144.14-21.10Q144.14-27.10 141.41-31.99L141.41-31.99L141.41-31.99Q138.68-36.88 133.94-39.69L133.94-39.69L133.94-39.69Q129.21-42.50 123.35-42.50L123.35-42.50L123.35-42.50Q118.35-42.50 114.19-40.39L114.19-40.39L114.19-40.39Q110.03-38.27 107.34-34.57L107.34-34.57L107.34-57.13L107.34-57.13Q107.34-58.44 106.49-59.29L106.49-59.29L106.49-59.29Q105.64-60.14 104.34-60.14L104.34-60.14L104.34-60.14Q103.03-60.14 102.22-59.29L102.22-59.29L102.22-59.29Q101.41-58.44 101.41-57.13L101.41-57.13L101.41-39.89ZM122.74-5.00L122.74-5.00Q118.35-5.00 114.81-7.12L114.81-7.12L114.81-7.12Q111.27-9.24 109.22-12.90L109.22-12.90L109.22-12.90Q107.18-16.55 107.18-21.10L107.18-21.10L107.18-21.10Q107.18-22.41 107.26-23.02L107.26-23.02L107.26-23.02Q107.34-23.18 107.34-23.41L107.34-23.41L107.34-23.41Q108.11-29.41 112.38-33.26L112.38-33.26L112.38-33.26Q116.66-37.11 122.74-37.11L122.74-37.11L122.74-37.11Q127.13-37.11 130.71-35.03L130.71-35.03L130.71-35.03Q134.29-32.96 136.33-29.30L136.33-29.30L136.33-29.30Q138.37-25.64 138.37-21.10L138.37-21.10L138.37-21.10Q138.37-16.55 136.33-12.90L136.33-12.90L136.33-12.90Q134.29-9.24 130.71-7.12L130.71-7.12L130.71-7.12Q127.13-5.00 122.74-5.00L122.74-5.00ZM154.23-57.21L154.23-57.21Q154.23-58.52 155.08-59.33L155.08-59.33L155.08-59.33Q155.93-60.14 157.16-60.14L157.16-60.14L157.16-60.14Q158.47-60.14 159.27-59.33L159.27-59.33L159.27-59.33Q160.08-58.52 160.08-57.21L160.08-57.21L160.08-13.32L160.08-13.32Q160.08-10.01 161.43-7.93L161.43-7.93L161.43-7.93Q162.78-5.85 164.86-5.85L164.86-5.85L166.78-5.85L166.78-5.85Q167.94-5.85 168.63-5.04L168.63-5.04L168.63-5.04Q169.32-4.24 169.32-2.93L169.32-2.93L169.32-2.93Q169.32-1.62 168.36-0.81L168.36-0.81L168.36-0.81Q167.40 0 165.86 0L165.86 0L164.86 0L164.86 0Q160.16 0 157.20-3.73L157.20-3.73L157.20-3.73Q154.23-7.47 154.23-13.32L154.23-13.32L154.23-57.21ZM238.39-4.62L238.39-4.62Q239.09-3.46 239.09-2.54L239.09-2.54L239.09-2.54Q239.09-1.39 238.24-0.69L238.24-0.69L238.24-0.69Q237.39 0 236.01 0L236.01 0L236.01 0Q235.08 0 234.47-0.39L234.47-0.39L234.47-0.39Q233.85-0.77 233.39-1.54L233.39-1.54L219.53-23.56L218.22-23.56L206.82-23.56L206.82-3.00L206.82-3.00Q206.82-1.69 205.98-0.85L205.98-0.85L205.98-0.85Q205.13 0 203.82 0L203.82 0L203.82 0Q202.51 0 201.66-0.85L201.66-0.85L201.66-0.85Q200.82-1.69 200.82-3.00L200.82-3.00L200.82-57.13L200.82-57.13Q200.82-58.44 201.66-59.29L201.66-59.29L201.66-59.29Q202.51-60.14 203.82-60.14L203.82-60.14L218.22-60.14L218.22-60.14Q223.84-60.14 228.23-57.79L228.23-57.79L228.23-57.79Q232.62-55.44 235.12-51.20L235.12-51.20L235.12-51.20Q237.62-46.97 237.62-41.58L237.62-41.58L237.62-41.58Q237.62-35.65 234.43-31.18L234.43-31.18L234.43-31.18Q231.23-26.72 225.76-24.79L225.76-24.79L238.39-4.62ZM206.82-29.34L218.22-29.34L218.22-29.34Q222.07-29.34 225.19-30.92L225.19-30.92L225.19-30.92Q228.31-32.49 230.04-35.27L230.04-35.27L230.04-35.27Q231.77-38.04 231.77-41.58L231.77-41.58L231.77-41.58Q231.77-45.28 230.04-48.20L230.04-48.20L230.04-48.20Q228.31-51.13 225.23-52.74L225.23-52.74L225.23-52.74Q222.15-54.36 218.22-54.36L218.22-54.36L206.82-54.36L206.82-29.34ZM266.81-42.50L266.81-42.50Q272.81-42.50 277.70-39.69L277.70-39.69L277.70-39.69Q282.59-36.88 285.40-31.95L285.40-31.95L285.40-31.95Q288.21-27.03 288.21-21.02L288.21-21.02L288.21-2.93L288.21-2.93Q288.21-1.69 287.36-0.85L287.36-0.85L287.36-0.85Q286.52 0 285.21 0L285.21 0L285.21 0Q283.90 0 283.05-0.81L283.05-0.81L283.05-0.81Q282.20-1.62 282.20-2.93L282.20-2.93L282.20-7.55L282.20-7.55Q279.51-3.85 275.35-1.73L275.35-1.73L275.35-1.73Q271.19 0.39 266.19 0.39L266.19 0.39L266.19 0.39Q260.34 0.39 255.60-2.43L255.60-2.43L255.60-2.43Q250.87-5.24 248.13-10.13L248.13-10.13L248.13-10.13Q245.40-15.02 245.40-21.02L245.40-21.02L245.40-21.02Q245.40-27.03 248.21-31.95L248.21-31.95L248.21-31.95Q251.02-36.88 255.91-39.69L255.91-39.69L255.91-39.69Q260.80-42.50 266.81-42.50L266.81-42.50ZM266.81-5.00L266.81-5.00Q271.19-5.00 274.74-7.08L274.74-7.08L274.74-7.08Q278.28-9.16 280.32-12.82L280.32-12.82L280.32-12.82Q282.36-16.48 282.36-21.02L282.36-21.02L282.36-21.02Q282.36-25.56 280.32-29.22L280.32-29.22L280.32-29.22Q278.28-32.88 274.74-35.00L274.74-35.00L274.74-35.00Q271.19-37.11 266.81-37.11L266.81-37.11L266.81-37.11Q262.42-37.11 258.84-35.00L258.84-35.00L258.84-35.00Q255.25-32.88 253.21-29.22L253.21-29.22L253.21-29.22Q251.17-25.56 251.17-21.02L251.17-21.02L251.17-21.02Q251.17-16.48 253.21-12.82L253.21-12.82L253.21-12.82Q255.25-9.16 258.84-7.08L258.84-7.08L258.84-7.08Q262.42-5.00 266.81-5.00L266.81-5.00ZM340.26-39.89L340.26-39.89Q340.34-39.66 340.34-39.19L340.34-39.19L340.34-21.10L340.34-21.10Q340.34-15.09 337.53-10.16L337.53-10.16L337.53-10.16Q334.72-5.24 329.83-2.43L329.83-2.43L329.83-2.43Q324.94 0.39 318.93 0.39L318.93 0.39L318.93 0.39Q312.93 0.39 308.04-2.43L308.04-2.43L308.04-2.43Q303.15-5.24 300.34-10.16L300.34-10.16L300.34-10.16Q297.53-15.09 297.53-21.10L297.53-21.10L297.53-21.10Q297.53-27.10 300.26-31.99L300.26-31.99L300.26-31.99Q303.00-36.88 307.73-39.69L307.73-39.69L307.73-39.69Q312.47-42.50 318.32-42.50L318.32-42.50L318.32-42.50Q323.32-42.50 327.48-40.39L327.48-40.39L327.48-40.39Q331.64-38.27 334.33-34.57L334.33-34.57L334.33-57.13L334.33-57.13Q334.33-58.44 335.18-59.29L335.18-59.29L335.18-59.29Q336.03-60.14 337.34-60.14L337.34-60.14L337.34-60.14Q338.65-60.14 339.45-59.29L339.45-59.29L339.45-59.29Q340.26-58.44 340.26-57.13L340.26-57.13L340.26-39.89ZM318.93-5.00L318.93-5.00Q323.32-5.00 326.87-7.12L326.87-7.12L326.87-7.12Q330.41-9.24 332.45-12.90L332.45-12.90L332.45-12.90Q334.49-16.55 334.49-21.10L334.49-21.10L334.49-21.10Q334.49-22.41 334.41-23.02L334.41-23.02L334.41-23.02Q334.33-23.18 334.33-23.41L334.33-23.41L334.33-23.41Q333.56-29.41 329.29-33.26L329.29-33.26L329.29-33.26Q325.02-37.11 318.93-37.11L318.93-37.11L318.93-37.11Q314.55-37.11 310.96-35.03L310.96-35.03L310.96-35.03Q307.38-32.96 305.34-29.30L305.34-29.30L305.34-29.30Q303.30-25.64 303.30-21.10L303.30-21.10L303.30-21.10Q303.30-16.55 305.34-12.90L305.34-12.90L305.34-12.90Q307.38-9.24 310.96-7.12L310.96-7.12L310.96-7.12Q314.55-5.00 318.93-5.00L318.93-5.00ZM355.43-39.12L355.43-39.12Q355.43-40.42 356.28-41.27L356.28-41.27L356.28-41.27Q357.13-42.12 358.44-42.12L358.44-42.12L358.44-42.12Q359.74-42.12 360.55-41.27L360.55-41.27L360.55-41.27Q361.36-40.42 361.36-39.12L361.36-39.12L361.36-3.00L361.36-3.00Q361.36-1.69 360.55-0.85L360.55-0.85L360.55-0.85Q359.74 0 358.44 0L358.44 0L358.44 0Q357.13 0 356.28-0.85L356.28-0.85L356.28-0.85Q355.43-1.69 355.43-3.00L355.43-3.00L355.43-39.12ZM358.44-58.52L358.44-58.52Q360.13-58.52 361.36-57.37L361.36-57.37L361.36-57.37Q362.59-56.21 362.59-54.36L362.59-54.36L362.59-54.36Q362.59-52.59 361.36-51.36L361.36-51.36L361.36-51.36Q360.13-50.13 358.36-50.13L358.36-50.13L358.36-50.13Q356.59-50.13 355.39-51.36L355.39-51.36L355.39-51.36Q354.20-52.59 354.20-54.36L354.20-54.36L354.20-54.36Q354.20-56.21 355.43-57.37L355.43-57.37L355.43-57.37Q356.66-58.52 358.44-58.52L358.44-58.52ZM395.63-42.50L395.63-42.50Q401.71-42.50 406.56-39.73L406.56-39.73L406.56-39.73Q411.41-36.96 414.22-32.03L414.22-32.03L414.22-32.03Q417.03-27.10 417.03-21.02L417.03-21.02L417.03-21.02Q417.03-14.94 414.26-10.05L414.26-10.05L414.26-10.05Q411.49-5.16 406.60-2.39L406.60-2.39L406.60-2.39Q401.71 0.39 395.63 0.39L395.63 0.39L395.63 0.39Q389.54 0.39 384.65-2.39L384.65-2.39L384.65-2.39Q379.76-5.16 376.99-10.05L376.99-10.05L376.99-10.05Q374.22-14.94 374.22-21.02L374.22-21.02L374.22-21.02Q374.22-27.10 376.99-32.03L376.99-32.03L376.99-32.03Q379.76-36.96 384.65-39.73L384.65-39.73L384.65-39.73Q389.54-42.50 395.63-42.50L395.63-42.50ZM395.63-37.11L395.63-37.11Q391.24-37.11 387.66-35.03L387.66-35.03L387.66-35.03Q384.08-32.96 382.04-29.30L382.04-29.30L382.04-29.30Q380.00-25.64 380.00-21.02L380.00-21.02L380.00-21.02Q380.00-16.48 382.04-12.82L382.04-12.82L382.04-12.82Q384.08-9.16 387.66-7.08L387.66-7.08L387.66-7.08Q391.24-5.00 395.63-5.00L395.63-5.00L395.63-5.00Q400.09-5.00 403.63-7.08L403.63-7.08L403.63-7.08Q407.18-9.16 409.18-12.82L409.18-12.82L409.18-12.82Q411.18-16.48 411.18-21.02L411.18-21.02L411.18-21.02Q411.18-25.64 409.18-29.30L409.18-29.30L409.18-29.30Q407.18-32.96 403.63-35.03L403.63-35.03L403.63-35.03Q400.09-37.11 395.63-37.11L395.63-37.11Z" fill="none" stroke="#2b3953" stroke-width="2.1"></path></g></g></g><style>text {
  font-size: 64px;
  font-family: Arial Black;
  dominant-baseline: central;
  text-anchor: middle;
}</style></svg>